<?xml version="1.0" encoding="UTF-8" standalone="no"?>
<!-- Created with Inkscape (http://www.inkscape.org/) -->

<svg
   xmlns:dc="http://purl.org/dc/elements/1.1/"
   xmlns:cc="http://creativecommons.org/ns#"
   xmlns:rdf="http://www.w3.org/1999/02/22-rdf-syntax-ns#"
   xmlns:svg="http://www.w3.org/2000/svg"
   xmlns="http://www.w3.org/2000/svg"
   xmlns:sodipodi="http://sodipodi.sourceforge.net/DTD/sodipodi-0.dtd"
   xmlns:inkscape="http://www.inkscape.org/namespaces/inkscape"
   version="1.1"
   id="svg71"
   width="266.66666"
   height="189.44392"
   viewBox="0 0 266.66666 189.44393"
   sodipodi:docname="char-icon-3.svg"
   inkscape:version="0.92.4 (unknown)">
  <path
     style="stroke-width:1.33333325"
     d="m 246.62727,184.65789 c -0.86874,-2.6323 -1.25462,-6.41057 -0.85752,-8.39612 0.39712,-1.98556 0.29576,-4.29982 -0.22524,-5.1428 -0.69326,-1.12173 -24.53344,-1.66065 -88.91254,-2.00989 C 58.34465,168.57588 64.34403,169.13258 44,158.65801 31.30347,152.12093 15.324,135.68492 9.11591,122.77725 c -2.64528,-5.5 -5.2262,-11.95 -5.73537,-14.33333 C 2.87138,106.06059 1.90246,104.11059 1.22739,104.11059 0.53619,104.11059 0,95.664768 0,84.777251 0,74.143918 0.54016,65.443918 1.20035,65.443918 c 0.66019,0 1.90571,-2.94032 2.76783,-6.534042 2.28126,-9.509351 12.31713,-25.762449 21.34607,-34.569953 25.9445,-25.30823866 63.22359,-31.4301867 96.05818,-15.774614 21.41099,10.208785 39.24147,32.382019 44.66643,55.545276 1.28812,5.5 2.53751,10.75 2.77642,11.666666 0.23889,0.916667 1.95318,1.666667 3.80954,1.666667 1.85635,0 4.57518,1.2 6.04184,2.666667 2.46667,2.466664 2.66667,4.444443 2.66667,26.369995 0,26.59069 -0.71333,29.14311 -8.35068,29.88015 -4.07701,0.39346 -4.31599,0.71183 -4.31599,5.74986 v 5.33333 l 48.66667,0.72483 c 26.76666,0.39865 48.81666,0.84865 49,1 0.18333,0.15134 0.33333,9.27517 0.33333,20.27517 v 20 h -9.22993 -9.22994 z m 12.03939,-15.95933 c 0,-9.11524 -0.38019,-11.25464 -2,-11.25464 -1.61777,0 -2,2.12345 -2,11.11111 0,6.11112 0.38369,11.4948 0.85264,11.96376 2.17736,2.17736 3.14736,-1.46556 3.14736,-11.82023 z m -14,-9.92131 c 0,-1.72222 -5.23145,-2.04917 -37.66667,-2.35409 -30.89243,-0.29041 -37.66666,-0.0307 -37.66666,1.44444 0,0.9892 0.40929,2.20784 0.90956,2.70809 0.50025,0.50026 17.45025,0.75026 37.66666,0.55556 31.62676,-0.30458 36.75711,-0.63314 36.75711,-2.354 z M 159.70689,118.11059 C 160.12904,71.401577 159.29849,64.818445 151.04373,49.443918 141.16628,31.047139 127.8081,19.728392 108.19303,13.135359 80.46833,3.8165153 51.97798,10.592852 31.33333,31.416191 16.33043,46.548942 9.1407,63.531814 9.08513,83.96867 c -0.0935,34.37611 21.86482,63.59845 55.21238,73.4773 7.4925,2.21958 12.90824,2.45406 51.70249,2.2386 l 43.33333,-0.24065 z M 65.58456,137.45867 C 51.43913,132.31581 39.12086,120.62186 32.4554,106.00856 29.30118,99.093276 28.84137,96.368666 28.75981,84.110584 28.67151,70.830969 28.89392,69.657923 33.08313,61.313529 38.82382,49.878769 43.6831,44.111715 52.3117,38.492836 c 8.99287,-5.856088 16.98028,-8.642277 27.06275,-9.440095 24.14135,-1.910286 44.55772,9.551352 54.97531,30.862839 4.80901,9.837913 4.98178,10.68537 4.93274,24.195004 -0.0463,12.756982 -0.41121,14.769492 -4.1098,22.666666 -5.64644,12.05622 -15.60975,22.51729 -26.77848,28.11632 -8.28984,4.15582 -10.19551,4.56778 -22.39422,4.84114 -10.399,0.23304 -14.89193,-0.26787 -20.41544,-2.27604 z m 34.73776,-9.07015 c 19.99994,-7.64192 31.25737,-25.35757 30.138,-47.427762 C 129.26607,57.414344 111.12488,39.301351 87.16786,37.735592 66.31678,36.372827 46.9314,48.608457 39.52896,67.804233 c -2.94455,7.635745 -2.92854,25.044099 0.03,32.612707 9.56588,24.47159 36.9418,37.07371 60.76336,27.97158 z M 172,106.66614 c 0,-15.495424 -0.38252,-19.983981 -1.66667,-19.55719 -1.20928,0.401908 -1.76792,5.920989 -2.03564,20.11111 -0.31712,16.8086 -0.0829,19.55719 1.66667,19.55719 1.73532,0 2.03564,-2.96694 2.03564,-20.11111 z"
     id="path205"
     inkscape:connector-curvature="0" />
</svg>
