<?xml version="1.0" encoding="UTF-8" standalone="no"?>
<!-- Created with Inkscape (http://www.inkscape.org/) -->

<svg
   xmlns:dc="http://purl.org/dc/elements/1.1/"
   xmlns:cc="http://creativecommons.org/ns#"
   xmlns:rdf="http://www.w3.org/1999/02/22-rdf-syntax-ns#"
   xmlns:svg="http://www.w3.org/2000/svg"
   xmlns="http://www.w3.org/2000/svg"
   xmlns:sodipodi="http://sodipodi.sourceforge.net/DTD/sodipodi-0.dtd"
   xmlns:inkscape="http://www.inkscape.org/namespaces/inkscape"
   version="1.1"
   id="svg111"
   width="266.42709"
   height="242.39653"
   viewBox="0 0 266.4271 242.39653"
   sodipodi:docname="char-icon-6.svg"
   inkscape:version="0.92.4 (unknown)">
  <path
     style="stroke-width:1.33333337"
     d="m 99.716507,238.28503 c -1.28333,-2.2548 -2.33333,-4.59936 -2.33333,-5.21015 0,-0.6108 4.049993,-3.36081 8.999993,-6.11116 4.95,-2.75034 11.05268,-6.67394 13.56151,-8.71909 2.50883,-2.04515 5.06103,-3.40973 5.67156,-3.03241 1.6458,1.01716 -0.11236,7.19924 -3.59679,12.64714 -2.74704,4.29498 -16.0628,14.55503 -18.86224,14.53372 -0.60905,-0.005 -2.15737,-1.85326 -3.440703,-4.10805 z m 57.666663,1.31204 c -6.18429,-3.70324 -13.11216,-10.33911 -15.44709,-14.79601 -1.87851,-3.58568 -2.59804,-10.39955 -1.09819,-10.39955 0.43343,0 3.28343,2.13887 6.33333,4.75304 3.04991,2.61419 9.29251,6.54351 13.87247,8.73184 l 8.32717,3.9788 -2.68761,5.26816 c -1.47819,2.89749 -3.12541,5.26592 -3.66051,5.26317 -0.5351,-0.003 -3.0729,-1.26249 -5.63957,-2.79945 z M 75.049837,218.8515 c -14.57668,-3.08763 27.652783,-15.90784 42.948193,-13.0384 4.48198,0.84082 4.68753,1.07929 2.7631,3.20576 -1.14349,1.26356 -5.52133,4.04156 -9.72852,6.17334 -6.7058,3.39783 -9.212,3.9018 -20.316103,4.08536 -6.96667,0.1152 -14.01667,-0.0765 -15.66667,-0.42606 z m 86.125573,-0.89876 c -6.77495,-2.52588 -17.12557,-8.73551 -17.12557,-10.2741 0,-2.04373 22.65313,-1.48076 31.38653,0.78002 4.37075,1.13142 10.56639,3.31862 13.76809,4.86045 5.19056,2.49959 5.55172,2.95624 3.33334,4.21465 -3.93508,2.23224 -25.71832,2.52324 -31.36239,0.41898 z m -97.792233,-10.7525 c -0.73334,-0.27712 -4.78334,-1.21324 -9,-2.08025 -4.21667,-0.86701 -7.66667,-2.05948 -7.66667,-2.64991 0,-2.7261 14.38238,-7.19604 24.66667,-7.66621 11.15406,-0.50995 24.75252,1.85521 25.61943,4.45595 0.97843,2.93529 -10.80725,7.17024 -21.76306,7.8201 -5.78767,0.34331 -11.12304,0.39746 -11.85637,0.12027 z m 118.843593,-0.85957 c -6.61572,-1.66255 -14.17693,-5.24689 -14.17693,-6.72051 0,-2.65033 15.11388,-5.5295 25.87818,-4.92974 10.26332,0.57185 24.78848,5.09373 24.78848,7.717 0,3.22097 -27.51997,6.18738 -36.48973,3.93325 z m -73.22302,-6.17463 c -9.643143,-5.14328 -21.690683,-16.9234 -23.116193,-22.6031 -0.45355,-1.8071 -0.55358,-3.55668 -0.22228,-3.88798 1.09677,-1.09677 17.551963,6.25379 23.397353,10.45163 6.19884,4.45167 13.65387,14.55461 13.65387,18.50351 0,3.60657 -3.51517,2.97492 -13.71275,-2.46406 z m 34.45849,1.90214 c 1.90049,-6.16092 4.66712,-10.1767 10.62278,-15.4191 6.79683,-5.9828 24.55498,-14.14826 26.53035,-12.19905 2.09372,2.06599 -7.37555,14.29817 -15.48684,20.00556 -7.80044,5.48867 -17.72821,10.53151 -20.83521,10.58331 -1.20974,0.0201 -1.46844,-0.90458 -0.83108,-2.97072 z M 38.498337,187.84306 c -9.62381,-3.07779 -17.75067,-8.00604 -16.03364,-9.72307 2.13806,-2.13805 16.5193,-2.79548 24.57385,-1.12336 7.82325,1.62411 23.67796,8.77995 23.67796,10.68677 0,3.43958 -21.6272,3.54675 -32.21817,0.15966 z m 158.207433,0.71549 c -2.35173,-1.71964 -2.07499,-2.06868 4.13545,-5.21575 11.36773,-5.76046 21.23895,-7.99948 32.17375,-7.29773 5.4139,0.34744 10.48448,1.27272 11.26792,2.05616 1.72266,1.72267 -7.8946,6.91347 -18.80839,10.15159 -9.02812,2.67862 -25.28728,2.85142 -28.76873,0.30573 z M 74.695707,185.26354 c -9.4992,-5.05299 -19.29589,-20.7565 -22.02523,-35.30514 -1.35504,-7.22296 1.71924,-6.37356 10.23575,2.82806 7.19108,7.76958 14.22078,19.44132 17.77299,29.50936 2.23237,6.32721 1.24899,6.81496 -5.98351,2.96772 z m 109.354133,0.86613 c 0,-0.88285 2.70065,-7.15668 6.00144,-13.94185 6.15386,-12.65002 18.18522,-27.11964 22.54973,-27.11964 2.60445,0 2.65998,-0.76571 -0.68304,9.41768 -5.22022,15.90154 -10.42388,24.03752 -19.0542,29.79141 -5.59704,3.73159 -8.81393,4.40767 -8.81393,1.8524 z M 47.383177,173.15043 c -7.10766,-1.73804 -14.94128,-6.52667 -23.22925,-14.19987 -4.45725,-4.12662 -8.10409,-8.56086 -8.10409,-9.85386 0,-2.07027 0.73059,-2.21442 6.12015,-1.20754 3.36608,0.62884 9.21608,2.7989 13,4.82231 6.98433,3.73483 22.21319,17.61779 22.21319,20.25004 0,1.60032 -3.92487,1.67447 -10,0.18892 z m 161.999993,-0.51888 c 0,-3.72036 14.08366,-16.77733 22.01138,-20.40676 9.44954,-4.32615 17.98862,-5.68779 17.98862,-2.86847 0,3.04182 -14.66868,16.32563 -22.29507,20.19022 -8.91308,4.5166 -17.70493,6.04854 -17.70493,3.08501 z M 40.605787,144.29456 c -2.34524,-4.79349 -3.96095,-10.56972 -4.31128,-15.41296 -0.68615,-9.48593 0.80979,-22.48009 2.58799,-22.48009 0.7191,0 3.14621,3.92934 5.39358,8.73187 3.8436,8.21357 4.05344,9.47954 3.53522,21.32806 -0.70786,16.18483 -2.28211,17.8962 -7.20551,7.83312 z m 177.368343,-1.37061 c -1.27308,-10.18941 -0.0609,-20.16073 3.44012,-28.29919 4.76853,-11.08472 6.09298,-11.07019 7.70104,0.0845 1.63229,11.32281 0.37596,21.20609 -3.78943,29.81062 -3.92299,8.10383 -6.20164,7.60918 -7.35173,-1.59593 z m -130.969403,-9.52244 0.37845,-14.33334 15.666663,-0.37564 15.66666,-0.37565 V 88.20369 c 0,-28.070342 -0.15829,-30.063334 -2.33333,-29.3782 -1.28333,0.404246 -6.93132,2.358377 -12.55108,4.342512 -5.619763,1.984136 -11.142493,3.252664 -12.272733,2.818952 -1.64753,-0.632217 -2.05497,-3.250668 -2.05497,-13.206379 0,-6.829795 0.42273,-13.093728 0.93939,-13.919852 0.51667,-0.826123 3.9949,-2.407003 7.72941,-3.513067 9.671513,-2.864452 17.295403,-7.022117 23.697503,-12.923365 l 5.55575,-5.121115 13.3117,-0.388 13.3117,-0.388001 0.66666,50.603836 0.66667,50.603829 14.20644,0.37716 c 9.2192,0.24475 14.62659,0.94686 15.40325,2 0.65826,0.89256 0.95744,7.47284 0.66486,14.62284 l -0.53196,13 H 135.87602 86.626287 Z m -64.95489,8.48359 c -6.63364,-3.14139 -11.71457,-7.80431 -18.4616196,-16.94278 -6.59118,-8.92736 -4.24194001,-10.01171 8.2098996,-3.78945 8.09934,4.04729 17.2383,12.82307 21.08661,20.24864 1.80519,3.48321 1.74845,3.66601 -1.13398,3.65364 -1.66883,-0.007 -6.03424,-1.43368 -9.70091,-3.17005 z m 210.014173,1.51641 c 0.0251,-2.94748 9.92657,-14.28514 16.65078,-19.06589 6.21758,-4.42053 16.15443,-8.22584 17.62919,-6.75108 1.06227,1.06226 -8.29536,13.23881 -14.44041,18.79049 -8.05054,7.27317 -19.87728,11.46179 -19.83956,7.02648 z M 19.651647,119.47713 c -5.74369,-6.03787 -10.7128796,-15.7022 -12.7259896,-24.750102 -1.7679,-7.945854 0.24756,-8.407748 7.1457896,-1.637642 6.22334,6.107739 12.52,18.487884 13.63637,26.811064 0.91926,6.85359 -1.24184,6.74003 -8.05617,-0.42332 z m 218.285783,-0.007 c 1.45719,-9.1127 8.14779,-21.480861 15.07358,-27.864832 7.6843,-7.083145 8.67145,-5.45692 4.42798,7.294688 -3.46189,10.402984 -9.09534,19.494204 -14.43645,23.297404 -5.56349,3.96156 -6.08941,3.67839 -5.06511,-2.72726 z M 28.846087,105.77642 c -1.88978,-7.529483 4.88623,-24.711593 12.69618,-32.193994 l 3.84091,-3.679823 v 7.415152 c 0,4.078335 -0.89605,9.954815 -1.99121,13.058846 -2.06159,5.843152 -10.75328,18.691569 -12.64447,18.691569 -0.59138,0 -1.44701,-1.48128 -1.90141,-3.29175 z m 200.101303,-3.6619 c -5.92146,-8.648775 -8.89756,-16.859454 -8.89756,-24.54731 0,-4.144101 0.547,-5.832364 1.88968,-5.832364 2.63848,0 11.98472,14.408098 13.98835,21.564336 1.87811,6.707948 1.52476,14.655798 -0.68373,15.379328 -0.80982,0.2653 -3.64334,-2.6885 -6.29674,-6.56399 z M 16.864477,89.26976 c -2.65772,-3.620539 -5.75998,-9.197026 -6.8939196,-12.39219 -2.74262,-7.72802 -4.14978,-22.476058 -2.14453,-22.476058 2.9113996,0 12.2322896,13.617707 14.4524496,21.114849 2.61458,8.829057 3.09386,19.059561 0.92813,19.811772 -0.83045,0.288435 -3.6844,-2.437833 -6.34213,-6.058373 z M 241.66629,86.06818 c 0.4489,-6.846559 1.64954,-11.661438 4.11552,-16.504273 3.6405,-7.149481 11.1063,-15.625729 12.82657,-14.562552 1.75801,1.086513 -1.27423,18.492138 -4.42497,25.400158 -3.28727,7.207333 -9.51998,15.333333 -11.76078,15.333333 -0.89509,0 -1.16444,-3.442444 -0.75634,-9.666666 z m -6.92004,-14.666667 c -0.86046,-2.383334 -1.89666,-8.863192 -2.30267,-14.399687 -1.06763,-14.558524 4.53099,-32.585823 6.91531,-22.266981 5.33078,23.070573 5.39608,25.184747 1.10861,35.900158 -2.49332,6.231447 -3.69036,6.39182 -5.72125,0.76651 z M 24.697537,69.895105 c -1.08957,-2.607702 -1.98103,-8.771184 -1.98103,-13.696629 0,-8.95377 3.42279,-24.463631 5.39876,-24.463631 0.57604,0 2.14698,2.85 3.49096,6.333334 4.16979,10.807237 2.05705,34.27758 -3.24202,36.0154 -0.95232,0.312311 -2.54746,-1.509845 -3.66667,-4.188474 z m 11.3523,-2.86215 c 0,-7.216284 11.06694,-19.527115 24.41244,-27.156321 8.07983,-4.618986 9.70492,-4.712507 8.36196,-0.481216 -3.04151,9.582944 -16.42885,22.878943 -27.83441,27.644489 -4.4634,1.864927 -4.93999,1.864256 -4.93999,-0.007 z M 220.32027,64.992781 c -8.68862,-4.982701 -16.60814,-12.745919 -20.21512,-19.816163 -4.59934,-9.015458 -3.7711,-10.179015 4.17006,-5.858322 12.87684,7.006139 25.10796,20.498372 25.10796,27.696766 0,2.833456 -0.97503,2.615891 -9.0629,-2.022281 z M 37.361557,44.324311 c -1.36269,-4.867047 -1.37397,-7.588492 -0.0567,-13.666667 1.94509,-8.974847 7.36585,-21.589466 9.27743,-21.589466 1.99021,0 3.18336,8.245173 2.56052,17.694285 -0.54632,8.288189 -6.29075,23.639049 -8.84595,23.639049 -0.6786,0 -1.9995,-2.73474 -2.93533,-6.077201 z M 220.65465,42.112035 c -3.05544,-6.738063 -3.78534,-10.2034 -3.73034,-17.710523 0.0376,-5.133333 0.69716,-10.833333 1.46566,-12.666667 1.3529,-3.2274792 1.5095,-3.0918336 4.9313,4.271443 4.63759,9.979455 6.80047,21.725704 5.22618,28.382495 -0.66871,2.827563 -1.86344,5.356892 -2.65496,5.620732 -0.79152,0.26384 -3.14855,-3.290027 -5.23784,-7.89748 z M 51.576047,34.734845 c 1.59639,-6.429874 4.12037,-11.525166 8.33584,-16.828001 5.64399,-7.099845 20.22425,-18.61903291 21.69951,-17.14377559 2.10827,2.10827439 -4.43298,16.24444359 -10.78709,23.31173559 -6.71886,7.472988 -15.48926,14.326708 -18.33325,14.326708 -1.3231,0 -1.57487,-1.008906 -0.91501,-3.666667 z M 204.04983,32.638108 c -11.0711,-8.698453 -19.89266,-21.90748 -19.97071,-29.9032635 -0.0385,-3.9446513 0.47706,-3.8341834 8.04996,1.7248345 11.10367,8.150852 22.46351,24.068266 22.55814,31.6085 0.0461,3.676101 -2.7338,2.779703 -10.63739,-3.430071 z"
     id="path121"
     inkscape:connector-curvature="0" />
</svg>
