<?xml version="1.0" encoding="UTF-8" standalone="no"?>
<!-- Created with Inkscape (http://www.inkscape.org/) -->

<svg
   xmlns:dc="http://purl.org/dc/elements/1.1/"
   xmlns:cc="http://creativecommons.org/ns#"
   xmlns:rdf="http://www.w3.org/1999/02/22-rdf-syntax-ns#"
   xmlns:svg="http://www.w3.org/2000/svg"
   xmlns="http://www.w3.org/2000/svg"
   xmlns:sodipodi="http://sodipodi.sourceforge.net/DTD/sodipodi-0.dtd"
   xmlns:inkscape="http://www.inkscape.org/namespaces/inkscape"
   version="1.1"
   id="svg81"
   width="266.66666"
   height="301.33334"
   viewBox="0 0 266.66666 301.33334"
   sodipodi:docname="char-icon-1.svg"
   inkscape:version="0.92.4 (unknown)">
  <path
     style="stroke-width:1.33333337"
     d="M 0,166.26786 V 31.20237 L 4.428,29.601185 C 7.02579,28.661813 16.07961,28.000001 26.33276,28.000001 47.1942,28.000001 48,27.566098 48,16.332759 48,12.220539 48.72053,6.8633961 49.60119,4.4279976 L 51.20237,2e-7 h 24.07418 24.07417 l 1.65797,5.3123349 c 0.91189,2.9217842 1.65797,8.6006729 1.65797,12.6197549 0,5.860025 0.51083,7.580808 2.57902,8.687665 3.43097,1.836204 52.74433,1.836204 56.1753,0 C 163.5252,25.493617 164,23.785421 164,17.341223 c 0,-4.847132 0.90138,-9.7095453 2.33333,-12.58695 L 168.66666,0.06561 192.17789,0.032805 215.68913,0 l 0.95862,3.6666667 c 0.52724,2.0166668 1.34719,7.8666673 1.82211,13.0000003 l 0.86347,9.333334 19.33333,0.802569 c 11.55489,0.479671 21.07677,1.536056 23.66667,2.625651 l 4.33333,1.82308 V 166.29232 301.33334 H 133.33333 0 Z m 251.23809,119.63691 c 1.86397,-1.86398 2.09524,-12.17536 2.09524,-93.42099 0,-60.40336 -0.46735,-92.19899 -1.38024,-93.904766 -1.34855,-2.519775 -4.07311,-2.579012 -118.61976,-2.579012 -114.54665,0 -117.27121,0.05924 -118.61975,2.579012 -0.9129,1.705776 -1.38024,33.501406 -1.38024,93.904766 0,81.24563 0.23126,91.55701 2.09523,93.42099 1.8726,1.8726 14.40116,2.09524 117.90476,2.09524 103.50361,0 116.03216,-0.22264 117.90476,-2.09524 z M 61.80933,238.6779 c -7.03254,-2.83799 -7.1442,-3.6736 -7.12301,-53.30791 0.0217,-50.75979 0.14431,-51.59051 8.01511,-54.29473 5.93353,-2.03862 134.21371,-2.39879 141.41974,-0.39706 3.06688,0.85193 5.34337,2.54923 6.33333,4.72196 1.0778,2.36551 1.54549,17.52622 1.54549,50.09848 v 46.7065 l -3.89744,3.89743 -3.89742,3.89744 -69.76924,-0.0845 c -38.37307,-0.0465 -71.05502,-0.6034 -72.62656,-1.23758 z m 38.7621,-14.10647 c 2.64942,-2.64941 3.06126,-28.4054 0.49523,-30.97143 C 100.0204,192.55374 94.49931,192 85.11358,192 67.79344,192 68,191.78908 68,209.47403 c 0,16.74418 0.45505,17.19264 17.44475,17.19264 10.06899,0 13.50775,-0.4763 15.12668,-2.09524 z m 47.99999,0 c 2.64943,-2.64941 3.06127,-28.4054 0.49524,-30.97143 -2.19418,-2.19418 -29.27247,-2.19418 -31.46666,0 -1.03588,1.03588 -1.6,6.40847 -1.6,15.2381 0,17.76701 0.0598,17.82857 17.33333,17.82857 10.17028,0 13.61675,-0.47389 15.23809,-2.09524 z m 47.51623,0.715 c 2.3046,-1.23339 2.57901,-2.90747 2.57901,-15.73333 0,-9.38575 -0.55373,-14.90683 -1.6,-15.9531 -2.19418,-2.19418 -29.27248,-2.19418 -31.46666,0 -1.03588,1.03588 -1.6,6.40847 -1.6,15.2381 0,17.69549 0.12573,17.82857 16.84956,17.82857 6.96249,0 13.81964,-0.6211 15.23809,-1.38024 z M 102.37987,162.1927 c 0.25008,-9.52902 -0.14734,-15.10923 -1.16326,-16.33334 C 99.18964,143.41702 72.00599,143.19402 69.6,145.6 c -1.68591,1.68591 -2.31255,25.65836 -0.77542,29.66406 0.70698,1.84236 3.13146,2.09561 17,1.77572 L 102,176.66667 Z m 47.47747,13.03158 c 1.52571,-3.9759 0.88588,-27.94772 -0.79068,-29.62428 -2.19418,-2.19418 -29.27247,-2.19418 -31.46666,0 -1.67657,1.67656 -2.31638,25.64838 -0.79068,29.62428 0.67464,1.75811 3.42425,2.10906 16.52401,2.10906 13.09976,0 15.84937,-0.35095 16.52401,-2.10906 z m 47.20932,0.50906 c 2.0033,-2.0033 2.18034,-25.49094 0.21976,-29.15432 C 196.05304,144.27442 194.37896,144 181.55309,144 c -9.38575,0 -14.90683,0.55374 -15.95309,1.6 -1.71028,1.71028 -2.34431,29.21126 -0.71111,30.84444 1.63819,1.6382 30.46553,1.00114 32.17777,-0.7111 z m 55.45735,-96.509054 c 1.55748,-4.058738 0.89189,-34.608381 -0.79068,-36.290952 -1.04627,-1.046268 -6.56735,-1.6 -15.9531,-1.6 -16.6907,0 -17.11357,0.312315 -17.11357,12.639618 0,6.165644 -0.57564,8.05724 -3.27273,10.754323 -3.18559,3.185591 -3.80846,3.272727 -23.39393,3.272727 -19.58548,0 -20.20835,-0.08714 -23.39394,-3.272727 -2.69709,-2.697083 -3.27273,-4.588679 -3.27273,-10.754323 0,-13.223098 1.43629,-12.639618 -31.11357,-12.639618 -20.27463,0 -28.80897,0.455878 -29.9531,1.6 -0.90824,0.908246 -1.6,5.257912 -1.6,10.060607 0,7.205087 -0.48565,8.946264 -3.27272,11.733334 -3.19487,3.194864 -3.7673,3.272727 -24.06061,3.272727 -20.2933,0 -20.86574,-0.07786 -24.0606,-3.272727 C 48.48566,61.940205 48,60.199028 48,52.993941 48,48.191246 47.30825,43.84158 46.4,42.933334 c -1.04627,-1.046268 -6.56735,-1.6 -15.95309,-1.6 -12.82587,0 -14.49995,0.274416 -15.73333,2.579012 -1.46734,2.741752 -1.93641,31.753554 -0.57093,35.31194 0.72959,1.901264 12.47235,2.109049 119.19068,2.109049 106.71833,0 118.46109,-0.207785 119.19068,-2.109049 z M 87.95309,52.087656 c 0.75913,-1.418456 1.38024,-9.775599 1.38024,-18.571429 0,-19.829333 -0.24525,-20.182893 -14,-20.182893 -13.84801,0 -14,0.229733 -14,21.161905 0,11.422222 0.52316,17.494586 1.6,18.571429 0.98633,0.986323 5.82662,1.6 12.61976,1.6 9.5303,0 11.20631,-0.348585 12.4,-2.579012 z m 115.78024,0.979012 c 1.07684,-1.076843 1.6,-7.149207 1.6,-18.571429 0,-20.932172 -0.15199,-21.161905 -14,-21.161905 -13.75475,0 -14,0.35356 -14,20.182893 0,8.79583 0.62111,17.152973 1.38024,18.571429 1.19369,2.230427 2.86971,2.579012 12.4,2.579012 6.79315,0 11.63344,-0.613677 12.61976,-1.6 z"
     id="path184"
     inkscape:connector-curvature="0" />
</svg>
