<?xml version="1.0" encoding="UTF-8" standalone="no"?>
<!-- Created with Inkscape (http://www.inkscape.org/) -->

<svg
   xmlns:dc="http://purl.org/dc/elements/1.1/"
   xmlns:cc="http://creativecommons.org/ns#"
   xmlns:rdf="http://www.w3.org/1999/02/22-rdf-syntax-ns#"
   xmlns:svg="http://www.w3.org/2000/svg"
   xmlns="http://www.w3.org/2000/svg"
   xmlns:sodipodi="http://sodipodi.sourceforge.net/DTD/sodipodi-0.dtd"
   xmlns:inkscape="http://www.inkscape.org/namespaces/inkscape"
   version="1.1"
   id="svg101"
   width="266.66666"
   height="365.33414"
   viewBox="0 0 266.66666 365.33413"
   sodipodi:docname="char-icon-2.svg"
   inkscape:version="0.92.4 (unknown)">
  <path
     style="stroke-width:1.33333337"
     d="m 130.58155,363.66667 c -0.0468,-0.91666 -7.03985,-7.06666 -15.54008,-13.66666 -8.50022,-6.6 -17.99929,-14.1 -21.10905,-16.66667 C 90.82267,330.76667 82.603,324.31206 75.66648,318.98975 40.46639,291.98117 23.20945,270.39116 10.93117,238 8.70733,232.13334 6.16009,224.48334 5.27064,221 4.32922,217.3132 2.8901,214.66667 1.82672,214.66667 0.30116,214.66667 0,202.02702 0,138 0,95.833335 0.38177,61.333334 0.84837,61.333334 2.39,61.333334 36.56139,55.87245 42,54.756946 66.33804,49.765014 91.86042,40.188471 108.02996,29.981087 115.87645,25.027815 124.90053,12.867031 125.95686,5.8229285 L 126.83006,0 h 6.41319 6.4132 l 0.89841,6.7726227 c 0.81035,6.1086863 1.77484,7.6445283 9.83844,15.6666673 17.59952,17.509003 46.28924,28.192138 97.09165,36.153824 9.61674,1.507122 17.86674,2.74022 18.33334,2.74022 0.4666,0 0.84837,34.800001 0.84837,77.333336 0,66.23513 -0.27413,77.33333 -1.91015,77.33333 -2.06122,0 -2.56004,1.1774 -4.77276,11.26551 -0.79606,3.62936 -3.50196,11.27179 -6.0131,16.98316 -11.90311,27.07255 -27.13559,47.67599 -46.88372,63.4149 -6.21308,4.9517 -16.49935,13.21668 -22.85839,18.3666 -6.35902,5.14992 -15.16188,12.05205 -19.56188,15.33808 -16.05108,11.98734 -26,20.48386 -26,22.20434 0,2.28575 -7.96845,2.37847 -8.08511,0.0941 z M 151.4594,336.56933 C 159.45673,330.28246 174.1,318.75425 184,310.9511 c 9.9,-7.80316 21.94379,-18.10936 26.76398,-22.90267 18.5786,-18.47496 33.22092,-46.0234 38.64893,-72.71509 3.17459,-15.61072 3.25375,-17.51494 3.25375,-78.26634 0,-45.81494 -0.41276,-62.679179 -1.56223,-63.828892 -0.85922,-0.859405 -7.15922,-2.391845 -14,-3.405421 C 195.79233,63.7116 156.44802,47.454822 139.41721,29.469043 134.5055,24.28192 131.39778,24.255358 126.14364,29.355594 113.23621,41.88493 99.33817,50.270905 79.95684,57.224361 65.94482,62.251469 38.28543,69.02492 27.08219,70.172725 12.78108,71.637917 13.99923,65.360521 14.00535,137.56034 l 0.005,63.10633 3.71271,14.66667 c 7.8069,30.84036 18.99544,51.083 40.5329,73.33333 7.47128,7.71856 15.23797,14.14834 43.74371,36.21395 26.39347,20.43055 30.17679,23.11939 32.53,23.11939 1.31384,0 8.93206,-5.1438 16.9294,-11.43068 z m -22.12607,-2.7934 C 127.5,332.50185 118.32686,325.13103 108.94859,317.39637 99.57031,309.6617 89.37031,301.56367 86.28192,299.40074 83.19353,297.23781 73.70966,288.53781 65.20665,280.06741 44.7269,259.6662 35.40551,244.18363 25.83165,214.66667 L 22.15568,203.33334 21.64717,145.26792 C 21.1686,90.620834 21.28176,87.028954 23.56933,84.254539 c 1.91642,-2.324267 5.62761,-3.52725 17.54134,-5.686018 31.70847,-5.745576 63.57357,-17.922589 81.22641,-31.040065 9.43669,-7.012227 11.89044,-7.461146 17.22728,-3.151775 17.23734,13.918725 50.80912,27.24988 85.1023,33.793634 11.43601,2.182194 17.90039,4.050093 19,5.490104 1.27784,1.6734 1.65301,16.04326 1.60815,61.594421 -0.0493,50.0853 -0.37956,60.24906 -2.10362,64.74516 -1.12478,2.93334 -3.53252,9.83334 -5.3505,15.33334 -3.99483,12.08562 -13.47827,30.01158 -21.16135,40 -7.18255,9.33768 -21.34913,22.76696 -39.99425,37.91269 -8.0658,6.55199 -19.87315,16.28003 -26.23856,21.61788 -13.02293,10.92066 -16.24439,12.28175 -21.0932,8.91202 z m 12.59107,-19.40594 c 1.14157,-1.62982 2.07565,-3.57982 2.07572,-4.33333 1.6e-4,-1.64601 -96.59659,-97.54848 -100.19374,-99.47362 -1.91316,-1.02389 -2.70189,-0.85144 -3.306,0.72284 -1.48443,3.86836 1.03993,11.88339 8.36853,26.57056 10.13872,20.31895 21.05017,32.96683 43.13109,49.99489 34.62486,26.7015 38.70867,29.48201 43.3011,29.48201 3.18796,0 5.16828,-0.88601 6.6233,-2.96335 z m 24.72737,-19.13202 c 5.39613,-4.10379 8.03101,-7.04443 8.06421,-9 0.0356,-2.09666 -18.78366,-21.54181 -67.65462,-69.90463 -37.23716,-36.85 -68.39516,-67 -69.23999,-67 -0.84484,0 -1.90026,0.94906 -2.34538,2.10905 -1.31248,3.42027 -0.92445,26.74787 0.50757,30.51437 1.7569,4.621 117.36828,119.26442 120.33488,119.32738 1.27514,0.0271 5.92514,-2.69372 10.33333,-6.04617 z m 23.84797,-19.81831 c 5.37035,-2.77712 13.50025,-12.26839 13.50025,-15.7609 0,-4.29965 -162.52999,-166.802848 -166.13919,-166.111798 -2.24577,0.429994 -2.57359,1.968282 -2.94128,13.801818 -0.2276,7.32484 0.20751,15.43778 0.96689,18.02875 1.07637,3.67249 17.67695,20.93879 75.31305,78.33333 40.66279,40.49237 74.30748,73.62248 74.76599,73.62248 0.45849,0 2.49893,-0.86116 4.53429,-1.91368 z m 29.23405,-38.81874 c 2.34642,-4.75828 4.2662,-10.19921 4.2662,-12.09097 0,-2.76603 -13.55558,-16.96616 -69.22591,-72.51748 -38.07427,-37.99286 -70.44629,-69.465247 -71.93783,-69.938646 -1.49155,-0.473397 -5.84878,0.07083 -9.68275,1.209394 -3.83396,1.138564 -8.31908,2.070117 -9.96693,2.070117 -3.19713,0 -7.18657,3.183381 -7.18657,5.734539 0,2.070069 150.60047,152.868126 153.99999,154.202036 4.08046,1.60111 5.13058,0.66585 9.7338,-8.66899 z M 230.02611,201 c 0.40898,-1.65 0.8704,-8.84022 1.0254,-15.97828 l 0.28182,-12.97826 -52.66667,-52.7709 C 149.7,90.248567 124.96409,65.925223 123.69798,65.22068 c -1.70254,-0.947397 -4.16693,-0.285819 -9.46327,2.540468 -3.93868,2.1018 -8.39327,4.143637 -9.89909,4.537417 -1.50581,0.39378 -3.45818,2.06192 -4.33859,3.706979 -1.50759,2.816965 2.03327,6.628071 60.84862,65.492736 63.90278,63.95636 67.34293,66.91522 69.18046,59.50172 z m 0.59364,-51.57901 c 1.71512,-3.20473 1.82246,-22.10335 0.14335,-25.24078 C 228.98449,120.85682 194.75808,86.394532 190,83.136168 187.8,81.629593 182.1,79.172116 177.33333,77.675109 172.56666,76.178101 163.5893,72.788791 157.38364,70.143307 144.94998,64.842825 144,64.613453 144,66.911853 144,68.603784 226.56467,152 228.23974,152 c 0.54987,0 1.62088,-1.16056 2.38001,-2.57901 z m 1.11002,-50.82389 c 0.52072,-4.469624 -3.67594,-8.265806 -8.50904,-7.69704 -5.02086,0.590863 -5.31674,2.655626 -1.09886,7.66829 4.35107,5.17095 9.0072,5.18488 9.6079,0.02875 z"
     id="path142"
     inkscape:connector-curvature="0" />
</svg>
