<?xml version="1.0" encoding="UTF-8" standalone="no"?>
<!-- Created with Inkscape (http://www.inkscape.org/) -->

<svg
   xmlns:dc="http://purl.org/dc/elements/1.1/"
   xmlns:cc="http://creativecommons.org/ns#"
   xmlns:rdf="http://www.w3.org/1999/02/22-rdf-syntax-ns#"
   xmlns:svg="http://www.w3.org/2000/svg"
   xmlns="http://www.w3.org/2000/svg"
   xmlns:sodipodi="http://sodipodi.sourceforge.net/DTD/sodipodi-0.dtd"
   xmlns:inkscape="http://www.inkscape.org/namespaces/inkscape"
   version="1.1"
   id="svg91"
   width="265.99356"
   height="233.28751"
   viewBox="0 0 265.99356 233.28751"
   sodipodi:docname="char-icon-5.svg"
   inkscape:version="0.92.4 (unknown)">
  <path
     style="stroke-width:1.33333325"
     d="m 2.9322618,231.81607 c -0.56087,-0.90752 -1.59438,-14.79882 -2.29667996,-30.86958 -1.47308,-33.70831 -0.87207,-37.52911 7.09913996,-45.13166 2.9421202,-2.80604 9.1491502,-6.43676 14.7830602,-8.64714 6.82802,-2.67888 12.00882,-5.93706 17.44859,-10.97334 4.25537,-3.93971 7.73704,-7.7242 7.73704,-8.40996 0,-0.68576 -2.67411,-4.10568 -5.94247,-7.59982 -3.26836,-3.49414 -7.38873,-9.47457 -9.15636,-13.28983 -1.92099,-4.14626 -5.00927,-8.146749 -7.67685,-9.944431 -2.45463,-1.654173 -5.28071,-5.156158 -6.28018,-7.78219 -1.60365,-4.21345 -1.53909,-5.386247 0.54931,-9.978797 1.4627,-3.216584 2.43053,-8.768827 2.53409,-14.537528 0.25245,-14.063655 3.50596,-22.063643 13.20522,-32.470077 5.35581,-5.746303 8.82226,-10.804565 9.85708,-14.383491 C 47.483562,8.4937326 59.371272,0 69.703412,0 c 10.10464,0 22.02892,8.860029 24.55926,18.248132 0.85744,3.181286 4.16476,7.981522 8.877078,12.884185 10.05714,10.463373 12.90195,17.174018 13.64448,32.186143 0.35021,7.080184 1.34361,13.078263 2.42303,14.630008 4.08391,5.87092 0.84177,16.465407 -5.89238,19.254783 -2.83898,1.175946 -4.6681,3.573319 -6.97754,9.145229 -1.81102,4.36942 -5.55372,9.90717 -8.881918,13.14181 -3.16361,3.07467 -5.75201,6.56021 -5.75201,7.74564 0,4.23351 12.474488,14.1089 26.269738,20.79636 12.17462,5.90182 13.98951,7.25369 17.28311,12.8738 3.44629,5.88066 3.66476,7.17297 3.43944,20.34594 -0.33563,19.62096 -1.729,46.92764 -2.54171,49.81083 -0.44158,1.56656 -1.69029,2.26708 -3.5651,2 -3.21872,-0.45853 -3.17908,0.28756 -2.37513,-44.70481 0.19945,-11.16156 -0.0405,-20.94596 -0.53314,-21.74312 -1.18551,-1.9182 -9.05249,7.00044 -12.78397,14.49292 -2.4885,4.9967 -2.99578,8.9197 -3.70493,28.65142 -0.73016,20.31651 -1.08101,22.91166 -3.15109,23.30763 -4.19769,0.80296 -5.2908,-5.66284 -4.69113,-27.74844 0.64515,-23.76113 1.33949,-26.07407 11.45246,-38.14953 l 6.82509,-8.14954 -8.88932,-3.85046 c -4.88912,-2.11776 -9.29618,-4.02522 -9.79346,-4.23879 -0.49728,-0.21359 -3.93196,4.38077 -7.632628,10.20967 -8.20438,12.92264 -10.48365,13.95457 -18.43808,8.34777 l -5.83682,-4.11416 v 32.47592 c 0,27.24089 -0.32239,32.74349 -2,34.13579 -1.59562,1.32425 -2.40438,1.32425 -4,0 -1.67559,-1.39062 -2,-6.82387 -2,-33.49659 0,-17.51021 -0.36339,-31.83675 -0.80752,-31.83675 -0.44414,0 -2.59018,1.5 -4.76897,3.33334 -2.17879,1.83333 -5.06207,3.33333 -6.40728,3.33333 -2.89026,0 -7.59209,-5.31165 -13.61417,-15.37991 -2.39713,-4.00772 -4.66823,-7.26349 -5.0469,-7.23505 -0.37867,0.0284 -4.80153,1.97844 -9.82857,4.33333 l -9.14009,4.28163 7.44113,9.07095 c 4.09262,4.98902 8.07031,11.40754 8.83931,14.26338 0.79319,2.9457 1.23986,14.87886 1.03228,27.5787 -0.3382,20.69258 -0.55555,22.4227 -2.87278,22.86781 -1.3788,0.26485 -3.01961,-0.32749 -3.64625,-1.31632 -0.62665,-0.98881 -1.14854,-11.57765 -1.15977,-23.53073 -0.0165,-17.57583 -0.4421,-22.5491 -2.22494,-26 -2.90737,-5.62755 -12.67732,-17.16596 -13.6770402,-16.15271 -0.43181,0.43765 -0.7851,15.57885 -0.7851,33.64709 0,29.51918 -0.22407,32.89539 -2.20902,33.28542 -1.21496,0.23873 -2.66792,-0.30846 -3.2288,-1.21598 z m 56.1384302,-71.86638 3.86619,-4.03543 -7.60546,-7.60547 -7.60547,-7.60546 -2.88031,2.8803 -2.88031,2.88032 5.20237,8.7373 c 2.86131,4.8055 5.84012,8.74777 6.61959,8.76058 0.77946,0.0133 3.157,-1.79265 5.2834,-4.01214 z m 32.30872,-4.42902 c 5.24988,-8.37304 5.28095,-8.49904 2.87691,-11.66666 l -2.43029,-3.20222 -8.10345,7.99996 -8.10344,7.99996 4.37546,3.63084 c 2.40651,1.99696 4.75846,3.64698 5.22654,3.66671 0.46809,0.0197 3.23931,-3.77313 6.15827,-8.42859 z m -7.676,-22.41829 c 0,-3.07852 -0.18222,-3.11725 -14.66667,-3.11725 -8.06667,0 -14.66667,0.41094 -14.66667,0.9132 0,3.01614 3.19737,8.05477 8.71188,13.7288 l 6.30647,6.48886 7.15749,-7.44817 c 4.48961,-4.67195 7.1575,-8.61011 7.1575,-10.56544 z m -0.54165,-12.98808 c 6.86357,-3.11712 13.74988,-11.20425 17.222108,-20.225291 1.47426,-3.830196 3.57426,-7.38085 4.66667,-7.890342 6.59903,-3.077742 7.31953,-3.815242 7.31953,-7.492188 0,-3.477563 -0.45656,-3.874667 -4.66666,-4.058924 -2.56667,-0.112333 -7.36667,-1.131788 -10.666668,-2.26546 -3.3,-1.133673 -11.66671,-2.666856 -18.59269,-3.407072 -9.38007,-1.0025 -14.6525,-2.361463 -20.66666,-5.326811 -9.41264,-4.640997 -18.83165,-13.565465 -17.62791,-16.702355 1.2591,-3.281152 4.62512,-2.4874 10.75602,2.53641 10.02912,8.218115 19.03854,11.430035 35.4724,12.64616 8.07783,0.597768 15.572988,1.822192 16.655918,2.720943 3.90892,3.244114 6.00375,0.578349 5.9899,-7.622396 -0.0237,-14.030615 -8.64543,-27.192247 -22.175908,-33.853001 -5.30535,-2.611708 -8.52892,-3.18546 -17.81107,-3.17014 -9.67908,0.01598 -12.32394,0.538675 -18.12003,3.581037 -11.53602,6.055253 -19.26829,17.142655 -21.2009,30.400257 -0.48105,3.3 -0.27667,7.567983 0.45418,9.484407 1.55052,4.065721 6.08792,5.727268 8.31432,3.044613 2.1124,-2.545284 6.45031,-2.346587 7.48229,0.342727 0.57445,1.496988 -0.72345,3.643526 -4.04181,6.684574 -4.76906,4.370525 -4.99957,4.432869 -9.47538,2.562756 -3.603,-1.50543 -4.87857,-1.565914 -5.94424,-0.281861 -2.41673,2.911992 -0.10781,7.298316 4.67217,8.875853 2.48934,0.821555 4.52607,1.605675 4.52607,1.742489 0,2.24881 6.03427,15.545045 8.55426,18.848925 7.81244,10.24264 26.46545,14.47374 38.90409,8.82469 z M 65.703412,17.729373 c 4.4,-0.357447 10.68373,-0.02987 13.96384,0.727968 3.28012,0.757829 6.15478,1.186943 6.38814,0.953587 0.23335,-0.233358 -1.1446,-2.28879 -3.06211,-4.567627 -6.9505,-8.2602034 -20.96743,-8.5930204 -27.21834,-0.646271 -3.35356,4.263354 -3.52153,6.390844 -0.40487,5.127823 1.28334,-0.520068 5.93334,-1.238035 10.33334,-1.59548 z M 172.08611,231.70898 c -1.28938,-1.62 -0.80821,-20.74164 1.54482,-61.39052 l 0.75253,-13 h -4.09435 c -6.42006,0 -8.68944,-1.93176 -17.28232,-14.7112 -4.42136,-6.57551 -8.77336,-11.96435 -9.6711,-11.9752 -0.89776,-0.0108 -6.91494,2.18506 -13.37152,4.87981 -10.79035,4.50352 -11.91271,4.72607 -13.88546,2.75332 -3.67274,-3.67273 -1.94435,-4.83669 22.62139,-15.23394 2.74819,-1.16314 7.96523,-5.25358 11.59341,-9.08986 7.47818,-7.90707 7.47372,-7.39201 0.19334,-22.330162 -2.93268,-6.017364 -5.66827,-9.693261 -8.1805,-10.992385 -8.00033,-4.137133 -10.54189,-14.294923 -5.25758,-21.012839 2.44562,-3.109107 2.61021,-4.719926 1.8916,-18.513143 -1.05667,-20.281919 -0.0765,-22.069339 16.90008,-30.82117 16.12733,-8.3139931 25.74518,-10.82941002 37.86296,-9.90253552 19.74342,1.51015202 33.93038,10.68970052 38.69613,25.03800252 1.49109,4.489262 2.52285,12.19148 2.75232,20.546319 0.20189,7.350741 0.77216,15.920826 1.26726,19.044633 1.32175,8.339484 -0.0653,12.053358 -5.46326,14.627441 -3.58524,1.709679 -5.48572,4.031426 -8.1384,9.942385 -1.90347,4.241504 -4.28283,8.394 -5.28746,9.227768 -1.00462,0.833768 -1.8266,3.482276 -1.8266,5.885556 0,7.04625 11.25924,16.37474 27.2353,22.56496 10.18809,3.94756 13.64812,6.01374 17.38876,10.38384 2.56841,3.00061 5.0395,7.42612 5.49132,9.83445 0.88534,4.71932 -1.82467,82.97155 -2.93571,84.76926 -0.93809,1.51786 -5.52113,1.35624 -6.50104,-0.22928 -0.44664,-0.7227 -0.11813,-17.6727 0.73003,-37.66667 0.84814,-19.99399 1.32281,-37.85269 1.05481,-39.68603 -0.46789,-3.20078 -0.80491,-3.03169 -8.47537,4.25238 l -7.9881,7.58572 -0.39997,31.973 c -0.32459,25.94692 -0.76437,32.27541 -2.33333,33.57754 -1.5098,1.25303 -2.37152,1.24091 -3.93336,-0.0553 -1.67128,-1.38704 -2,-6.68048 -2,-32.20608 0,-36.01492 0.10253,-36.40688 12.89797,-49.33627 l 8.78376,-8.87566 -4.37372,-2.26175 c -2.40555,-1.24396 -8.50637,-3.94353 -13.55737,-5.99905 l -9.18366,-3.73732 -7.97469,11.86006 c -8.76769,13.03944 -12.57075,16.32148 -18.14729,15.66115 l -3.70235,-0.43842 0.37708,11.33334 c 0.20739,6.23333 0.92372,22.72848 1.59184,36.65586 1.01087,21.07208 0.9026,25.63472 -0.64501,27.18234 -1.02288,1.02288 -2.74571,1.51982 -3.82849,1.10432 -2.08535,-0.80023 -2.51572,-5.46623 -4.5758,-49.60919 l -0.9956,-21.33333 -3.54388,-0.41006 c -4.6536,-0.53844 -4.78498,0.2544 -5.9067,35.64452 -0.498,15.7123 -1.3185,30.1123 -1.82333,32 -1.02765,3.84271 -4.25741,5.11019 -6.34339,2.48939 z m 16.95063,-80.89393 c 0,-3.54699 -3.08083,-5.88243 -5.09839,-3.86487 -2.84354,2.84355 -1.86661,6.36828 1.76506,6.36828 2.37198,0 3.33333,-0.722 3.33333,-2.50341 z m -14.58848,-5.71974 c 2.89033,-2.32274 5.25515,-4.65782 5.25515,-5.18908 0,-0.53126 -5.11602,-5.30934 -11.36891,-10.61797 -11.06145,-9.39103 -11.44005,-9.58765 -14,-7.27094 -1.44711,1.30961 -2.63109,2.894 -2.63109,3.52087 0,1.90005 14.97768,23.78027 16.27833,23.78027 0.66625,0 3.57619,-1.90041 6.46652,-4.22315 z m 38.47938,-7.61461 7.9597,-11.83776 -3.1909,-2.99768 -3.19089,-2.99769 -11.36605,9.81509 -11.36605,9.81509 4.90224,5.02036 c 2.69624,2.76119 5.66499,5.02035 6.59725,5.02035 0.93226,0 5.27688,-5.32699 9.6547,-11.83776 z m -16.52007,-12.49557 c 8.88731,-7.53217 12.90897,-13.16465 10.86155,-15.21205 -0.41498,-0.415 -3.59393,0.21295 -7.0643,1.39542 -8.57193,2.92075 -21.55623,2.75155 -29.82044,-0.38861 l -6.68097,-2.53856 v 2.84693 c 0,1.8296 3.69257,6.3054 10.33333,12.52514 5.68333,5.32301 10.82943,9.68425 11.43576,9.69163 0.60633,0.007 5.52712,-3.73657 10.93507,-8.3199 z m 4.93361,-23.15427 c 7.0481,-3.571553 13.6183,-11.544617 15.69914,-19.051225 1.84912,-6.670652 2.98614,-8.088273 7.44339,-9.280328 3.335,-0.891915 3.88636,-1.687828 3.88636,-5.610109 0,-4.332527 -0.27796,-4.605482 -5.33333,-5.237404 -4.40348,-0.550435 -5.65386,-1.39423 -7.17175,-4.839701 l -1.83841,-4.173034 -15.49492,0.173034 c -19.93827,0.222654 -28.34536,-2.159463 -37.04705,-10.497154 -5.214,-4.995888 -5.91104,-6.233469 -4.48122,-7.956301 2.37099,-2.856854 4.42266,-2.550245 7.93212,1.185399 5.46002,5.811922 15.52446,9.142568 28.10123,9.299592 6.23333,0.07783 14.454,-0.36077 18.26814,-0.974654 l 6.93482,-1.116152 2.39852,5.019947 c 4.2152,8.822141 5.73185,7.396993 5.73185,-5.386023 0,-24.368157 -11.10564,-34.69204 -37.35122,-34.7219963 -11.05206,-0.012613 -11.72904,0.1748019 -25.68603,7.1108623 -7.95221,3.951933 -15.00048,8.367675 -15.82988,9.917428 -1.51857,2.837477 -0.8758,23.361922 0.87237,27.855661 1.26647,3.255508 4.99778,4.270425 6.77324,1.842327 1.97296,-2.698175 6.70882,-2.665167 7.75227,0.05403 0.52391,1.365268 -0.80931,3.751964 -3.72401,6.666667 -4.55263,4.552636 -7.93416,5.69728 -9.4734,3.206738 -0.45323,-0.733333 -2.3285,-1.333333 -4.16726,-1.333333 -2.86052,0 -3.28229,0.529383 -2.9213,3.666667 0.3028,2.631618 1.61137,4.190561 4.63562,5.522566 3.28448,1.44662 5.01603,3.743616 7.85178,10.415873 8.7344,20.551253 27.25848,27.858743 46.23893,18.240623 z M 41.050832,195.33543 c -3.30461,-3.98181 -0.60348,-6.01697 7.98591,-6.01697 6.27142,0 8.27234,0.4916 8.92515,2.19281 0.51518,1.34254 -0.11686,2.89355 -1.63002,4 -3.34293,2.44442 -13.20056,2.33099 -15.28104,-0.17584 z m 105.459498,-17.1813 c -0.83578,-1.00706 -1.13587,-2.83098 -0.66688,-4.05315 0.71177,-1.85487 2.53134,-2.15828 11.00854,-1.83567 8.70919,0.33143 10.22406,0.74358 10.63482,2.89338 0.26344,1.3788 -0.33006,3.01961 -1.31888,3.64625 -3.00058,1.90155 -17.9501,1.4066 -19.6576,-0.65081 z"
     id="path163"
     inkscape:connector-curvature="0" />
</svg>
