<?xml version="1.0" encoding="UTF-8" standalone="no"?>
<!-- Created with Inkscape (http://www.inkscape.org/) -->

<svg
   xmlns:dc="http://purl.org/dc/elements/1.1/"
   xmlns:cc="http://creativecommons.org/ns#"
   xmlns:rdf="http://www.w3.org/1999/02/22-rdf-syntax-ns#"
   xmlns:svg="http://www.w3.org/2000/svg"
   xmlns="http://www.w3.org/2000/svg"
   xmlns:sodipodi="http://sodipodi.sourceforge.net/DTD/sodipodi-0.dtd"
   xmlns:inkscape="http://www.inkscape.org/namespaces/inkscape"
   version="1.1"
   id="svg61"
   width="266.89023"
   height="266.81357"
   viewBox="0 0 266.89023 266.81357"
   sodipodi:docname="char-icon-4.svg"
   inkscape:version="0.92.4 (unknown)">
  <path
     style="stroke-width:1.33333325"
     d="m 104.36715,264.67725 c -0.91408,-1.0384 -3.91408,-2.28674 -6.666673,-2.77407 -5.26448,-0.93208 -7.40816,-1.74685 -22.0967,-8.39855 -32.26969,-14.61332 -61.89457,-49.63241 -70.7835897,-83.67217 -1.12079,-4.29198 -2.65728,-8.01009 -3.41443,-8.26248 -1.81050001,-0.60349 -1.90417001,-56.23665 -0.0947,-56.23665 0.70506,0 1.92952,-2.55 2.72101,-5.666661 C 11.650017,69.669277 32.510087,40.078111 58.219277,22.799098 68.670077,15.775177 86.417467,7.479855 96.681347,4.821521 101.07341,3.683981 104.87341,2.133781 105.12579,1.376633 105.42219,0.487435 115.64504,0 133.99757,0 c 22.86521,0 28.55015,0.357633 29.11577,1.831642 0.38659,1.007403 3.00078,2.245521 5.80932,2.751374 11.59131,2.087735 30.84683,11.558762 45.10644,22.186085 22.06344,16.443306 44.42318,49.39319 48.0382,70.790338 0.49183,2.911091 1.73444,5.615321 2.76135,6.009381 2.75579,1.05749 2.74529,55.74347 -0.0107,58.49999 -1.03309,1.03309 -2.30542,4.44023 -2.8274,7.57143 -1.1749,7.0479 -10.61581,27.53033 -17.48109,37.92594 -12.24068,18.53519 -33.76579,37.0536 -53.40826,45.94801 -14.65543,6.6362 -16.81384,7.4573 -22.0287,8.38006 -2.72643,0.48244 -5.83357,1.7536 -6.90477,2.82478 -2.8185,2.81851 -55.31559,2.78055 -57.80007,-0.0417 z m 50.38184,-10.51908 c 4.00408,-1.013 9.41723,-2.21902 12.02923,-2.68002 13.67895,-2.41426 37.4126,-15.35684 51.67432,-28.17934 14.18247,-12.75126 27.91131,-35.98151 33.86299,-57.29881 3.84444,-13.76972 4.77741,-43.88898 1.78486,-57.621 C 246.58627,73.898657 227.59514,46.054784 199.90137,28.915021 178.46589,15.648536 159.46059,10.360244 133.35306,10.397725 105.7927,10.437295 85.687507,16.44047 63.359557,31.296978 c -11.26576,7.495974 -25.12812,21.083671 -32.62195,31.97557 -6.47551,9.411836 -13.93202,26.607201 -17.37176,40.060782 -4.5314497,17.72355 -4.3810297,43.12375 0.35961,60.72489 8.2537,30.64446 23.08452,52.27413 47.637,69.47515 13.8351,9.69261 24.07031,14.41426 38.666663,17.83749 4.03334,0.94592 9.73334,2.31417 12.66667,3.04056 8.11302,2.00904 33.72066,1.85483 42.0532,-0.25325 z m -35.38653,-4.76588 c -37.868703,-4.57268 -72.812473,-29.64775 -89.863133,-64.48428 -9.65415,-19.72459 -12.61184,-32.25544 -12.64535,-53.57468 -0.0224,-14.22912 0.52652,-19.24362 3.06489,-28 11.72756,-40.455554 43.22946,-71.476327 84.776923,-83.482121 14.97231,-4.326484 43.87266,-4.354816 56.29127,-0.05519 4.5602,1.578853 9.09807,2.870642 10.08413,2.870642 0.98607,0 7.09615,2.706077 13.57798,6.013505 30.0979,15.357812 51.97057,41.676905 61.48697,73.986484 3.23364,10.97871 3.72341,14.88767 3.67529,29.33334 -0.0655,19.66286 -3.66896,34.67076 -12.7825,53.2374 -21.50772,43.81675 -69.48142,69.97329 -117.66647,64.15489 z m 8.66667,-28.59984 c 0,-10.1531 -0.98791,-22.25333 -2.58156,-31.61975 -1.41985,-8.34498 -2.95205,-22.6727 -3.40488,-31.83937 -0.47308,-9.57657 -1.86052,-20.35352 -3.26144,-25.33333 -3.96413,-14.09113 -6.54234,-25.51697 -7.52157,-33.333331 -0.50529,-4.03334 -1.4768,-8.04052 -2.15892,-8.90485 -1.25666,-1.59236 -5.51992,-27.091309 -4.67137,-27.939865 1.06165,-1.061642 7.66355,7.415184 11.56133,14.844711 2.30839,4.400004 5.62393,10.400004 7.36787,13.333334 5.67235,9.54098 7.90325,13.562431 14.54019,26.210431 6.14163,11.70405 6.5734,13.18889 7.15028,24.58914 0.74971,14.81572 -1.56155,44.03072 -4.32169,54.62763 -2.02655,7.78045 -2.88856,36.78809 -1.22226,41.13041 0.51378,1.33886 2.43056,2.10905 5.24887,2.10905 9.80529,0 37.9418,-8.82436 37.9418,-11.89956 0,-0.60947 -0.94445,-3.36851 -2.09878,-6.1312 -1.72136,-4.11981 -1.78131,-5.22437 -0.33334,-6.14241 2.8872,-1.83054 3.72083,-1.38823 6.60879,3.5065 1.51437,2.56667 3.54025,4.66667 4.50197,4.66667 3.86015,0 24.53323,-19.11487 30.43983,-28.14546 2.196,-3.35746 1.85564,-7.85454 -0.59446,-7.85454 -1.93072,0 -6.52401,-5.1631 -6.52401,-7.33333 0,-2.61823 4.52972,-2.57485 6.72007,0.0644 5.23202,6.3042 12.78129,-4.83467 16.80578,-24.79677 3.20838,-15.91402 3.19324,-15.9343 -11.89584,-15.9343 -13.90594,0 -17.50388,-1.44749 -16.75664,-6.74137 0.44479,-3.15115 0.85575,-3.26961 12.45996,-3.59169 19.07415,-0.52942 18.52308,-0.19484 17.54646,-10.65327 -0.94848,-10.15712 -6.59384,-28.215481 -10.2098,-32.659121 -2.43304,-2.98996 -2.50167,-2.99587 -6.63327,-0.57172 -2.29613,1.34723 -5.04372,2.11606 -6.10576,1.70852 -3.20751,-1.23084 -2.17735,-4.62879 2.06904,-6.82468 2.30035,-1.18955 4,-3.137492 4,-4.58431 0,-3.559165 -12.22167,-17.748275 -21.14083,-24.544074 -11.27203,-8.588535 -10.82435,-8.481934 -14.85917,-3.53828 -4.68346,5.738418 -7.09393,4.426266 -5.94488,-3.236135 l 0.84972,-5.666354 -6.45241,-2.753918 c -10.60483,-4.526187 -31.02523,-9.054708 -33.58504,-7.447975 -1.7028,1.068812 -2.35154,4.21578 -2.86738,13.909524 -0.71853,13.502953 -1.49901,15.861525 -5.24876,15.861525 -4.18859,0 -5.29937,-3.105756 -5.69775,-15.930956 -0.50733,-16.333013 -0.55886,-16.36419 -19.23172,-11.635738 -7.89925,2.000296 -16.190673,4.712604 -18.425363,6.02735 -3.55754,2.093028 -4.06308,3.125502 -4.06308,8.298231 0,6.746192 -2.27477,7.393486 -6.44454,1.833819 -1.3445,-1.792655 -2.93316,-3.259372 -3.53035,-3.259372 -2.45811,0 -19.90081,14.912414 -25.74238,22.00811 -7.03972,8.551089 -7.83132,12.135783 -3.07891,13.942643 3.86212,1.46838 5.28998,3.50592 4.28754,6.11825 -0.6431,1.67589 -1.50253,1.63819 -6.28592,-0.27575 -5.48129,-2.19317 -5.56783,-2.18246 -8.03628,0.99485 -6.19695,7.97653 -12.94965,38.844631 -9.03924,41.320401 1.02855,0.6512 7.69897,1.19318 14.82317,1.20441 11.36613,0.0179 13.11982,0.33196 14.31398,2.56327 1.02934,1.92332 0.79713,3.21823 -0.95308,5.31492 -2.01718,2.41652 -4.0242,2.81719 -15.64732,3.12381 l -13.33333,0.35175 0.17305,6.66667 c 0.19269,7.42305 5.97637,27.71638 9.21852,32.3452 2.41282,3.44477 6.20804,3.88042 8.60843,0.98813 0.91292,-1.1 2.78638,-2 4.16326,-2 4.05919,0 3.08,5.12824 -1.47572,7.72868 -5.63067,3.21404 -5.86854,5.04331 -1.48438,11.41545 4.59821,6.68328 21.68482,23.07304 26.19764,25.12921 3.48836,1.5894 7.26586,-0.34618 7.26586,-3.72302 0,-2.39367 4.38213,-4.62891 6.50396,-3.31755 1.34749,0.83279 1.26468,2.07327 -0.40518,6.0698 -1.15432,2.76269 -2.09878,5.52173 -2.09878,6.1312 0,1.79008 11.87245,6.63151 22.666673,9.24316 22.02948,5.33001 21.33334,5.8266 21.33334,-15.21781 z m 9.5299,-55.45912 L 138.02913,150 h -4 -4 l 0.24876,12.23601 c 0.24618,12.10896 3.21501,22.2594 5.72794,19.58385 0.59572,-0.63425 1.29466,-8.0532 1.5532,-16.48653 z m -5.78615,-41 c 1.45477,-2.89899 0.78934,-5.05541 -5.55448,-18 -3.07851,-6.28171 -5.87631,-10.333331 -7.13558,-10.333331 -2.66496,0 -1.85934,6.770111 2.4623,20.692231 2.64225,8.51199 3.53319,9.97443 6.07653,9.97443 1.63918,0 3.50723,-1.05 4.15123,-2.33333 z"
     id="path226"
     inkscape:connector-curvature="0" />
</svg>
