<?xml version="1.0" encoding="UTF-8" standalone="no"?>
<!-- Created with Inkscape (http://www.inkscape.org/) -->

<svg
   xmlns:dc="http://purl.org/dc/elements/1.1/"
   xmlns:cc="http://creativecommons.org/ns#"
   xmlns:rdf="http://www.w3.org/1999/02/22-rdf-syntax-ns#"
   xmlns:svg="http://www.w3.org/2000/svg"
   xmlns="http://www.w3.org/2000/svg"
   xmlns:sodipodi="http://sodipodi.sourceforge.net/DTD/sodipodi-0.dtd"
   xmlns:inkscape="http://www.inkscape.org/namespaces/inkscape"
   version="1.1"
   id="svg45"
   width="476.69867"
   height="446.94122"
   viewBox="0 0 476.69867 446.94123"
   sodipodi:docname="check-icon.svg"
   inkscape:version="0.92.4 (unknown)">
  <path
     style="stroke-width:0.80536914"
     d="M 92.10902,379.86016 C 60.31419,342.96557 26.58268,303.83204 17.15012,292.89675 7.71755,281.96146 0,272.6507 0,272.2062 c 0,-0.44452 2.84452,-4.25002 6.32115,-8.45667 l 6.32114,-7.64847 58.30973,32.96042 c 32.07035,18.12824 58.52903,32.96469 58.79707,32.96989 0.26803,0.005 2.07141,-2.25563 4.00751,-5.02408 6.54884,-9.3643 30.76156,-41.19208 42.12161,-55.36913 36.8059,-45.93285 64.67482,-77.12467 104.36059,-116.80383 45.28573,-45.278196 83.73923,-78.111568 129.43356,-110.51632 16.58521,-11.761633 53.86769,-35.19622729 54.55667,-34.29261312 0.11343,0.1487638 2.9655,3.94402762 6.33793,8.43391982 l 6.1317,8.1634403 -14.24714,13.178842 C 415.19141,73.518033 365.50109,127.59864 325.22519,179.1523 270.60568,249.06594 225.8192,320.54188 176.90131,415.86635 l -15.70515,30.60403 -5.63917,0.23542 -5.63917,0.23542 z"
     id="path55"
     inkscape:connector-curvature="0" />
</svg>
