<?xml version="1.0" encoding="UTF-8" standalone="no"?>
<!-- Created with Inkscape (http://www.inkscape.org/) -->

<svg
   xmlns:dc="http://purl.org/dc/elements/1.1/"
   xmlns:cc="http://creativecommons.org/ns#"
   xmlns:rdf="http://www.w3.org/1999/02/22-rdf-syntax-ns#"
   xmlns:svg="http://www.w3.org/2000/svg"
   xmlns="http://www.w3.org/2000/svg"
   xmlns:sodipodi="http://sodipodi.sourceforge.net/DTD/sodipodi-0.dtd"
   xmlns:inkscape="http://www.inkscape.org/namespaces/inkscape"
   version="1.1"
   id="svg91"
   width="261.20493"
   height="260"
   viewBox="0 0 261.20493 260"
   sodipodi:docname="choose-icon-6.svg"
   inkscape:version="0.92.4 (unknown)">

  <path
     style="stroke-width:1.33333337"
     d="m 1.1945244,253 c -1.02818001,-4.68873 -1.38993001,-20.13319 -1.09562001,-46.77573 0.4149,-37.55951 0.58359,-39.88108 3.02756001,-41.66667 1.92715,-1.40799 7.1202696,-1.89093 20.3333296,-1.89093 24.18546,0 23.07849,-1.29827 23.07849,27.06666 0,15.12592 0.48644,22.21978 1.6,23.33334 1.11692,1.11692 8.33439,1.6 23.90476,1.6 18.49928,0 22.66224,0.35748 24.4,2.09524 1.6777,1.67769 2.09524,5.36436 2.09524,18.5 0,9.02261 -0.375,18.27976 -0.83334,20.57142 L 96.871614,260 H 49.800574 2.7295344 Z M 84.935684,237.64941 c 0.30216,-6.34914 -0.0678,-8.5291 -1.54349,-9.09538 -1.06749,-0.40964 -11.57517,-0.85188 -23.3504,-0.98275 -18.56217,-0.20631 -21.72607,-0.55412 -23.78984,-2.61533 -2.05952,-2.05696 -2.43381,-5.38144 -2.77711,-24.66667 -0.33474,-18.80427 -0.73941,-22.54987 -2.58817,-23.95595 -3.03893,-2.31125 -11.15678,-2.0857 -14.71838,0.40894 -2.92367,2.04782 -2.96334,2.50838 -2.96334,34.4 0,23.60618 0.43745,32.76185 1.62192,33.94632 1.20822,1.20822 10.30579,1.53132 35.66667,1.26666 L 84.538284,246 Z m 79.769256,18.18392 c -0.45833,-2.29166 -0.83333,-11.55764 -0.83333,-20.59106 0,-21.50327 -1.23369,-20.5756 27.36335,-20.5756 14.89517,0 21.92489,-0.48824 23.03665,-1.6 1.11356,-1.11356 1.6,-8.20742 1.6,-23.33334 0,-28.09928 -0.80752,-27.06666 21.16666,-27.06666 8.70834,0 17.70834,0.375 20,0.83333 l 4.16667,0.83333 V 212.16667 260 h -47.83333 -47.83333 z m 82.5,-44.5 v -34.66666 l -5.03731,-1.24427 c -3.15352,-0.77896 -6.39457,-0.76827 -8.66666,0.0285 l -3.62936,1.27288 -0.66667,22.92606 c -0.57168,19.65974 -1.00567,23.26494 -3.04607,25.30476 -2.06208,2.06148 -5.24237,2.4134 -23.84765,2.63884 -11.80754,0.14308 -22.28681,0.57424 -23.28726,0.95816 -1.9146,0.73469 -2.69019,15.46608 -0.90811,17.24816 0.501,0.501 16.251,0.751 35,0.55556 L 247.20494,246 Z M 63.300194,197.90476 c -4.40747,-4.40745 -0.85536,-12.57143 5.46976,-12.57143 3.16731,0 7.10166,3.9362 7.10166,7.10499 0,3.02381 -4.74376,7.56168 -7.90476,7.56168 -1.41428,0 -3.51428,-0.94285 -4.66666,-2.09524 z m 126.001526,-1.41791 c -3.0019,-3.81629 -3.17832,-4.52093 -1.93991,-7.74817 1.47895,-3.85408 5.44033,-5.01545 9.66161,-2.83255 4.69827,2.42958 6.11317,6.98212 3.43864,11.06398 -2.69531,4.11357 -7.71548,3.89618 -11.16034,-0.48326 z M 82.078264,177.56168 c -3.5887,-3.96547 -2.63037,-6.55736 5.52544,-14.94404 6.0569,-6.22837 8.59896,-7.95097 11.73333,-7.95097 9.951106,0 9.709156,7.25209 -0.58542,17.54666 -8.37475,8.37476 -12.68364,9.75692 -16.67335,5.34835 z m 81.580016,-5.34835 c -5.48255,-5.48254 -7.78667,-8.80797 -7.78667,-11.23809 0,-4.88357 3.55048,-8.0388 7.85835,-6.98352 4.06873,0.99669 14.1532,10.35428 17.00204,15.77655 1.76612,3.36148 1.75125,4.11712 -0.13768,7 -3.58963,5.47846 -8.12148,4.25962 -16.93604,-4.55494 z m -48.82756,-24.95857 c -3.04056,-2.12969 -4.02529,-7.77177 -1.61629,-9.26063 0.73854,-0.45644 2.22272,-2.53145 3.29815,-4.61112 1.81742,-3.51449 1.7227,-4.12404 -1.34281,-8.64132 -4.13384,-6.09156 -4.17397,-9.43969 -0.1448,-12.07971 3.50373,-2.29573 8.26984,-1.23678 11.39803,2.53245 2.43918,2.93903 4.51261,2.69372 10.27305,-1.21541 4.95361,-3.36162 9.32801,-3.41212 11.48848,-0.13264 1.86148,2.82564 1.01101,8.4155 -1.64625,10.82029 -1.46667,1.32731 -2.66667,3.72731 -2.66667,5.33333 0,1.60602 1.2,4.00602 2.66667,5.33334 2.65726,2.40478 3.50773,7.99465 1.64625,10.82029 -2.16047,3.27948 -6.53487,3.22897 -11.48848,-0.13267 -5.92104,-4.01813 -7.15325,-4.11461 -10.73851,-0.8409 -4.08418,3.7293 -7.78053,4.41852 -11.12682,2.07468 z M 90.255974,98.765308 c -5.62011,-5.620112 -6.50666,-7.207659 -6.14286,-11 0.38797,-4.044161 0.851,-4.467488 5.29159,-4.837832 4.2686,-0.355999 5.61992,0.358447 10.999996,5.815735 6.49273,6.585893 7.68127,10.851954 4.03834,14.494879 -3.56215,3.56216 -7.344646,2.36964 -14.187066,-4.472782 z m 67.215636,4.968022 c -3.78804,-3.788038 -1.82649,-9.266831 6.18667,-17.279997 8.0576,-8.057605 11.73186,-9.410993 15.45142,-5.691428 4.06572,4.065714 2.54611,8.547223 -5.69142,16.784762 -7.88955,7.889543 -12.46767,9.665673 -15.94667,6.186663 z M 3.6859944,94.786269 0.53828439,92.239205 0.10554439,54.452936 c -0.23801,-20.782448 -0.0402,-41.536269 0.43946,-46.119603 L 1.4172044,0 h 47.7383696 47.73836 l 0.80397,3 c 0.44218,1.65 0.81216,10.65 0.82217,20 0.025,23.32308 1.22369,22.333333 -27.04846,22.333333 -15.12592,0 -22.21976,0.486435 -23.33333,1.6 -1.10981,1.109811 -1.6,8.072727 -1.6,22.727274 0,20.653646 -0.0734,21.200638 -3.27273,24.4 -3.12382,3.123821 -4.02707,3.272726 -19.85228,3.272726 -14.3326596,0 -17.0061496,-0.345184 -19.7272796,-2.547064 z M 33.204954,60.377232 c 0.57152,-19.680027 1.00592,-23.295356 3.0439,-25.333333 2.03797,-2.037976 5.6533,-2.472372 25.33333,-3.043899 l 22.9561,-0.666667 V 22.666667 14 l -33.83537,-0.356583 c -23.84372,-0.251282 -34.37615,0.09223 -35.66666,1.16326 -1.45755,1.209654 -1.8313,7.899307 -1.8313,32.777571 0,19.466179 0.5331,32.253845 1.41318,33.898291 1.21478,2.269836 2.57195,2.585122 9.66667,2.245678 l 8.25348,-0.394884 z M 218.53827,94.666667 c -2.44853,-2.448535 -2.66666,-4.444444 -2.66666,-24.4 0,-15.125926 -0.48644,-22.219768 -1.6,-23.333334 -1.11176,-1.111753 -8.14148,-1.6 -23.03665,-1.6 -28.76923,0 -27.3688,1.113486 -27.34515,-21.742272 C 163.90051,13.915977 164.26981,4.65 164.712,3 l 0.80396,-3 h 47.84449 47.84449 V 47.833333 95.666667 L 257.03827,96.5 c -2.29166,0.458333 -11.29166,0.833333 -20,0.833333 -14.05556,0 -16.13274,-0.299414 -18.5,-2.666666 z m 28.66667,-46 V 14 h -34.66667 -34.66666 v 8.666667 8.666666 L 200.82771,32 c 19.68542,0.571683 23.29479,1.005541 25.33334,3.045139 2.04876,2.049841 2.43142,5.365906 2.76946,24 0.21572,11.89184 0.65796,22.40036 0.98274,23.352265 0.42016,1.231451 2.9995,1.616095 8.9411,1.333333 l 8.35059,-0.397404 z M 63.871614,72 c -3.6389,-3.638903 -3.41824,-8.779408 0.4867,-11.33802 7.87347,-5.158897 16.25361,6.533239 8.54996,11.929081 -3.91641,2.743164 -5.82742,2.618171 -9.03666,-0.591061 z m 125.630006,0.591061 c -6.21025,-4.349826 -1.2292,-15.100949 6.1522,-13.278921 4.13196,1.019936 5.22712,1.937096 5.59767,4.68786 0.637,4.728885 -0.28076,6.719304 -3.98034,8.632427 -4.77811,2.470865 -4.17826,2.474058 -7.76953,-0.04136 z"
     id="path225"
     inkscape:connector-curvature="0" />
</svg>
