<?xml version="1.0" encoding="UTF-8" standalone="no"?>
<!-- Created with Inkscape (http://www.inkscape.org/) -->

<svg
   xmlns:dc="http://purl.org/dc/elements/1.1/"
   xmlns:cc="http://creativecommons.org/ns#"
   xmlns:rdf="http://www.w3.org/1999/02/22-rdf-syntax-ns#"
   xmlns:svg="http://www.w3.org/2000/svg"
   xmlns="http://www.w3.org/2000/svg"
   xmlns:sodipodi="http://sodipodi.sourceforge.net/DTD/sodipodi-0.dtd"
   xmlns:inkscape="http://www.inkscape.org/namespaces/inkscape"
   version="1.1"
   id="svg71"
   width="266.66666"
   height="266.66666"
   viewBox="0 0 266.66666 266.66666"
   sodipodi:docname="choose-icon-5.svg"
   inkscape:version="0.92.4 (unknown)">

  <path
     style="stroke-width:1.33333325"
     d="M 9.66667,256.24558 C 4.35,250.73503 0,245.7495 0,245.16662 c 0,-0.58287 3,-3.86592 6.66667,-7.29565 3.66667,-3.42974 6.66667,-7.27168 6.66667,-8.53764 0,-1.26596 -3,-5.10791 -6.66667,-8.53764 C 3,217.36595 0,214.00789 0,213.33333 c 0,-0.67456 3,-4.03263 6.66667,-7.46236 3.66667,-3.42974 6.66667,-7.27168 6.66667,-8.53764 0,-1.26596 -3,-5.10791 -6.66667,-8.53764 C 3,185.36596 0,182.00789 0,181.33333 c 0,-0.67456 3,-4.03263 6.66667,-7.46236 3.66667,-3.42973 6.66667,-7.27168 6.66667,-8.53764 0,-1.26596 -3,-5.10791 -6.66667,-8.53764 C 3,153.36596 0,150.00789 0,149.33333 c 0,-0.67456 3,-4.03263 6.66667,-7.46236 3.66667,-3.42973 6.66667,-7.27168 6.66667,-8.53764 0,-1.26597 -3,-5.1079 -6.66667,-8.53764 C 3,121.36595 0,118.00789 0,117.33333 c 0,-0.67456 3,-4.03262 6.66667,-7.46236 3.66667,-3.42974 6.66667,-7.27167 6.66667,-8.53764 0,-1.26596 -3,-5.107903 -6.66667,-8.53764 C 3,89.365952 0,86.007891 0,85.333331 c 0,-0.67456 3,-4.032621 6.66667,-7.462358 3.66667,-3.429738 6.66667,-7.271676 6.66667,-8.537641 0,-1.265966 -3,-5.107904 -6.66667,-8.537642 C 3,57.365953 0,54.007892 0,53.333332 c 0,-0.67456 3,-4.032621 6.66667,-7.462358 3.66667,-3.429738 6.66667,-7.271676 6.66667,-8.537642 0,-1.265965 -3,-5.107903 -6.66667,-8.537641 C 3,25.365954 0,22.090301 0,21.516462 0,20.154519 20.15452,0 21.51646,0 c 0.57384,0 3.8495,2.9999999 7.27923,6.6666665 3.42974,3.6666665 7.27168,6.6666665 8.53764,6.6666665 1.26597,0 5.10791,-3 8.53765,-6.6666665 C 49.30071,2.9999999 52.65877,0 53.33333,0 c 0.67456,0 4.03263,2.9999999 7.46236,6.6666665 3.42974,3.6666665 7.27168,6.6666665 8.53764,6.6666665 1.26597,0 5.10791,-3 8.53765,-6.6666665 C 81.30071,2.9999999 84.65877,0 85.33333,0 c 0.67456,0 4.03262,2.9999999 7.46236,6.6666665 3.42974,3.6666665 7.27168,6.6666665 8.53764,6.6666665 1.26597,0 5.09625,-2.987536 8.51173,-6.6389681 l 6.20998,-6.63896822 8.93377,8.30563482 C 136.38641,18.95727 247.68919,130.22572 257.03505,140.36654 c 3.86928,4.1984 7.61928,7.63346 8.33333,7.63346 0.71405,0 1.29828,1.2 1.29828,2.66666 0,1.46667 -0.59827,2.66667 -1.32949,2.66667 -2.39267,0 -12.00384,9.58624 -12.00384,11.97269 0,1.28099 3,5.13522 6.66666,8.56495 3.66667,3.42973 6.66667,6.7878 6.66667,7.46236 0,0.67456 -3,4.03263 -6.66667,7.46236 -3.66666,3.42973 -6.66666,7.27168 -6.66666,8.53764 0,1.26596 3,5.1079 6.66666,8.53764 3.66667,3.42973 6.66667,6.7878 6.66667,7.46236 0,0.67456 -3,4.03262 -6.66667,7.46236 -3.66666,3.42973 -6.66666,7.27168 -6.66666,8.53764 0,1.26596 3,5.1079 6.66666,8.53764 3.66667,3.42973 6.66667,6.70538 6.66667,7.27922 0,1.36195 -20.15452,21.51647 -21.51647,21.51647 -0.57384,0 -3.84949,-3 -7.27922,-6.66667 -3.42974,-3.66666 -7.27168,-6.66666 -8.53764,-6.66666 -1.26596,0 -5.10791,3 -8.53764,6.66666 -3.42974,3.66667 -6.7878,6.66667 -7.46236,6.66667 -0.67456,0 -4.03263,-3 -7.46236,-6.66667 -3.42974,-3.66666 -7.27168,-6.66666 -8.53764,-6.66666 -1.26596,0 -5.10791,3 -8.53764,6.66666 -3.42973,3.66667 -6.7878,6.66667 -7.46236,6.66667 -0.67456,0 -4.03263,-3 -7.46236,-6.66667 -3.42973,-3.66666 -7.27168,-6.66666 -8.53764,-6.66666 -1.26596,0 -5.10791,3 -8.53764,6.66666 -3.42973,3.66667 -6.7878,6.66667 -7.46236,6.66667 -0.67456,0 -4.03263,-3 -7.46236,-6.66667 -3.42973,-3.66666 -7.27168,-6.66666 -8.53764,-6.66666 -1.26597,0 -5.1079,3 -8.53764,6.66666 -3.42974,3.66667 -6.7878,6.66667 -7.46236,6.66667 -0.67456,0 -4.03262,-3 -7.46236,-6.66667 -3.42974,-3.66666 -7.27167,-6.66666 -8.53764,-6.66666 -1.26596,0 -5.1079,3 -8.53764,6.66666 -3.42974,3.66667 -6.7878,6.66667 -7.46236,6.66667 -0.67456,0 -4.03262,-3 -7.46235,-6.66667 -3.42974,-3.66666 -7.27168,-6.66666 -8.53765,-6.66666 -1.26596,0 -5.1079,3 -8.53764,6.66666 -3.42973,3.66667 -6.7878,6.66667 -7.46236,6.66667 -0.67456,0 -4.03262,-3 -7.46235,-6.66667 -3.42974,-3.66666 -7.27168,-6.66666 -8.53765,-6.66666 -1.26596,0 -5.1079,3 -8.53764,6.66666 -3.42973,3.66667 -6.96184,6.57624 -7.84912,6.46572 -0.88728,-0.11053 -5.96323,-4.70958 -11.2799,-10.22013 z m 16.6427,-10.91225 c 1.85664,-2.16839 3.93325,-2.66667 11.11364,-2.66667 7.13704,0 9.29314,0.51136 11.24366,2.66667 1.32731,1.46666 3.42731,2.66666 4.66666,2.66666 1.23936,0 3.33936,-1.2 4.66667,-2.66666 1.95518,-2.16044 4.10662,-2.66667 11.33333,-2.66667 7.22671,0 9.37816,0.50623 11.33334,2.66667 1.32731,1.46666 3.42731,2.66666 4.66666,2.66666 1.23936,0 3.33936,-1.2 4.66667,-2.66666 1.95517,-2.16044 4.10662,-2.66667 11.33333,-2.66667 7.22671,0 9.37816,0.50623 11.33333,2.66667 1.32732,1.46666 3.42732,2.66666 4.66667,2.66666 1.23935,0 3.33935,-1.2 4.66667,-2.66666 1.95517,-2.16044 4.10662,-2.66667 11.33333,-2.66667 7.22671,0 9.37816,0.50623 11.33333,2.66667 1.32732,1.46666 3.42732,2.66666 4.66667,2.66666 1.23935,0 3.33935,-1.2 4.66667,-2.66666 1.95517,-2.16044 4.10662,-2.66667 11.33333,-2.66667 7.22671,0 9.37816,0.50623 11.33333,2.66667 1.32732,1.46666 3.42732,2.66666 4.66667,2.66666 1.23935,0 3.33935,-1.2 4.66667,-2.66666 1.95517,-2.16044 4.10662,-2.66667 11.33333,-2.66667 7.2267,0 9.37816,0.50623 11.33333,2.66667 1.32732,1.46666 3.42732,2.66666 4.66667,2.66666 1.23934,0 3.33934,-1.2 4.66666,-2.66666 1.95052,-2.15531 4.10663,-2.66667 11.24367,-2.66667 7.18037,0 9.257,0.49828 11.11363,2.66667 3.00257,3.50674 7.6427,3.53828 7.6427,0.052 0,-1.43811 -1.17801,-3.71222 -2.6178,-5.05359 -4.00369,-3.73 -4.16408,-17.95125 -0.24946,-22.11817 3.59949,-3.83148 3.60889,-5.9189 0.0437,-9.71383 -4.05823,-4.31979 -4.05823,-18.01293 0,-22.33272 3.56516,-3.79493 3.55576,-5.88234 -0.0437,-9.71382 -2.37682,-2.53002 -2.8251,-4.48327 -2.62079,-11.41927 0.13557,-4.60197 0.83271,-8.56951 1.54921,-8.81675 2.64304,-0.91204 4.2064,-5.6215 2.53478,-7.63569 -2.18452,-2.63219 -3.23551,-2.4304 -7.3886,1.41856 -1.9782,1.83333 -4.13482,3.33333 -4.79248,3.33333 -0.65767,0 -4.08228,-2.7 -7.61026,-6 -3.52796,-3.3 -7.19004,-6 -8.13793,-6 -0.94789,0 -4.60997,2.7 -8.13793,6 -3.52798,3.3 -7.0659,6 -7.86207,6 -0.79617,0 -4.33409,-2.7 -7.86206,-6 -3.52796,-3.3 -7.19004,-6 -8.13794,-6 -0.94789,0 -4.60997,2.7 -8.13793,6 -3.52797,3.3 -7.06589,6 -7.86207,6 -0.79617,0 -4.33409,-2.7 -7.86206,-6 -3.52796,-3.3 -7.19004,-6 -8.13794,-6 -0.94789,0 -4.60997,2.7 -8.13793,6 -3.52797,3.3 -7.14364,6 -8.03483,6 -0.89118,0 -5.71689,-4.09654 -10.72379,-9.10345 -5.00689,-5.00695 -9.10345,-9.83265 -9.10345,-10.72384 0,-0.89118 2.7,-4.50685 6,-8.03482 3.3,-3.52797 6,-7.19004 6,-8.13794 0,-0.9479 -2.7,-4.60997 -6,-8.13794 -3.3,-3.52796 -6,-7.06589 -6,-7.86206 0,-0.79617 2.7,-4.334094 6,-7.86206 3.3,-3.527967 6,-7.190039 6,-8.137939 0,-0.9479 -2.7,-4.609972 -6,-8.137938 -3.3,-3.527967 -6,-7.065895 -6,-7.862061 0,-0.796167 2.7,-4.334095 6,-7.862062 3.3,-3.527966 6,-7.190038 6,-8.137938 0,-0.9479 -2.7,-4.609972 -6,-8.137938 -3.3,-3.527967 -6,-6.994155 -6,-7.70264 0,-0.708484 1.56215,-3.144659 3.47144,-5.41372 3.29282,-3.913296 3.36142,-4.293464 1.33333,-7.388723 -1.17595,-1.794734 -3.39471,-3.935672 -4.93056,-4.757637 -2.30402,-1.23307 -3.33946,-0.980613 -5.91958,1.443284 -4.43947,4.170669 -18.06267,4.239977 -22.45432,0.11424 -3.78464,-3.555489 -5.88263,-3.555489 -9.66728,0 -4.31978,4.058231 -18.01293,4.058231 -22.33272,0 -1.65303,-1.552944 -3.82816,-2.823532 -4.83364,-2.823532 -1.00547,0 -3.1806,1.270588 -4.83364,2.823529 -4.33759,4.074962 -18.17665,4.074962 -21.97305,0 -3.3801,-3.628113 -7.85997,-3.747122 -7.85997,-0.208802 0,1.4381 1.17801,3.71221 2.6178,5.05358 4.00369,3.73 4.16408,17.951247 0.24946,22.11817 -3.59949,3.831485 -3.60889,5.918889 -0.0437,9.713829 4.05823,4.319788 4.05823,18.012931 0,22.332719 -3.55549,3.784646 -3.55549,5.882635 0,9.66728 4.05823,4.319788 4.05823,18.012929 0,22.332719 -1.55294,1.65303 -2.82353,3.82817 -2.82353,4.83364 0,1.00547 1.27059,3.18061 2.82353,4.83364 4.05823,4.31979 4.05823,18.01293 0,22.33272 -1.55294,1.65303 -2.82353,3.82817 -2.82353,4.83364 0,1.00547 1.27059,3.18061 2.82353,4.83364 4.05823,4.31979 4.05823,18.01293 0,22.33272 -1.55294,1.65303 -2.82353,3.82817 -2.82353,4.83364 0,1.00547 1.27059,3.18061 2.82353,4.83364 2.24091,2.38535 2.82353,4.68945 2.82353,11.16636 0,6.4769 -0.58262,8.78101 -2.82353,11.16636 -3.56516,3.79493 -3.55576,5.88234 0.0437,9.71382 3.91462,4.16692 3.75423,18.38818 -0.24946,22.11818 -1.43979,1.34137 -2.6178,3.61548 -2.6178,5.05358 0,3.48634 4.64014,3.4548 7.6427,-0.052 z"
     id="path267"
     inkscape:connector-curvature="0" />
</svg>
