<?xml version="1.0" encoding="UTF-8" standalone="no"?>
<!-- Created with Inkscape (http://www.inkscape.org/) -->

<svg
   xmlns:dc="http://purl.org/dc/elements/1.1/"
   xmlns:cc="http://creativecommons.org/ns#"
   xmlns:rdf="http://www.w3.org/1999/02/22-rdf-syntax-ns#"
   xmlns:svg="http://www.w3.org/2000/svg"
   xmlns="http://www.w3.org/2000/svg"
   xmlns:sodipodi="http://sodipodi.sourceforge.net/DTD/sodipodi-0.dtd"
   xmlns:inkscape="http://www.inkscape.org/namespaces/inkscape"
   version="1.1"
   id="svg61"
   width="263.1803"
   height="190.0851"
   viewBox="0 0 263.1803 190.0851"
   sodipodi:docname="choose-icon-7.svg"
   inkscape:version="0.92.4 (unknown)">

  <path
     style="stroke-width:1.33333337"
     d="m 18.608892,188.11646 c -1.15238,-1.15237 -2.10717,-3.10237 -2.12175,-4.33333 -0.0262,-2.2117 -2.54218,-25.6214 -5.25611,-48.90476 -0.7693,-6.6 -2.3030504,-19.8 -3.4083304,-29.33334 -1.10528,-9.53333 -3.17207,-27.233336 -4.59287,-39.333336 -3.72080003,-31.687613 -3.88420003,-34.387871 -2.21605,-36.62155 1.03235,-1.382331 5.15049,-2.284276 13.2115604,-2.893563 6.44142,-0.486868 12.10694,-1.524763 12.59004,-2.306431 0.4831,-0.781669 1.22255,-3.541596 1.64324,-6.13317 l 0.76487,-4.711954 57.97841,-0.746226 c 34.368278,-0.442346 61.236198,-1.36346 65.978408,-2.26194 4.4,-0.8336416 15.2,-2.5159696 24,-3.7385056 8.8,-1.222537 21.1,-3.012224 27.33333,-3.977084 27.51834,-4.2595713 26.46667,-4.4356479 27.94372,4.678469 l 0.76364,4.7119536 14.97966,0.377001 14.97965,0.377002 V 94.11271 c 0,72.76548 -0.21784,81.23062 -2.10905,81.95634 -1.15998,0.44513 -31.43044,0.80932 -67.26771,0.80932 -37.95798,0 -67.82991,0.55282 -71.55761,1.32428 -3.51943,0.72834 -12.39896,1.91606 -19.73229,2.63937 -15.591188,1.53781 -54.392158,6.08708 -68.429808,8.02315 -12.63563,1.7427 -13.00123,1.72501 -15.47495,-0.74871 z m 17.90476,-9.90476 c 0,-0.73333 -1.15093,-1.33333 -2.55762,-1.33333 -6.36993,0 -6.13487,2.81753 -5.69563,-68.27087 0.22738,-36.800213 0.0659,-68.293897 -0.35874,-69.985972 -0.67199,-2.677441 -1.60055,-3.076501 -7.15857,-3.076501 -3.51254,0 -7.51269,0.823544 -8.88923,1.830097 -2.4247304,1.773001 -2.4333504,2.344964 -0.27644,18.333334 1.2245,9.07678 2.55199,19.803236 2.94998,23.836569 0.39799,4.033334 1.58969,14.533333 2.64822,23.333343 1.05854,8.8 2.85864,25 4.00024,36 1.14159,11 2.41665,23.26096 2.83346,27.24657 1.19793,11.45496 2.34079,13.42009 7.80466,13.42009 2.58482,0 4.69967,-0.6 4.69967,-1.33333 z M 251.32716,166.13311 c 2.42166,-1.29604 2.51982,-4.07056 2.51982,-71.22297 0,-41.85865 -0.49936,-70.183027 -1.24548,-70.644148 -0.68502,-0.42336 -49.09282,-0.769746 -107.57289,-0.769746 -84.426768,0 -106.548518,0.348314 -107.400778,1.691056 -0.59034,0.930082 -1.08253,32.398201 -1.09376,69.929158 -0.0181,60.48544 0.21937,68.47789 2.09019,70.34871 1.89001,1.89001 12.98434,2.10569 106.146848,2.06356 67.49985,-0.0305 104.92116,-0.52066 106.55605,-1.39562 z M 43.968112,161.07435 c -0.80703,-1.30581 75.643918,-58.87652 79.536888,-59.89456 1.38446,-0.36204 3.82777,-0.0108 5.42959,0.78069 1.60182,0.79142 5.91239,2.72725 9.57906,4.30185 3.66666,1.5746 9.66666,4.24513 13.33333,5.93451 9.82281,4.52577 16.82745,7.34819 18.2366,7.34819 0.68435,0 2.76257,-3.45 4.61829,-7.66666 1.85572,-4.21667 4.18754,-9.46667 5.18179,-11.66667 0.99427,-2.2 3.97476,-9.40001 6.62332,-16.000006 7.49127,-18.667644 8.50319,-20.666667 10.46154,-20.666667 1.79826,0 27.12059,24.896939 31.09818,30.575733 2.043,2.91681 13.46497,54.86481 14.23845,64.75761 0.20655,2.64174 -0.71569,2.66986 -98.70754,3.00852 -54.711898,0.18908 -99.234878,-0.17403 -99.629498,-0.81254 z M 231.18031,149.78703 c 0,-1.70022 -0.84337,-6.05022 -1.87417,-9.66666 -1.03079,-3.61643 -3.28079,-14.07534 -5,-23.242 l -3.12583,-16.66667 -9.16951,-9.66667 c -11.7427,-12.379387 -13.76704,-12.528139 -17.87858,-1.313768 -1.67645,4.572568 -3.88672,10.113768 -4.91171,12.313768 -1.02497,2.2 -4.04465,9.1 -6.71037,15.33334 -6.49056,15.17706 -6.83492,15.47374 -14.12587,12.17017 -3.22885,-1.46301 -8.87062,-3.95383 -12.53729,-5.53517 -3.66667,-1.58134 -7.86667,-3.39427 -9.33333,-4.02874 -10.37723,-4.48911 -19.52943,-7.9396 -21.05931,-7.9396 -0.99349,0 -8.90561,5.55 -17.5825,12.33334 -8.676888,6.78333 -19.686718,15.34716 -24.466298,19.03072 -4.77958,3.68356 -8.93554,7.43356 -9.23546,8.33333 -0.42669,1.28007 16.59169,1.63595 78.232458,1.63595 h 78.77777 z M 74.134502,91.7346 c -7.75591,-2.727168 -12.29432,-6.395115 -16.66702,-13.470291 -2.25303,-3.645467 -2.87976,-6.749788 -2.87976,-14.26397 0,-9.297492 0.17384,-9.809771 5.43946,-16.029871 7.56692,-8.938551 12.23214,-11.367015 22.20631,-11.559432 6.55864,-0.126533 9.49437,0.529175 14.12029,3.153793 C 112.4343,48.688475 116.196,71.225693 103.77331,84.01693 95.234592,92.80897 84.867312,95.50851 74.134502,91.7346 Z m 16.77869,-10.062887 c 6.41912,-3.339863 9.630118,-7.949907 10.392208,-14.920114 1.29109,-11.808605 -6.751468,-20.8203 -18.814978,-21.082213 -10.77689,-0.233978 -20.71621,11.860041 -18.6889,22.740379 2.16357,11.611685 16.65722,18.701397 27.11167,13.261948 z M 221.18031,11.545026 c 0.48207,-0.779998 -0.90127,-1.333333 -3.33333,-1.333333 -2.43207,0 -3.8154,0.553335 -3.33334,1.333333 0.45323,0.733334 1.95323,1.333334 3.33334,1.333334 1.3801,0 2.8801,-0.6 3.33333,-1.333334 z"
     id="path288"
     inkscape:connector-curvature="0" />
</svg>
