<?xml version="1.0" encoding="UTF-8" standalone="no"?>
<!-- Created with Inkscape (http://www.inkscape.org/) -->

<svg
   xmlns:dc="http://purl.org/dc/elements/1.1/"
   xmlns:cc="http://creativecommons.org/ns#"
   xmlns:rdf="http://www.w3.org/1999/02/22-rdf-syntax-ns#"
   xmlns:svg="http://www.w3.org/2000/svg"
   xmlns="http://www.w3.org/2000/svg"
   xmlns:sodipodi="http://sodipodi.sourceforge.net/DTD/sodipodi-0.dtd"
   xmlns:inkscape="http://www.inkscape.org/namespaces/inkscape"
   version="1.1"
   id="svg81"
   width="260.66666"
   height="260.66666"
   viewBox="0 0 260.66666 260.66666"
   sodipodi:docname="choose-icon-2.svg"
   inkscape:version="0.92.4 (unknown)">

  <path
     style="stroke-width:1.33333325"
     d="m 124.64625,249.66666 c -0.0112,-6.05 -0.50686,-11.76653 -1.1014,-12.7034 -0.59453,-0.93687 -4.93535,-2.30881 -9.64624,-3.04876 -16.01262,-2.51513 -33.72032,-9.8086 -45.73828,-18.83872 -6.99092,-5.25288 -9.75395,-5.53691 -14.38275,-1.47848 -1.66866,1.46305 -2.87542,1.59909 -4.84314,0.546 -3.90247,-2.08853 -4.33044,-4.65156 -1.49491,-8.95271 1.39859,-2.12149 2.54685,-4.47341 2.55168,-5.22648 0.005,-0.75306 -2.43352,-4.61962 -5.41857,-8.59234 C 35.17602,178.86604 29.47941,165.08506 26.7842,148.33877 25.86998,142.65842 24.67225,137.55842 24.12258,137.00544 23.57291,136.45245 17.92046,135.7 11.56159,135.33333 L 0,134.66666 V 130 125.33333 l 11.71911,-0.66667 c 7.90201,-0.44952 12.08625,-1.2627 12.84625,-2.49658 0.61992,-1.00645 1.52315,-5.33023 2.00717,-9.60841 1.51493,-13.39025 8.53138,-30.973998 16.71736,-41.895005 7.22378,-9.637323 7.5519,-10.873049 4.1197,-15.515339 l -3.04644,-4.120539 3.36964,-3.369644 3.36965,-3.369646 3.62859,2.854251 c 4.60999,3.626223 6.18918,3.584113 10.83333,-0.288873 10.98869,-9.164 33.10712,-18.665145 47.29364,-20.31536 4.13857,-0.481409 8.33857,-1.376588 9.33334,-1.989285 1.20824,-0.744189 2.02997,-5.004328 2.47532,-12.833113 L 125.33333,0 H 130 h 4.66666 l 0.66667,11.561588 c 0.36667,6.358873 1.11912,12.011321 1.67211,12.560994 0.55298,0.549673 5.65298,1.749637 11.33333,2.666588 5.68035,0.916949 13.34335,2.764502 17.02891,4.105672 7.47314,2.719465 24.62052,12.181565 30.37663,16.762138 l 3.74431,2.979635 4.92236,-2.794686 c 5.47847,-3.110428 7.60633,-2.879937 9.71056,1.051856 1.10715,2.068726 0.91817,3.220672 -0.84861,5.172948 -3.4859,3.851872 -2.74042,8.194408 2.61005,15.203892 8.77012,11.489481 16.24331,29.834805 17.65481,43.339395 0.47531,4.54749 1.7166,9.12057 2.75844,10.1624 1.33711,1.33711 5.19955,1.89424 13.13234,1.89424 h 11.23809 V 130 v 5.33333 h -11.23809 c -7.95143,0 -11.79406,0.55595 -13.13907,1.90096 -1.04552,1.04553 -2.30404,5.83528 -2.79669,10.64388 -1.14059,11.13277 -7.42992,27.64241 -14.58514,38.28633 -9.62784,14.32211 -9.60089,14.24284 -6.3398,18.65371 2.1827,2.95225 2.53836,4.44808 1.51314,6.36374 -1.87916,3.51126 -5.41418,4.55354 -7.94051,2.34123 -4.54469,-3.97977 -7.34215,-3.67607 -14.30084,1.5526 -12.36214,9.28873 -31.10476,17.09981 -44.26648,18.44827 -4.64086,0.47546 -9.29336,1.71993 -10.33889,2.76545 -1.34501,1.34501 -1.90096,5.18764 -1.90096,13.13907 v 11.23809 H 130 124.66666 l -0.0204,-11 z m 49.15077,-76.22293 49.92719,-49.88961 -0.93082,-9.11039 c -1.09548,-10.72209 -3.71866,-15.80144 -7.17225,-13.88785 -1.25829,0.69721 -28.0689,27.10482 -59.57913,58.68361 -53.68286,53.79962 -57.15006,57.55721 -55.04846,59.65881 2.23917,2.23917 9.57565,3.95264 18.2747,4.26813 4.34304,0.15752 7.40678,-2.6362 54.52877,-49.7227 z m -11.10776,45.16613 c 26.00595,-9.78861 46.9108,-31.00148 56.44489,-57.27653 3.19786,-8.813 4.27879,-18.10835 2.19282,-18.85685 -2.15534,-0.77339 -79.81875,77.64913 -78.69621,79.46541 1.26796,2.0516 9.30053,0.71726 20.0585,-3.33203 z m -13.0383,-68.9589 c 34.65864,-34.65864 63.0157,-63.693126 63.0157,-64.521081 0,-3.485696 -8.98951,-14.472165 -12.12028,-14.812722 -2.6462,-0.287848 -14.44514,10.908481 -66.87972,63.463923 C 90.99755,176.54854 70,198.49871 70,200.33617 c 0,2.91916 11.08425,12.21722 14.65096,12.29 1.09136,0.0223 30.34136,-28.31657 65,-62.97521 z M 126.32818,126.33854 C 170.57852,82.095406 190,61.808689 190,59.830125 c 0,-7.429204 -27.5791,-20.564351 -48.33334,-23.019811 -19.70861,-2.331752 -38.45565,0.914824 -55,9.524795 -27.35465,14.235844 -47.36058,42.75559 -49.48072,70.537971 -0.85348,11.18409 -0.49147,13.70956 6.69102,46.67861 C 46.89448,177.40273 54.488,190 59.81976,190 c 1.96459,0 22.40997,-19.57019 66.50842,-63.66146 z"
     id="path246"
     inkscape:connector-curvature="0" />
</svg>
