<?xml version="1.0" encoding="UTF-8" standalone="no"?>
<!-- Created with Inkscape (http://www.inkscape.org/) -->

<svg
   xmlns:dc="http://purl.org/dc/elements/1.1/"
   xmlns:cc="http://creativecommons.org/ns#"
   xmlns:rdf="http://www.w3.org/1999/02/22-rdf-syntax-ns#"
   xmlns:svg="http://www.w3.org/2000/svg"
   xmlns="http://www.w3.org/2000/svg"
   xmlns:sodipodi="http://sodipodi.sourceforge.net/DTD/sodipodi-0.dtd"
   xmlns:inkscape="http://www.inkscape.org/namespaces/inkscape"
   version="1.1"
   id="svg101"
   width="260.66666"
   height="260.66666"
   viewBox="0 0 260.66666 260.66666"
   sodipodi:docname="choose-icon-3.svg"
   inkscape:version="0.92.4 (unknown)">

  <path
     style="stroke-width:1.33333325"
     d="m 124.64625,249.66666 c -0.0112,-6.05 -0.51915,-11.78641 -1.1287,-12.74757 -0.60955,-0.96118 -5.52349,-2.35943 -10.91986,-3.10726 -5.39637,-0.74781 -11.45866,-2.21141 -13.47176,-3.25242 -2.01309,-1.04102 -4.32778,-1.89275 -5.14373,-1.89275 -2.88594,0 -19.02916,-8.48693 -25.7527,-13.53891 -7.06165,-5.30601 -9.81337,-5.59742 -14.45192,-1.53045 -1.66866,1.46305 -2.87542,1.59909 -4.84313,0.546 -4.09867,-2.19353 -4.50842,-5.25915 -1.28558,-9.61827 3.32159,-4.49269 3.67189,-3.47946 -6.05932,-17.52651 C 34.58361,176.8854 28.77501,162.10656 26.58073,148.8115 25.5651,142.65784 24.38193,137.27081 23.95146,136.84036 23.521,136.40989 17.95582,135.74472 11.5844,135.36218 L 0,134.66666 V 130 125.33333 l 11.56159,-0.66667 c 6.35887,-0.36666 11.93751,-1.0453 12.39698,-1.50809 0.45946,-0.46278 1.45607,-4.96278 2.21467,-10 2.24463,-14.90468 8.9784,-31.626739 17.11098,-42.491905 6.61101,-8.832349 7.26062,-11.274689 4.12638,-15.51398 -5.05363,-6.835397 1.01787,-12.713506 7.88651,-7.635305 4.46888,3.303991 5.6898,2.973493 15.36955,-4.160481 11.15299,-8.219748 25.97033,-14.231332 41.03202,-16.647225 5.70094,-0.914431 10.80094,-2.095477 11.33334,-2.624549 0.53238,-0.529072 1.26798,-6.164664 1.63464,-12.523537 L 125.33333,0 H 130 h 4.66666 l 0.66667,11.719117 c 0.44432,7.810528 1.26816,12.089582 2.47011,12.829885 0.99189,0.610924 5.49438,1.488919 10.00554,1.9511 12.19002,1.248904 30.3489,8.620498 41.52435,16.856797 9.67976,7.133974 10.90066,7.464472 15.36956,4.160481 3.05016,-2.25508 4.55729,-2.626895 6.47906,-1.598396 3.88288,2.078055 4.30306,5.004837 1.42002,9.891222 l -2.6452,4.483284 5.82874,8.519921 c 10.48914,15.332084 15.6402,27.988619 18.0735,44.407929 0.75161,5.07174 2.14081,9.71256 3.0871,10.31292 0.94631,0.60036 6.67055,1.10076 12.72055,1.11199 l 11,0.0204 V 130 v 5.33333 l -11,0.0204 c -6.05,0.0107 -11.77424,0.51163 -12.72055,1.11199 -0.94629,0.60036 -2.33549,5.24117 -3.0871,10.31292 -2.42644,16.37304 -7.58896,29.08249 -17.98695,44.28153 -5.81535,8.50045 -6.12608,10.6134 -2.2298,15.16222 3.75109,4.37932 -3.15869,11.10399 -7.50176,7.30078 -4.49728,-3.93827 -7.45396,-3.71611 -13.56976,1.01957 -12.63761,9.78579 -31.39785,17.72304 -45.01169,19.04395 -4.64253,0.45045 -9.29253,1.67057 -10.33333,2.71138 -1.33494,1.33494 -1.89239,5.20288 -1.89239,13.13048 v 11.2381 H 130 124.66666 l -0.0204,-11 z M 146,222.58143 c 19.68509,-1.95862 43.50302,-15.77504 57.2311,-33.19887 11.89476,-15.09695 18.14319,-29.94098 19.87621,-47.2188 3.29784,-32.8783 -6.43146,-60.139236 -28.98358,-81.210335 -8.93369,-8.347005 -14.42787,-11.838581 -28.33969,-18.010029 l -12.45071,-5.523274 -22.66667,-0.04028 c -21.94259,-0.039 -22.96481,0.08191 -32,3.78495 C 80.93307,48.432843 76.10248,51.578037 63.84026,63.840264 42.30188,85.378646 33.92148,109.3898 36.90564,141.01215 c 3.98262,42.20264 38.64068,77.62184 80.42769,82.19401 5.86667,0.64191 12.76667,0.95796 15.33333,0.70235 2.56667,-0.25562 8.56667,-0.85279 13.33334,-1.32707 z"
     id="path204"
     inkscape:connector-curvature="0" />
</svg>
