<?xml version="1.0" encoding="UTF-8" standalone="no"?>
<!-- Created with Inkscape (http://www.inkscape.org/) -->

<svg
   xmlns:dc="http://purl.org/dc/elements/1.1/"
   xmlns:cc="http://creativecommons.org/ns#"
   xmlns:rdf="http://www.w3.org/1999/02/22-rdf-syntax-ns#"
   xmlns:svg="http://www.w3.org/2000/svg"
   xmlns="http://www.w3.org/2000/svg"
   xmlns:sodipodi="http://sodipodi.sourceforge.net/DTD/sodipodi-0.dtd"
   xmlns:inkscape="http://www.inkscape.org/namespaces/inkscape"
   version="1.1"
   id="svg121"
   width="260.66666"
   height="260.66666"
   viewBox="0 0 260.66666 260.66666"
   sodipodi:docname="choose-icon-1.svg"
   inkscape:version="0.92.4 (unknown)">
  <path
     style="stroke-width:1.33333325"
     d="m 124.66666,249.42857 c 0,-13.5021 -0.90657,-14.75414 -11.59993,-16.02039 -14.63108,-1.73255 -36.43229,-11.0332 -47.50236,-20.26507 -4.61471,-3.84842 -6.22941,-3.91032 -10.68017,-0.40934 -6.27215,4.93366 -12.4993,-1.41236 -7.55447,-7.6987 3.2061,-4.07589 3.40783,-7.42977 0.58768,-9.77029 -1.93449,-1.60548 -8.22303,-10.96652 -12.43083,-18.50436 -3.30158,-5.91444 -7.8252,-20.8566 -8.76463,-28.95082 -0.50961,-4.39082 -1.45692,-8.84422 -2.10514,-9.89646 -0.82196,-1.33426 -4.72453,-2.11486 -12.89769,-2.57981 L 0,134.66666 V 130 125.33333 l 11.71912,-0.66667 c 8.04057,-0.4574 12.08099,-1.25412 12.87197,-2.53819 0.63406,-1.02933 1.54328,-5.22933 2.02048,-9.33333 1.85059,-15.91539 13.01911,-41.182554 21.20709,-47.977975 2.96037,-2.456884 2.74092,-5.74616 -0.67291,-10.086135 l -2.85425,-3.628591 3.40547,-3.405471 3.40547,-3.405471 3.62859,2.854251 c 4.55231,3.580841 7.50328,3.611975 10.67019,0.112573 3.68262,-4.069245 21.36563,-13.621706 31.26544,-16.889771 4.76667,-1.573542 12.02449,-3.257803 16.12848,-3.742804 4.104,-0.485 8.304,-1.4006 9.33333,-2.034665 1.28407,-0.790978 2.08079,-4.831395 2.53819,-12.871964 L 125.33333,0 H 130 h 4.66666 l 0.66667,11.719117 c 0.46495,8.173158 1.24555,12.075728 2.57981,12.89769 1.05224,0.648218 5.55224,1.575504 10,2.06064 4.44778,0.485136 11.68686,2.159627 16.08686,3.721092 9.67134,3.432152 27.17506,13.076612 30.59878,16.859781 3.13909,3.468664 6.11453,3.470903 10.51701,0.0079 2.68222,-2.109834 4.05686,-2.422598 6.02295,-1.370374 3.99889,2.140146 4.41957,5.241138 1.28599,9.479544 -3.25046,4.396476 -2.87395,5.739937 4.28537,15.291262 8.19345,10.930973 13.6846,24.502488 16.68703,41.242478 1.04326,5.8167 2.6557,11.05751 3.58318,11.64625 0.9275,0.58874 6.63635,1.07962 12.68635,1.09085 l 11,0.0205 V 130 v 5.33333 h -11.23809 c -13.556,0 -14.73018,0.87147 -15.97282,11.85495 -1.62632,14.37472 -8.5762,31.75493 -17.23284,43.09574 -6.2576,8.19792 -6.82536,10.59048 -3.5125,14.80208 4.95384,6.29779 -1.36856,12.54508 -7.67534,7.58416 -4.36689,-3.43499 -6.00089,-3.36209 -10.59944,0.47285 -11.16797,9.31352 -32.99669,18.76782 -46.85577,20.29383 -4.63108,0.50992 -9.28108,1.78808 -10.33333,2.84033 -1.35939,1.35939 -1.9132,5.16627 -1.9132,13.1513 v 11.23809 H 130 124.66666 Z m 49.16408,-76.00104 49.90579,-49.90579 -0.83524,-8.94452 c -0.76782,-8.22232 -3.5163,-15.24389 -5.96696,-15.24389 -1.14054,0 -116.7304,115.42976 -117.31207,117.14957 -1.07989,3.19289 7.95733,6.37717 19.00688,6.69709 5.2443,0.15184 5.78114,-0.332 55.2016,-49.75246 z m -14.72137,46.40257 c 29.61141,-10.14629 50.59934,-31.18505 60.79834,-60.94557 3.54946,-10.35728 4.0019,-15.60087 1.41926,-16.44888 -2.07956,-0.68283 -79.81276,77.69964 -78.75436,79.41216 1.41263,2.28568 5.396,1.79965 16.53676,-2.01771 z m -9.44792,-70.15817 c 34.65287,-34.64711 63.00521,-63.948642 63.00521,-65.114523 0,-3.604149 -9.41015,-14.557409 -12.50655,-14.557409 C 196.20355,69.999998 70,196.19351 70,200.14975 c 0,3.10174 10.94216,12.51691 14.54694,12.51691 1.16012,0 30.46165,-28.34762 65.11451,-62.99473 z M 126.32818,126.33854 C 171.16876,81.505254 190,61.822392 190,59.787221 c 0,-3.639844 -9.83151,-11.120556 -14.61516,-11.120556 -2.73839,0 -15.88854,12.475821 -65.73733,62.366415 -34.2728,34.30153 -62.31417,63.30306 -62.31417,64.44785 0,3.57445 9.42756,14.51907 12.50654,14.51907 1.93806,0 22.67487,-19.85516 66.4883,-63.66146 z m -23.80233,-23.78249 c 31.97744,-31.960843 58.14081,-58.64701 58.14081,-59.302598 0,-2.517276 -6.34982,-5.068074 -14.66666,-5.891776 l -8.66667,-0.858346 -50.52126,50.609474 -50.52126,50.609476 0.9424,8.4722 c 0.9036,8.12334 3.53139,14.47218 5.99005,14.47218 0.63897,0 27.32514,-26.14977 59.30259,-58.11061 z M 78.72007,79.371882 c 21.23729,-21.245464 38.61326,-39.395463 38.61326,-40.333332 0,-2.64854 -9.77257,-1.506518 -19.97736,2.334554 C 81.13965,47.476912 65.63206,58.841894 55.77857,71.843751 43.32178,88.280726 32.52576,118 39.01156,118 c 0.60238,0 18.47121,-17.38265 39.70851,-38.628118 z"
     id="path162"
     inkscape:connector-curvature="0" />
</svg>
