<?xml version="1.0" encoding="UTF-8" standalone="no"?>
<!-- Created with Inkscape (http://www.inkscape.org/) -->

<svg
   xmlns:dc="http://purl.org/dc/elements/1.1/"
   xmlns:cc="http://creativecommons.org/ns#"
   xmlns:rdf="http://www.w3.org/1999/02/22-rdf-syntax-ns#"
   xmlns:svg="http://www.w3.org/2000/svg"
   xmlns="http://www.w3.org/2000/svg"
   xmlns:sodipodi="http://sodipodi.sourceforge.net/DTD/sodipodi-0.dtd"
   xmlns:inkscape="http://www.inkscape.org/namespaces/inkscape"
   version="1.1"
   id="svg111"
   width="266.75479"
   height="209.64607"
   viewBox="0 0 266.75479 209.64607"
   sodipodi:docname="choose-icon-4.svg"
   inkscape:version="0.92.4 (unknown)">

  <path
     style="stroke-width:1.33333337"
     d="m 184.66666,208.89936 c -10.05129,-3.04932 -20.66214,-16.36576 -31.51718,-39.55351 -5.6441,-12.05651 -6.86423,-13.79657 -9.16262,-13.06709 -2.02632,0.64312 -2.96213,0.0244 -3.96913,-2.6242 -1.29247,-3.39946 -1.39641,-3.425 -5.43596,-1.33607 -3.7422,1.93516 -4.40915,1.93908 -7.30313,0.0429 -1.75165,-1.14778 -4.33246,-2.08684 -5.73514,-2.08684 -1.40267,0 -3.23724,-0.82769 -4.07681,-1.83932 -0.83957,-1.01161 -3.3015,-2.1943 -5.47095,-2.6282 -3.54616,-0.70922 -3.86509,-1.18576 -3.15842,-4.71908 0.69997,-3.49988 0.18614,-4.30889 -4.69292,-7.3889 -4.95765,-3.12963 -5.32032,-3.71908 -3.81168,-6.19511 1.43779,-2.35975 1.25189,-3.07702 -1.35056,-5.21106 -1.65982,-1.36107 -3.69858,-2.70158 -4.53059,-2.97891 -0.83202,-0.27734 -1.57399,-2.84482 -1.64883,-5.70551 -0.11974,-4.57685 -0.72419,-5.51112 -5.035,-7.78235 -5.71509,-3.01111 -8.62508,-2.31047 -10.46114,2.51874 -1.1474,3.0179 -1.84942,3.3557 -5.36793,2.5829 C 67.32436,109.91428 64,111.94248 64,115.77115 c 0,1.61451 -0.94686,2.5034 -2.66667,2.5034 -1.46667,0 -2.66667,-0.6 -2.66667,-1.33333 0,-1.62689 -5.31538,-1.72629 -7.80935,-0.14604 -1.10334,0.69911 -1.47238,2.20814 -0.94576,3.86737 1.28549,4.05022 -1.88006,5.18903 -4.55745,1.63954 -2.19513,-2.91015 -2.4083,-2.93857 -5.72764,-0.76366 -2.75999,1.80841 -4.01814,1.95366 -6.30791,0.72822 -3.70673,-1.98379 -6.65189,-0.79961 -6.65189,2.67457 0,5.31517 -5.155,4.83068 -7.09347,-0.66667 -0.28558,-0.80988 -1.88612,-0.57897 -4.0769,0.5882 -3.20111,1.70542 -4.03602,1.66793 -7.4239,-0.33334 -2.09944,-1.24014 -4.7746,-2.25483 -5.94478,-2.25483 C 0.46817,122.27458 0,120.83205 0,115.71903 c 0,-3.60556 0.50222,-6.75556 1.11605,-7 0.61383,-0.24445 2.75008,-5.54445 4.74724,-11.777776 9.76566,-30.47972 22.84796,-57.981293 35.5493,-74.731631 19.69335,-25.971295 38.415,-29.233906 54.08351,-9.425098 5.42486,6.858353 23.17056,40.428134 23.17056,43.832072 0,0.799365 1.56687,3.31551 3.48194,5.591436 2.50453,2.976468 3.29112,5.136212 2.80218,7.693945 -0.52018,2.721135 0.22746,4.403357 3.18473,7.165867 2.12547,1.985482 3.86449,4.588073 3.86449,5.783536 0,3.332909 3.78084,4.034844 6.83674,1.269281 2.671,-2.417213 2.78415,-2.413467 4.6618,0.154393 1.13963,1.55852 3.67323,2.720283 6.21292,2.848876 2.3587,0.119427 6.68854,0.85033 9.62187,1.624223 11.9904,3.163397 12.93107,3.256001 14.08635,1.386724 0.62481,-1.010975 0.8025,-3.167011 0.39486,-4.791188 -0.59164,-2.357256 -0.0424,-3.128425 2.72214,-3.822288 3.8695,-0.971184 4.21389,-2.08114 1.83004,-5.898293 -2.24858,-3.600532 0.4701,-6.640386 3.60898,-4.035346 1.14882,0.953422 2.27196,1.497992 2.49591,1.210159 0.22393,-0.287835 2.95087,-3.335375 6.05983,-6.772312 4.73165,-5.230796 5.42498,-6.674407 4.2553,-8.859993 -1.03022,-1.924983 -0.94097,-2.989794 0.33967,-4.052631 2.20748,-1.832048 4.99972,0.614808 3.91811,3.433459 -0.61644,1.606394 0.30701,1.788834 5.27987,1.043108 3.86726,-0.579932 6.35056,-0.380234 6.92998,0.557282 0.49665,0.803598 2.2746,1.461086 3.951,1.461086 1.6764,0 4.1252,1.190296 5.44177,2.645101 1.59992,1.767891 3.38895,2.395335 5.39453,1.891964 3.63736,-0.912921 5.4718,1.502681 3.21042,4.227493 -2.3156,2.790118 0.37033,8.236895 4.33924,8.799502 2.38778,0.338477 3.1097,1.330217 3.22905,4.43594 0.26719,6.952589 0.44236,7.358342 3.84628,8.909272 2.67763,1.220006 3.33333,2.48515 3.33333,6.431431 0,4.475706 3.03499,9.325956 5.83562,9.325956 0.52742,0 2.3862,1.65 4.1306,3.66667 2.8064,3.24442 3.27609,3.39796 4.07869,1.33333 1.10791,-2.84998 3.28843,-3.0785 3.28843,-0.34463 0,1.09379 1.2,2.73812 2.66666,3.65406 2.70019,1.6863 3.85743,9.02391 1.42319,9.02391 -0.68392,0 -1.62163,1.35 -2.0838,3 -2.39397,8.54666 -15.54199,34.83829 -23.50393,47 -8.41528,12.85417 -22.12547,26.71113 -31.19374,31.52772 -7.43245,3.94773 -17.93426,5.59634 -23.97505,3.76372 z m 21.42979,-10.67147 c 7.81533,-3.78333 20.89457,-16.51131 28.38844,-27.62599 6.54709,-9.71048 22.84844,-41.61429 22.84844,-44.71733 0,-3.07585 -0.79244,-3.31881 -15.87239,-4.8663 -19.54265,-2.00546 -30.05053,-5.07705 -52.5498,-15.36099 -4.26552,-1.94968 -8.94941,-3.35839 -10.40864,-3.13046 -1.84612,0.28837 -4.89748,4.67281 -10.03172,14.41443 -4.05822,7.7 -9.42433,16.50097 -11.92469,19.55773 -2.50035,3.05675 -4.54609,6.4321 -4.54609,7.50076 0,5.04631 17.21142,39.54127 23.66148,47.42212 9.4749,11.57667 17.0711,13.27536 30.43497,6.80603 z M 140.47329,140.6733 c 1.004,-1.59169 -0.69169,-7.6453 -6.70349,-23.93135 l -8.04748,-21.800696 -9.86116,0.07793 c -11.58789,0.09159 -16.62347,1.177464 -17.63055,3.80188 -0.92188,2.402386 12.99911,28.729386 18.74273,35.445736 8.02226,9.38091 19.62798,12.54483 23.49995,6.4065 z m 12.75416,-10.72466 C 159.46306,119.96384 168,102.75175 168,100.16436 c 0,-1.728996 -1.00775,-3.361526 -2.33334,-3.779985 -4.24326,-1.339504 -27.12217,-3.312546 -29.1937,-2.517622 -2.29212,0.879566 -1.56559,7.695557 1.45977,13.695087 0.93728,1.85868 3.06571,7.57941 4.72984,12.71274 4.33661,13.37703 6.82777,15.65814 10.56488,9.67406 z M 36.18604,112.20631 c 10.92854,-2.02768 19.17324,-4.46052 27.14729,-8.01059 17.93445,-7.984479 22,-10.140061 22,-11.664557 0,-2.846908 -9.11727,-17.19531 -14.3541,-22.589909 -4.03832,-4.159987 -5.76032,-4.998524 -10.24983,-4.991215 -9.94379,0.01619 -13.9318,4.164798 -24.84059,25.8409 -3.649,7.250665 -7.81675,14.843281 -9.26167,16.872491 -2.38607,3.35092 -3.4255,6.61115 -2.10777,6.61115 0.28566,0 5.53566,-0.93072 11.66667,-2.06827 z m 206.83178,1.27267 c 0.43757,-0.43758 -1.43277,-4.48758 -4.15635,-9 -2.72356,-4.512416 -7.31817,-12.92279 -10.21024,-18.689721 -2.89206,-5.76693 -7.52105,-12.81693 -10.28662,-15.666666 -4.46362,-4.599455 -5.746,-5.181339 -11.41886,-5.181339 -5.77021,0 -6.92221,0.55006 -11.86779,5.666667 -6.24894,6.46502 -13.74463,18.210088 -13.74463,21.536562 0,3.698966 28.84937,15.783527 46.66666,19.547967 13.04527,2.7562 13.94154,2.86282 15.01783,1.78653 z M 15.70939,109.64784 c 2.1527,-1.81137 7.97185,-11.063376 12.93147,-20.560009 10.54117,-20.184185 15.16667,-26.247522 22.59815,-29.622826 13.5936,-6.174075 23.68759,-0.318931 36.13091,20.958172 2.77,4.736489 5.6104,8.966572 6.312,9.400185 0.7016,0.433612 7.21019,-0.335195 14.46352,-1.70846 11.93072,-2.258827 13.18789,-2.775809 13.18789,-5.423224 0,-1.609508 -0.6,-3.297199 -1.33333,-3.750424 -0.73334,-0.453225 -1.33334,-1.724705 -1.33334,-2.825513 0,-2.626087 -13.60557,-34.589167 -19.79676,-46.50782 C 96.20338,24.474587 90.98283,17.124587 87.2687,13.274587 81.35614,7.14573 79.8614,6.276144 75.25787,6.287099 55.92776,6.333099 32.89928,38.682851 15.39483,90.381009 7.45288,113.83697 7.49731,116.55786 15.70939,109.64784 Z m 61.62394,93.29341 c 0,-1.11111 1.18518,-2 2.66667,-2 1.48148,0 2.66666,0.88889 2.66666,2 0,1.11111 -1.18518,2 -2.66666,2 -1.48149,0 -2.66667,-0.88889 -2.66667,-2 z m -9.92564,-0.54635 c -1.15062,-1.86174 0.65068,-5.45365 2.73496,-5.45365 1.09228,0 1.85735,1.37304 1.85735,3.33333 0,3.27523 -3.01749,4.66844 -4.59231,2.12032 z m -10.81283,-4.23649 c -1.26004,-2.03879 1.47453,-4.39832 3.98218,-3.43605 1.14929,0.44102 2.08962,1.72069 2.08962,2.84372 0,2.33024 -4.71352,2.79006 -6.0718,0.59233 z m 35.63019,-1.43188 c 0.24289,-1.71524 1.34161,-3.11861 2.44161,-3.11861 2.89164,0 2.49331,5.20181 -0.44161,5.76702 -1.89342,0.36464 -2.34246,-0.22998 -2,-2.64841 z M 47.2,195.07458 c -0.48809,-1.27192 -0.22742,-2.97257 0.57924,-3.77924 1.06667,-1.06666 1.70869,-0.83597 2.35409,0.84591 0.48808,1.27192 0.22742,2.97257 -0.57925,3.77924 -1.06666,1.06667 -1.70869,0.83597 -2.35408,-0.84591 z m 34.13333,-1.38797 c 0,-1.05672 0.53201,-2.25012 1.18226,-2.65199 1.4682,-0.9074 4.45639,2.4902 3.25061,3.69598 -1.58635,1.58636 -4.43287,0.91597 -4.43287,-1.04399 z m -10.21889,-2.83499 c -1.11128,-2.89594 1.70991,-5.61934 3.72927,-3.6 1.70671,1.70672 0.6494,5.68963 -1.51038,5.68963 -0.77936,0 -1.77787,-0.94033 -2.21889,-2.08963 z m 34.47272,-1.57704 c 0.24715,-1.28333 1.33292,-2.33333 2.41284,-2.33333 1.07991,0 2.16569,1.05 2.41284,2.33333 0.31528,1.63714 -0.40464,2.33334 -2.41284,2.33334 -2.0082,0 -2.72812,-0.6962 -2.41284,-2.33334 z m -45.13569,-2.41332 c -1.00109,-2.60881 0.20264,-3.79929 2.82436,-2.79324 2.63755,1.01212 2.64106,3.03066 0.007,4.04143 -1.18075,0.45309 -2.38171,-0.0763 -2.83139,-1.24819 z m 34.21519,-1.25334 c 0,-1.11111 1.18519,-2 2.66667,-2 1.48148,0 2.66666,0.88889 2.66666,2 0,1.1111 -1.18518,2 -2.66666,2 -1.48148,0 -2.66667,-0.8889 -2.66667,-2 z m -44.78411,-1.1586 c -1.00075,-2.60791 0.36274,-4.8414 2.95554,-4.8414 1.30902,0 1.8649,1.0136 1.58797,2.89556 -0.51736,3.51602 -3.45775,4.77529 -4.54351,1.94584 z m 34.36832,-1.8261 c 0.66935,-3.47564 5.08246,-3.86326 5.08246,-0.4464 0,1.90812 -0.8563,2.76443 -2.76443,2.76443 -1.90814,0 -2.62616,-0.71803 -2.31803,-2.31803 z m -44.70689,-1.24909 c -0.48252,-0.48253 -0.87732,-1.67732 -0.87732,-2.65511 0,-1.98626 3.43716,-2.43384 4.5733,-0.59552 0.9074,1.4682 -2.4902,4.4564 -3.69598,3.25063 z m 35.11154,-0.44019 c -1.7358,-1.07313 -1.6982,-1.52032 0.29548,-3.51453 2.15713,-2.15769 2.33406,-2.15539 3.17705,0.0415 1.16039,3.02394 -0.88695,5.07164 -3.47253,3.47312 z m 35.21643,-0.51226 c -1.2127,-3.16023 1.55111,-5.92403 3.73757,-3.73758 1.25714,1.25715 1.12191,2.09714 -0.61767,3.83672 -2.08071,2.08072 -2.28592,2.07419 -3.1199,-0.0992 z m -46.57472,-3.53883 c -1.06397,-1.72155 1.89669,-5.51847 3.52051,-4.51489 0.65024,0.40186 1.18226,1.89526 1.18226,3.31865 0,2.73268 -3.24331,3.55768 -4.70277,1.19624 z M 98,176.94125 c -1.08805,-1.76049 0.36914,-4 2.6027,-4 1.95025,0 3.68896,3.26389 2.41654,4.53631 -1.24334,1.24334 -4.10857,0.93718 -5.01924,-0.53631 z m -44.55762,-3.20193 c -1.70129,-2.04994 -0.56615,-3.46474 2.77984,-3.46474 2.88117,0 3.29433,3.38856 0.54193,4.44476 -1.04639,0.40154 -2.54118,-0.0395 -3.32177,-0.98002 z m 34.81144,-1.79807 c 0.24715,-1.28333 1.33293,-2.33333 2.41284,-2.33333 1.07992,0 2.16569,1.05 2.41284,2.33333 0.31528,1.63713 -0.40464,2.33333 -2.41284,2.33333 -2.0082,0 -2.72812,-0.6962 -2.41284,-2.33333 z m 34.66667,0 c 0.24715,-1.28333 1.33293,-2.33333 2.41284,-2.33333 1.07991,0 2.16569,1.05 2.41284,2.33333 0.31528,1.63713 -0.40464,2.33333 -2.41284,2.33333 -2.0082,0 -2.72812,-0.6962 -2.41284,-2.33333 z m -80.75536,-2.3838 c -0.45597,-1.18823 0.0824,-2.38404 1.2803,-2.84372 2.48982,-0.95543 5.2143,1.41469 3.9597,3.44468 -1.30837,2.11699 -4.33001,1.77044 -5.24,-0.60096 z m 35.18129,0.0663 c -1.33714,-1.61116 -1.22565,-2.14582 0.59303,-2.84371 2.62701,-1.00808 5.42805,1.28193 4.13235,3.37843 -1.2304,1.99081 -2.77437,1.81609 -4.72538,-0.53472 z m 36.32024,1.02649 c -2.68979,-0.96485 -1.9103,-4.37563 1,-4.37563 1.46667,0 2.66667,0.86459 2.66667,1.92131 0,2.31897 -1.41102,3.26344 -3.66667,2.45432 z m -81.0718,-4.4918 c -1.37403,-2.22323 1.71628,-4.77268 3.55563,-2.93333 1.53856,1.53856 0.57563,4.38284 -1.48383,4.38284 -0.64677,0 -1.57908,-0.65228 -2.0718,-1.44951 z m 34.98847,0.5884 c -1.88735,-1.88736 -0.81938,-4.47223 1.84776,-4.47223 1.86395,0 2.62401,0.72407 2.33334,2.22284 -0.47593,2.45398 -2.752,3.67848 -4.1811,2.24939 z m 34.66667,0 c -1.88736,-1.88736 -0.81938,-4.47223 1.84776,-4.47223 1.86395,0 2.62401,0.72407 2.33334,2.22284 -0.47593,2.45398 -2.75201,3.67848 -4.1811,2.24939 z m -45.80223,-3.89519 c -1.05084,-2.73845 1.0583,-4.78504 3.42433,-3.32274 2.01503,1.24536 1.08696,5.41237 -1.20544,5.41237 -0.77936,0 -1.77786,-0.94033 -2.21889,-2.08963 z m 35.49314,0.0184 c -1.20409,-1.45081 -1.28145,-2.4549 -0.26725,-3.4691 1.70886,-1.70886 4.32634,-0.3736 4.32634,2.207 0,2.84934 -2.17941,3.52701 -4.05909,1.26214 z M 22,162.27461 c -0.53221,-0.86113 -0.36765,-2.16568 0.36568,-2.89901 0.88889,-0.88889 1.65588,-0.81144 2.30098,0.23235 0.53221,0.86113 0.36765,2.16568 -0.36568,2.89901 C 23.41209,163.39585 22.6451,163.3184 22,162.27461 Z m 104.16513,-0.71716 c -0.45597,-1.18823 0.0824,-2.38404 1.2803,-2.84372 2.48982,-0.95543 5.2143,1.41469 3.9597,3.44468 -1.30837,2.11699 -4.33001,1.77044 -5.24,-0.60096 z m -79.25787,-3.6162 c 0.23434,-1.65 1.02607,-3 1.7594,-3 0.73334,0 1.52507,1.35 1.7594,3 0.29317,2.06423 -0.25563,3 -1.7594,3 -1.50376,0 -2.05256,-0.93577 -1.7594,-3 z m 33.6876,1.55049 c -1.37403,-2.22322 1.71628,-4.77268 3.55563,-2.93333 1.53856,1.53856 0.57562,4.38284 -1.48383,4.38284 -0.64677,0 -1.57908,-0.65228 -2.0718,-1.44951 z m 34.09222,-0.88382 c 0.0112,-0.55 0.58625,-1.89499 1.27781,-2.98886 0.95045,-1.50334 1.63317,-1.61308 2.79674,-0.4495 0.84664,0.84664 1.13622,2.19161 0.6435,2.98885 -1.00942,1.63327 -4.74949,1.9896 -4.71805,0.44951 z M 36.1279,157.02029 c -2.01504,-1.24536 -1.08697,-5.41237 1.20543,-5.41237 1.95221,0 3.28789,3.9121 1.83256,5.36744 -0.66866,0.66866 -1.99699,0.68832 -3.03799,0.0449 z m 69.54457,-0.27324 c -1.78438,-1.78437 -0.70019,-5.13913 1.66086,-5.13913 2.46175,0 3.47837,3.5531 1.48902,5.20412 -1.18111,0.98024 -2.12412,0.96078 -3.14988,-0.0649 z m -34.43127,-1.2882 c -1.00513,-1.62633 1.98941,-4.0718 3.69513,-3.0176 0.58502,0.36156 1.06367,1.52197 1.06367,2.57869 0,2.26256 -3.43587,2.57946 -4.7588,0.43891 z M 24.64049,152.8989 c -0.51781,-0.83784 -0.31408,-2.15073 0.45273,-2.91753 1.79186,-1.79187 5.96951,-0.22892 5.2405,1.96059 -0.74214,2.2289 -4.51516,2.86309 -5.69323,0.95694 z m 35.85755,-0.58294 c -1.16456,-3.0348 0.72275,-5.12796 2.95399,-3.27619 2.43667,2.02225 2.38282,3.42372 -0.16917,4.40301 -1.15024,0.44139 -2.37288,-0.0533 -2.78482,-1.12682 z m 33.49614,-0.71746 c -1.0063,-1.62821 2.65169,-3.2395 4.60863,-2.03005 0.76845,0.47493 1.39718,1.42811 1.39718,2.11816 0,1.68152 -4.95707,1.6088 -6.00581,-0.0881 z m -44.64776,-3.30814 c -1.33714,-1.61116 -1.22565,-2.14582 0.59303,-2.84371 2.62702,-1.00808 5.42805,1.28193 4.13235,3.37843 -1.23039,1.99081 -2.77437,1.81609 -4.72538,-0.53472 z m 35.57024,1.12312 c -1.88735,-1.88736 -0.81937,-4.47223 1.84777,-4.47223 1.86395,0 2.624,0.72407 2.33333,2.22284 -0.47592,2.45397 -2.752,3.67848 -4.1811,2.24939 z m -70.25,-1.80556 c 0,-0.73334 0.86459,-1.33334 1.92131,-1.33334 1.05673,0 2.29214,0.6 2.74536,1.33334 0.45323,0.73333 -0.41136,1.33333 -1.92131,1.33333 -1.50995,0 -2.74536,-0.6 -2.74536,-1.33333 z m 24,-4 c 0,-2.0082 0.6962,-2.72812 2.33334,-2.41284 1.28333,0.24714 2.33333,1.33292 2.33333,2.41284 0,1.07992 -1.05,2.16569 -2.33333,2.41284 -1.63714,0.31528 -2.33334,-0.40464 -2.33334,-2.41284 z m 35.26153,1.21716 c -1.37402,-2.22323 1.71628,-4.77268 3.55563,-2.93334 1.53856,1.53856 0.57563,4.38284 -1.48382,4.38284 -0.64678,0 -1.57909,-0.65228 -2.07181,-1.4495 z m -45.29762,-2.6089 c -1.24955,-2.0218 2.13726,-5.7071 3.75663,-4.08773 1.49534,1.49535 0.33198,5.47947 -1.6,5.47947 -0.71307,0 -1.68356,-0.62628 -2.15663,-1.39174 z m 34.46662,-0.74282 c -0.94328,-2.45815 2.28128,-5.0203 4.0687,-3.23288 1.45533,1.45533 0.11965,5.36744 -1.83256,5.36744 -0.77936,0 -1.78563,-0.96056 -2.23614,-2.13456 z m 34.48997,-1.53211 c 0.24714,-1.28333 1.33292,-2.33333 2.41283,-2.33333 1.07992,0 2.1657,1.05 2.41285,2.33333 0.31528,1.63713 -0.40464,2.33333 -2.41285,2.33333 -2.00819,0 -2.72812,-0.6962 -2.41283,-2.33333 z m -80,-2.66667 c 0.24715,-1.28333 1.33292,-2.33333 2.41284,-2.33333 1.07991,0 2.16569,1.05 2.41284,2.33333 0.31528,1.63714 -0.40464,2.33334 -2.41284,2.33334 -2.0082,0 -2.72812,-0.6962 -2.41284,-2.33334 z m 35.0077,0.88383 c -1.37403,-2.22323 1.71628,-4.77268 3.55563,-2.93333 1.53856,1.53856 0.57562,4.38284 -1.48383,4.38284 -0.64677,0 -1.57908,-0.65228 -2.0718,-1.44951 z m 35.6407,-0.62092 c 0.60303,-2.89615 2.96936,-3.07336 3.51061,-0.26291 0.28107,1.45947 -0.3729,2.33334 -1.74617,2.33334 -1.28097,0 -2.01596,-0.86246 -1.76444,-2.07043 z M 41.84,135.0051 c -0.94962,-2.47468 0.43585,-4.73052 2.90535,-4.73052 1.16051,0 1.92131,1.31994 1.92131,3.33334 0,3.66361 -3.56135,4.69452 -4.82666,1.39718 z m 35.72067,0.21008 c -1.70786,-2.05785 0.18533,-5.66698 2.29025,-4.36606 1.77476,1.09686 1.95557,4.30898 0.30015,5.33209 -0.65024,0.40188 -1.81592,-0.0328 -2.5904,-0.96603 z M 9.33333,133.60792 c 0,-1.1 0.6,-2 1.33333,-2 0.73334,0 1.33334,0.9 1.33334,2 0,1.1 -0.6,2 -1.33334,2 -0.73333,0 -1.33333,-0.9 -1.33333,-2 z m 22.67781,-1.96616 c -1.41774,-0.89543 -1.57748,-1.6675 -0.55629,-2.6887 1.70761,-1.70761 6.19541,-0.29593 5.51817,1.7358 -0.6759,2.02767 -2.65761,2.40826 -4.96188,0.9529 z m 34.66862,-0.68474 c -1.33715,-1.61116 -1.22565,-2.14581 0.59303,-2.8437 2.62701,-1.00808 5.42805,1.28192 4.13234,3.37842 -1.23039,1.99082 -2.77437,1.8161 -4.72537,-0.53472 z m -11.37261,-3.39146 c -0.5178,-0.83783 -0.31408,-2.15072 0.45273,-2.91753 1.79187,-1.79187 5.96952,-0.22891 5.24051,1.96059 -0.74214,2.22891 -4.51517,2.8631 -5.69324,0.95694 z m 35.37261,-0.60853 c -1.33095,-1.60369 -1.24665,-2.13776 0.43955,-2.78482 2.6088,-1.00109 4.88069,0.32448 4.88069,2.84773 0,2.50618 -3.21968,2.46811 -5.32024,-0.0629 z m -10.0131,-3.34911 c -1.11605,-1.80582 0.3899,-4 2.74536,-4 1.05672,0 1.92131,1.2 1.92131,2.66666 0,2.76041 -3.21668,3.67946 -4.66667,1.33334 z m -10.9028,-3.4679 c -0.94328,-2.45815 2.28128,-5.02029 4.0687,-3.23287 1.45533,1.45532 0.11964,5.36743 -1.83256,5.36743 -0.77937,0 -1.78563,-0.96055 -2.23614,-2.13456 z m 13.81649,-6.36916 c -0.41535,-1.08239 0.15489,-2.72326 1.26719,-3.64639 1.64016,-1.36121 2.25105,-1.31664 3.2324,0.23585 0.66552,1.05284 1.02007,2.51426 0.78789,3.2476 -0.6886,2.17492 -4.47068,2.29147 -5.28748,0.16294 z M 251.58333,98.746814 c -1.83179,-1.831795 -0.88166,-4.661015 1.41666,-4.218399 1.28334,0.247147 2.33334,1.291142 2.33334,2.319988 0,2.105141 -2.35239,3.296017 -3.75,1.898411 z m -7.57024,-14.456449 c -1.33715,-1.611164 -1.22566,-2.145816 0.59302,-2.84371 2.62702,-1.00808 5.42806,1.281926 4.13235,3.378423 -1.23039,1.990815 -2.77437,1.816101 -4.72537,-0.534713 z m -80.75156,-3.465287 c -0.49272,-0.797231 -0.25356,-2.091801 0.53147,-2.876825 1.66386,-1.663868 5.9923,1.183012 4.78029,3.144077 -1.01484,1.642056 -4.23177,1.480201 -5.31176,-0.267252 z m -10.831,-3.351724 c -0.94328,-2.458147 2.28128,-5.020288 4.06869,-3.232869 1.45534,1.455326 0.11966,5.367436 -1.83256,5.367436 -0.77936,0 -1.78562,-0.960555 -2.23613,-2.134567 z m -9.76387,-3.767668 c 0,-1.236847 1.14,-2.097765 2.77778,-2.097765 3.2494,0 2.79009,3.115697 -0.55494,3.764432 -1.31568,0.255164 -2.22284,-0.425015 -2.22284,-1.666667 z M 132,70.353277 c 0,-1.423388 0.53201,-2.916782 1.18225,-3.318654 1.62383,-1.003573 4.58448,2.793346 3.52051,4.514891 C 135.2433,73.910961 132,73.085962 132,70.353277 Z m 104.54921,0.762704 c -1.00075,-2.607899 0.36274,-4.841394 2.95554,-4.841394 1.30902,0 1.8649,1.0136 1.58798,2.895563 -0.51736,3.516024 -3.45775,4.775289 -4.54352,1.945831 z m -70.29075,-0.3607 c -1.24432,-1.244324 0.25936,-3.14736 2.4869,-3.14736 1.05672,0 1.9213,0.9 1.9213,2 0,2.008306 -2.81465,2.740901 -4.4082,1.14736 z M 156,66.176822 c 0,-3.416857 4.4131,-3.029239 5.08245,0.446411 0.30813,1.6 -0.40989,2.318021 -2.31803,2.318021 -1.90812,0 -2.76442,-0.8563 -2.76442,-2.764432 z M 144.57453,63.45885 c -1.00117,-1.619935 1.95193,-4.063044 4.09213,-3.385433 0.73334,0.232181 1.52734,1.422428 1.76443,2.644992 0.49517,2.553166 -4.35709,3.166633 -5.85656,0.740441 z m 36.02033,0.03289 c -1.16357,-1.882696 1.40627,-4.452528 3.28896,-3.288958 2.1147,1.306954 1.77303,4.738469 -0.4718,4.738469 -1.05672,0 -2.32444,-0.65228 -2.81716,-1.449509 z m -45.48042,-3.30678 c -1.11128,-2.895949 1.70992,-5.619353 3.72926,-3.6 1.70672,1.706712 0.6494,5.689624 -1.51037,5.689624 -0.77936,0 -1.77787,-0.94033 -2.21889,-2.089622 z m 34.47272,-1.577042 c 0.24714,-1.283334 1.33292,-2.333334 2.41284,-2.333334 1.07992,0 2.16569,1.05 2.41284,2.333334 0.31528,1.637135 -0.40464,2.333336 -2.41284,2.333336 -2.0082,0 -2.72812,-0.696201 -2.41284,-2.333333 z m -8.69827,-1.222223 c -1.62391,-1.623902 -0.91877,-4.444441 1.11111,-4.444441 1.1111,0 2,1.185185 2,2.666667 0,2.656324 -1.42072,3.468165 -3.11111,1.777777 z m 69.36508,0.03175 c -0.50636,-0.50635 -0.92064,-2.020635 -0.92064,-3.36508 0,-2.659592 3.28858,-3.34088 4.74574,-0.983163 1.05534,1.707581 -2.46452,5.708832 -3.8251,4.348243 z m -81.32129,-3.597103 c -0.37728,-0.983168 -0.16646,-2.628152 0.46849,-3.655521 1.55589,-2.517491 4.60952,0.421412 3.48439,3.353477 -0.98255,2.560464 -3.02632,2.716631 -3.95288,0.302044 z m 34.63517,-1.4154 c -0.83677,-2.18058 0.14653,-3.463688 2.65437,-3.463688 0.97778,0 1.77778,1.2 1.77778,2.666667 0,3.031786 -3.34384,3.6331 -4.43215,0.797021 z m 35.76548,0.536312 c -0.97227,-1.573165 0.28889,-4 2.07869,-4 0.69005,0 1.25464,1.2 1.25464,2.666667 0,2.812113 -1.93984,3.588049 -3.33333,1.333333 z m -80.66667,-3.902235 c 0,-1.908132 0.85631,-2.764432 2.76443,-2.764432 1.90813,0 2.62616,0.718022 2.31803,2.318022 -0.66935,3.475649 -5.08246,3.863268 -5.08246,0.44641 z m 34.89172,-0.31248 c 0.2429,-1.71524 1.34162,-3.118618 2.44162,-3.118618 2.89164,0 2.4933,5.201812 -0.44162,5.767025 -1.89341,0.364639 -2.34245,-0.229984 -2,-2.648407 z m 34.88939,0.791759 c -1.18422,-3.086016 1.43624,-5.126647 3.45685,-2.69196 1.70816,2.058197 0.93441,4.781583 -1.35849,4.781583 -0.71307,0 -1.65734,-0.940331 -2.09836,-2.089623 z m -45.18624,-3.359887 c -0.49272,-0.79723 -0.2804,-2.064952 0.4718,-2.817157 C 165.4155,41.659081 168,43.079758 168,45.68661 c 0,2.244827 -3.43152,2.586496 -4.73847,0.471801 z M 198,46.274587 c -1.11606,-1.805813 0.3899,-4 2.74535,-4 1.05672,0 1.92131,1.2 1.92131,2.666667 0,2.760408 -3.21668,3.67946 -4.66666,1.333333 z m 34.88889,0.444444 c -1.53419,-1.534177 -0.97099,-3.11111 1.1111,-3.11111 1.1,0 2,0.9 2,2 0,2.082098 -1.57693,2.645289 -3.1111,1.11111 z m -80.44975,-3.889878 c -0.95542,-2.489815 1.4147,-5.214299 3.44468,-3.9597 2.11699,1.308373 1.77044,4.330009 -0.60096,5.240004 -1.18822,0.455962 -2.38404,-0.08243 -2.84372,-1.280304 z m 34.48135,-1.554566 c 0.24715,-1.283333 1.33292,-2.333333 2.41284,-2.333333 1.07992,0 2.16569,1.05 2.41284,2.333333 0.31528,1.637132 -0.40464,2.333334 -2.41284,2.333334 -2.0082,0 -2.72812,-0.696202 -2.41284,-2.333334 z m 35.0077,0.883824 c -1.16357,-1.882696 1.40627,-4.452528 3.28896,-3.288958 2.1147,1.306953 1.77303,4.738468 -0.4718,4.738468 -1.05672,0 -2.32444,-0.65228 -2.81716,-1.44951 z M 143,39.984446 c -2.26248,-0.812791 -2.11043,-3.920933 0.23585,-4.821285 2.71771,-1.042882 5.30567,2.355321 3.11392,4.088825 -0.92571,0.732164 -2.43311,1.061771 -3.34977,0.73246 z m 34.66666,0 c -2.26248,-0.812791 -2.11042,-3.920933 0.23586,-4.821285 2.7177,-1.042882 5.30566,2.355321 3.11392,4.088825 -0.92571,0.732164 -2.43311,1.061771 -3.34978,0.73246 z m 33.76416,-1.269925 c -0.96856,-2.524039 1.92153,-4.954235 3.73507,-3.140703 1.38362,1.38362 0.1604,5.367436 -1.64807,5.367436 -0.67788,0 -1.61704,-1.002031 -2.087,-2.226733 z m -45.38733,-3.036219 c -1.17232,-1.896852 0.32265,-4.070381 2.79963,-4.070381 1.1682,0 1.8374,0.936748 1.58797,2.222845 -0.51936,2.677952 -3.18155,3.798953 -4.3876,1.847536 z m 35.30293,-0.721271 c -1.33715,-1.611164 -1.22565,-2.145816 0.59303,-2.843709 2.62701,-1.00808 5.42805,1.281925 4.13234,3.378423 -1.23038,1.990814 -2.77437,1.816101 -4.72537,-0.534714 z M 156.2406,31.274587 c 0.23433,-1.65 1.02606,-3 1.7594,-3 0.73333,0 1.52506,1.35 1.7594,3 0.29317,2.064224 -0.25564,3 -1.7594,3 -1.50376,0 -2.05258,-0.935776 -1.7594,-3 z m 34.42606,-1 c 0,-1.481481 0.8889,-2.666666 2,-2.666666 1.11111,0 2,1.185185 2,2.666666 0,1.481482 -0.88889,2.666667 -2,2.666667 -1.1111,0 -2,-1.185185 -2,-2.666667 z m -10.0718,-1.449509 c -1.37402,-2.223225 1.71628,-4.77268 3.55563,-2.933333 1.53856,1.538565 0.57563,4.382842 -1.48383,4.382842 -0.64677,0 -1.57908,-0.65228 -2.0718,-1.449509 z m 34.70237,0.05777 c -1.24954,-2.0218 2.13726,-5.707097 3.75663,-4.087725 1.49535,1.495345 0.33199,5.479465 -1.6,5.479465 -0.71307,0 -1.68355,-0.626282 -2.15663,-1.39174 z m -45.71007,-4.941594 c 0.24714,-1.283333 1.33292,-2.333333 2.41284,-2.333333 1.07992,0 2.16569,1.05 2.41284,2.333333 0.31528,1.637132 -0.40464,2.333333 -2.41284,2.333333 -2.0082,0 -2.72812,-0.696201 -2.41284,-2.333333 z m 35.0795,1 c -1.43581,-2.323193 0.69239,-4.305176 2.77069,-2.580335 1.02664,0.852034 1.53782,2.08117 1.13594,2.731411 -0.97264,1.57376 -2.88636,1.499753 -3.90663,-0.151076 z M 193.7811,21.518298 c -1.11128,-2.895949 1.70992,-5.619353 3.72927,-3.6 1.70672,1.706711 0.6494,5.689623 -1.51037,5.689623 -0.77936,0 -1.77787,-0.940331 -2.2189,-2.089623 z m -34.22554,-0.1326 c -1.69039,-1.690388 -0.87855,-3.111111 1.77777,-3.111111 1.48148,0 2.66667,0.88889 2.66667,2 0,2.029882 -2.82054,2.735016 -4.44444,1.111111 z m 23.56258,-3.85776 c -1.0011,-2.608815 0.20264,-3.799295 2.82435,-2.793248 2.63756,1.012123 2.64107,3.030661 0.007,4.041433 -1.18075,0.453095 -2.38171,-0.07633 -2.83139,-1.248185 z m -9.671,-3.040696 c -1.46048,-2.728925 -0.71788,-4.212655 2.10842,-4.212655 2.02453,0 2.4339,4.770439 0.51133,5.958655 -0.69653,0.430485 -1.87543,-0.355215 -2.61975,-1.746 z m 34.55285,-1.657099 c 0,-3.249393 3.1157,-2.790093 3.76443,0.554932 0.25517,1.315686 -0.42501,2.222846 -1.66667,2.222846 -1.23684,0 -2.09776,-1.139995 -2.09776,-2.777778 z M 197.7811,10.851631 c -1.11128,-2.895949 1.70992,-5.619353 3.72927,-3.6 1.70672,1.706712 0.6494,5.689623 -1.51038,5.689623 -0.77935,0 -1.77786,-0.940331 -2.21889,-2.089623 z M 186.07436,7.728243 c -1.12408,-1.818812 0.70086,-5.638716 2.42325,-5.072238 2.38729,0.785163 2.68524,6.285249 0.34048,6.285249 -1.10773,0 -2.3514,-0.545855 -2.76373,-1.213011 z"
     id="path183"
     inkscape:connector-curvature="0" />
</svg>
