<?xml version="1.0" encoding="UTF-8" standalone="no"?>
<!-- Created with Inkscape (http://www.inkscape.org/) -->

<svg
   xmlns:dc="http://purl.org/dc/elements/1.1/"
   xmlns:cc="http://creativecommons.org/ns#"
   xmlns:rdf="http://www.w3.org/1999/02/22-rdf-syntax-ns#"
   xmlns:svg="http://www.w3.org/2000/svg"
   xmlns="http://www.w3.org/2000/svg"
   xmlns:sodipodi="http://sodipodi.sourceforge.net/DTD/sodipodi-0.dtd"
   xmlns:inkscape="http://www.inkscape.org/namespaces/inkscape"
   version="1.1"
   id="svg131"
   width="261.33334"
   height="296"
   viewBox="0 0 261.33335 296"
   sodipodi:docname="choose-icon-8.svg"
   inkscape:version="0.92.4 (unknown)">

  <path
     style="stroke-width:1.33333337"
     d="m 67.99999,294.18376 c 0,-0.99893 -5.08592,-6.69893 -11.30205,-12.66667 C 44.50921,269.81543 43.2797,269.34347 31.59042,271.87956 12.32284,276.05981 8.32803,276.34453 4.08782,273.83979 1.08318,272.06491 0,270.44131 0,267.71252 0,265.39368 0.71103,264 1.89406,264 c 1.04173,0 2.28321,-1.77183 2.75885,-3.93739 0.47564,-2.16556 1.94077,-5.31556 3.25586,-7 1.31508,-1.68444 2.85614,-4.56261 3.42456,-6.39594 0.56842,-1.83334 2.18487,-4.80736 3.59211,-6.60896 C 17.63776,236.58532 17.30696,231.78451 14.0946,228 13.1609,226.9 10.37184,221.95 7.8967,217 5.42155,212.05 2.63223,208 1.69821,208 0.55465,208 0,205.87339 0,201.48877 c 0,-6.0329 0.26935,-6.56618 3.66666,-7.25937 2.01667,-0.41147 11.65488,0.25017 21.41826,1.47032 l 17.75159,2.21844 13.01141,-13.62575 c 7.15627,-7.49416 14.01806,-13.62574 15.24841,-13.62574 4.88316,0 7.14794,4.72557 10.29301,21.47689 1.70623,9.08771 3.73576,17.35825 4.51007,18.37899 0.77431,1.02074 8.1778,5.07344 16.4522,9.006 23.36649,11.10536 23.33725,15.33677 -0.18697,27.05609 -7.72397,3.84793 -14.78449,7.88899 -15.69005,8.98012 -0.90555,1.09113 -2.39503,8.92 -3.30994,17.39748 C 80.95192,293.46519 79.85239,296 73.17157,296 c -3.47552,0 -5.17158,-0.59565 -5.17158,-1.81624 z m 1.9008,-26.51709 c 0.34005,-1.65 0.86013,-6.1159 1.15573,-9.92422 0.7277,-9.37512 3.51843,-13.06462 13.6676,-18.06941 5.42221,-2.67381 8.60921,-5.06388 8.60921,-6.45643 0,-1.42554 -3.48799,-3.91185 -9.81811,-6.99856 C 72.92205,221.0526 71.56571,219.22647 69.98392,208 c -1.88308,-13.3648 -3.49189,-13.71588 -14.21709,-3.1026 -8.38579,8.29829 -9.61215,8.63205 -24.10017,6.559 C 24.07571,210.37024 24,210.39251 24,213.71097 c 0,1.84336 1.8,6.77343 4,10.9557 2.2,4.18226 4,8.68226 4,10 0,1.31773 -1.8,5.81773 -4,10 -4.16847,7.92438 -4.95482,11.91917 -2.62915,13.35652 0.75396,0.46597 5.29577,-0.13711 10.0929,-1.34018 4.79714,-1.20308 10.375,-1.82437 12.39526,-1.38064 2.02026,0.44372 6.90795,4.08222 10.86154,8.08554 7.84652,7.94521 10.23615,8.85973 11.18024,4.27876 z m 140.99664,17.94792 c -1.96026,-2.04531 -5.79526,-7.4119 -8.52222,-11.92576 -5.67755,-9.39787 -9.09465,-11.00204 -23.46287,-11.01472 -10.59337,-0.009 -13.57901,-1.51167 -13.57901,-6.83267 0,-3.00451 2.08668,-6.58741 8,-13.73625 8.53372,-10.31675 9.36628,-13.16103 6.13008,-20.94236 -1.02847,-2.47288 -2.28279,-7.82762 -2.78739,-11.89939 -1.46856,-11.85025 2.98762,-13.65091 18.04256,-7.29063 13.76973,5.81731 14.27819,5.78118 26.01823,-1.84917 11.11125,-7.22168 15.02777,-8.16857 18.68006,-4.51628 1.93683,1.93683 2.16938,4.17319 1.56827,15.08203 -0.38817,7.0444 -0.18324,13.74169 0.4554,14.88288 0.63864,1.14118 5.37577,5.48013 10.52697,9.6421 8.29974,6.70588 9.36582,8.08655 9.36582,12.12952 0,5.44695 -0.89502,6.0198 -15.56815,9.96442 -5.99581,1.61186 -11.76851,3.92689 -12.82819,5.1445 -1.05969,1.21763 -3.88992,7.18872 -6.28941,13.26911 -5.66099,14.34515 -9.29513,16.62776 -15.75015,9.89267 z m 6.16923,-24.54792 c 0.88,-0.88 1.6,-2.59908 1.6,-3.82019 0,-3.83935 5.08876,-8.90383 9.84263,-9.79565 5.98414,-1.12263 8.16085,-3.70731 6.20298,-7.3656 -0.81002,-1.51354 -2.06048,-2.7519 -2.77878,-2.7519 -2.32507,0 -6.67278,-8.55218 -6.4394,-12.66666 0.5366,-9.46031 -1.25091,-10.8573 -7.95494,-6.21698 -5.70057,3.94578 -7.97334,4.2884 -13.57606,2.04664 -7.99944,-3.20074 -9.11653,-2.1676 -8.36812,7.73926 0.56813,7.52058 0.26705,8.92346 -2.78801,12.99045 -4.15516,5.53147 -3.06004,7.49292 4.93646,8.84168 4.28887,0.7234 6.80951,2.29931 10.82993,6.77089 5.72926,6.37218 6.14315,6.57822 8.49331,4.22806 z M 112.87331,176.22835 c -1.21365,-1.34108 -2.20665,-3.4757 -2.20665,-4.7436 0,-1.26791 -1.13646,-8.12067 -2.52548,-15.22835 -1.38902,-7.10769 -3.19614,-17.67017 -4.01583,-23.47219 -0.81969,-5.80202 -2.0874,-11.26852 -2.81713,-12.14779 -0.72973,-0.87927 -6.81086,-4.23217 -13.51362,-7.45088 C 57.64255,98.706308 51.35295,95.245584 50.89815,92.884004 49.63405,86.320069 51.5059,84.718449 73.62867,73.434924 85.56623,67.346275 96.58121,61.223951 98.1064,59.829759 c 3.07259,-2.80868 4.82648,-10.662234 7.88217,-35.294688 C 108.56292,3.7827315 110.00141,0 115.3187,0 c 3.52319,0 6.92871,2.8123841 23.63411,19.517787 l 19.51779,19.517785 5.7647,-0.759925 c 10.36764,-1.366706 22.8679,-3.626922 36.02171,-6.513223 12.18393,-2.673484 13.11884,-2.707925 16.33333,-0.601709 2.12049,1.389404 3.40965,3.468298 3.40965,5.498405 0,1.795371 -5.44385,14.088159 -12.09745,27.317307 l -12.09744,24.052997 6.93296,13.651956 c 3.81313,7.50857 7.54612,14.42083 8.29552,15.36056 2.55756,3.20713 10.29975,19.46627 10.29975,21.63019 0,1.18711 -1.2786,3.53079 -2.84134,5.20819 -2.24238,2.40692 -3.71797,2.87391 -7,2.21536 -2.28726,-0.45895 -10.45866,-1.72745 -18.15866,-2.81889 -7.7,-1.09144 -16.55861,-2.57522 -19.6858,-3.29728 -13.02139,-3.00662 -9.98333,-5.0996 -44.05991,30.35382 -8.57808,8.92468 -12.66729,10.36691 -16.71431,5.89502 z m 24.18681,-35.03174 c 5.65026,-5.94186 10.75304,-11.64188 11.33948,-12.6667 0.58645,-1.02481 2.84865,-2.78501 5.02712,-3.91153 3.57849,-1.85052 5.40614,-1.83158 18.93372,0.1962 21.52777,3.22701 26.30622,3.62128 26.30622,2.17054 0,-1.49626 -8.88089,-18.84983 -13.12758,-25.65179 -1.60247,-2.566663 -3.57623,-6.839706 -4.38614,-9.495647 -1.37121,-4.496607 -1.02565,-5.723295 5.02058,-17.822124 3.57122,-7.146228 7.51433,-14.873186 8.76244,-17.171016 4.69652,-8.646538 2.56386,-9.63266 -13.43716,-6.213235 -6.5261,1.394627 -15.54298,2.951729 -20.03752,3.460229 L 153.2894,55.01608 138.72786,40.666809 c -8.98008,-8.849182 -15.27845,-14.074166 -16.43191,-13.631544 -1.32053,0.506736 -2.50698,6.093158 -4.03593,19.003191 -1.24651,10.525187 -3.01285,19.578573 -4.162,21.332408 -1.09804,1.67582 -8.7693,6.468972 -17.04723,10.651449 -8.27794,4.182478 -15.88284,8.391946 -16.89979,9.354374 -2.53321,2.397408 -0.96982,5.714684 3.48149,7.38721 9.67202,3.63414 28.66563,13.861153 30.81302,16.591123 1.63264,2.07557 3.1643,8.5491 4.77551,20.18362 2.25523,16.28496 3.54842,20.46136 6.3357,20.46136 0.6766,0 5.85314,-4.86152 11.5034,-10.80339 z"
     id="path141"
     inkscape:connector-curvature="0" />
</svg>
