<?xml version="1.0" encoding="UTF-8" standalone="no"?>
<!-- Created with Inkscape (http://www.inkscape.org/) -->

<svg
   xmlns:dc="http://purl.org/dc/elements/1.1/"
   xmlns:cc="http://creativecommons.org/ns#"
   xmlns:rdf="http://www.w3.org/1999/02/22-rdf-syntax-ns#"
   xmlns:svg="http://www.w3.org/2000/svg"
   xmlns="http://www.w3.org/2000/svg"
   xmlns:sodipodi="http://sodipodi.sourceforge.net/DTD/sodipodi-0.dtd"
   xmlns:inkscape="http://www.inkscape.org/namespaces/inkscape"
   version="1.1"
   id="svg71"
   width="266.66663"
   height="408"
   viewBox="0 0 266.66663 408"
   sodipodi:docname="contact-icon-2.svg"
   inkscape:version="0.92.4 (unknown)">
  <path
     style="stroke-width:1.33333337"
     d="m 26.62028,404.33333 c -0.0638,-5.04066 -16.68662,-19 -22.6253,-19 H 0 v -182 -181.999997 h 4.1182 c 2.97581,0 6.02087,-1.664408 10.9771,-6 3.7724,-3.3 7.31921,-5.9999997 7.8818,-5.9999997 0.5626,0 1.0229,-2.1 1.0229,-4.6666666 V 0 h 110 109.99999 l 0.0773,4.3333333 c 0.0643,3.5999524 1.36176,5.4025996 7.66666,10.6513157 4.97108,4.138343 8.85428,6.323278 11.25599,6.333334 l 3.66668,0.01535 v 181.999997 182 h -4.43945 c -6.32998,0 -20.89388,13.08943 -20.89388,18.77854 V 408 H 134 26.66667 l -0.0464,-3.66667 z m 88.53201,-30.17176 c 2.41998,-1.01113 5.56159,-3.31518 6.98135,-5.12012 2.0972,-2.66614 4.1631,-3.4251 11.01423,-4.04634 8.16398,-0.74028 8.59151,-0.62132 13.40905,3.73102 2.7369,2.47263 6.62029,5.12078 8.62976,5.88478 4.7506,1.80617 47.97275,1.7928 54.48909,-0.0169 6.67286,-1.85312 20.72361,-13.70758 23.41545,-19.75536 1.92891,-4.33369 2.2056,-19.80584 2.65125,-148.25045 0.36938,-106.46198 0.0968,-144.900341 -1.05816,-149.189325 -1.94469,-7.221995 -13.25893,-18.942359 -22.32949,-23.130971 -6.29751,-2.908064 -6.9982,-2.934531 -77.68816,-2.934531 -57.86968,0 -72.57238,0.35951 -77.89814,1.904759 -9.05366,2.626848 -22.50944,15.705629 -24.76097,24.067185 -1.18778,4.411063 -1.4572,41.535923 -1.08336,149.282913 0.44199,127.39097 0.734,143.94232 2.6139,148.16105 2.5839,5.79857 15.28495,16.90731 22.11908,19.34605 7.16368,2.55634 53.41225,2.60783 59.49512,0.0663 z m -1.41716,-16.4904 c -6.82083,-5.43948 -6.57939,-17.7307 0.43862,-22.32908 4.29512,-2.81426 11.50538,-3.15486 14.48246,-0.6841 2.527,2.09722 2.29686,3.68998 -2.31314,16.00868 -2.6597,7.10716 -3.82211,8.72745 -6.45986,9.0045 -1.7691,0.18582 -4.53574,-0.71418 -6.14808,-2 z m 33.35684,1.23579 c -0.78704,-0.49883 -3.68428,-5.66701 -6.43828,-11.48485 l -5.00728,-10.5779 2.99117,-2.4221 c 7.65902,-6.2019 20.02908,1.7147 20.02908,12.81821 0,5.40501 -8.28245,13.75325 -11.57469,11.66664 z m -22.42531,-42.31875 c -5.39377,-1.21709 -17.82335,-1.82414 -38.15351,-1.86337 -28.30997,-0.0547 -30.36551,-0.22492 -33.62074,-2.78549 -1.90697,-1.50002 -4.08454,-4.95002 -4.83905,-7.66667 -1.84236,-6.63357 -1.88756,-224.416099 -0.048,-231.038356 0.72813,-2.621121 2.87312,-6.221121 4.76665,-8 L 56.2148,62 h 77.11849 77.11849 l 3.44279,3.234324 c 1.89352,1.778879 4.03852,5.378879 4.76664,8 1.83961,6.622257 1.79441,224.404786 -0.048,231.038356 -0.75451,2.71665 -2.93208,6.16665 -4.83904,7.66667 -3.24427,2.55193 -5.27766,2.72733 -31.62075,2.72754 -19.4889,1.6e-4 -31.36984,0.61568 -38.60414,2 -5.74784,1.09988 -10.54784,1.9383 -10.66667,1.86315 -0.11877,-0.0752 -3.81599,-0.94896 -8.21599,-1.94183 z m 74.78296,-23.66256 3.21704,-3.74102 V 189.17132 c 0,-102.898224 -0.0281,-103.477761 -5.21778,-107.462249 -3.04976,-2.341528 -125.18133,-2.341528 -128.23109,0 C 64.02862,85.693191 64,86.281365 64,188.949 c 0,108.37317 -0.28967,104.03044 7.14267,107.08251 1.57153,0.64534 30.35966,1.05225 63.97362,0.90425 l 61.11631,-0.26909 z"
     id="path81"
     inkscape:connector-curvature="0" />
</svg>
