<?xml version="1.0" encoding="UTF-8" standalone="no"?>
<!-- Created with Inkscape (http://www.inkscape.org/) -->

<svg
   xmlns:dc="http://purl.org/dc/elements/1.1/"
   xmlns:cc="http://creativecommons.org/ns#"
   xmlns:rdf="http://www.w3.org/1999/02/22-rdf-syntax-ns#"
   xmlns:svg="http://www.w3.org/2000/svg"
   xmlns="http://www.w3.org/2000/svg"
   xmlns:sodipodi="http://sodipodi.sourceforge.net/DTD/sodipodi-0.dtd"
   xmlns:inkscape="http://www.inkscape.org/namespaces/inkscape"
   version="1.1"
   id="svg61"
   width="259.16318"
   height="291.89932"
   viewBox="0 0 259.16318 291.89933"
   sodipodi:docname="contact-icon-1.svg"
   inkscape:version="0.92.4 (unknown)">
  <path
     style="stroke-width:1.33333325"
     d="M 124.51857,289.89281 C 118.31169,286.83065 69.68284,239.1407 54.90683,221.62509 39.08448,202.86916 27.74709,187.34661 22.65439,177.4668 c -2.11688,-4.10675 -5.01031,-9.17504 -6.42984,-11.26288 -1.41954,-2.08784 -4.29689,-9.73784 -6.39411,-17 C 6.45487,137.51517 5.67206,136 3.00865,136 0.07703,136 0,135.64156 0,122 v -14 h 3.33333 c 1.83333,0 3.33333,-0.27596 3.33333,-0.61325 0,-0.33728 1.5536,-6.78728 3.45243,-14.333329 2.50263,-9.945532 5.33858,-17.021429 10.30835,-25.720089 7.29018,-12.760101 18.67754,-27.591778 23.80504,-31.005325 1.70546,-1.135386 4.90085,-3.712238 7.10085,-5.726336 C 57.20517,25.226005 72.43096,16.303586 81.81275,12.740515 98.16512,6.5301208 98.66666,6.2414796 98.66666,3.0410165 V 0 h 34 34 v 3.223837 c 0,2.8372983 1.24383,3.6380711 10.3739,6.6786621 15.62461,5.2034729 38.0533,20.1684509 48.86638,32.6048609 1.51784,1.745715 5.2348,5.945715 8.25991,9.333334 3.0251,3.387617 7.0617,9.262909 8.97021,13.056202 1.90852,3.793293 4.91731,9.02957 6.68619,11.636172 4.11634,6.065776 9.39826,33.287722 9.33944,48.133592 -0.0504,12.71467 -4.41479,30.63543 -9.57922,39.33334 -1.9594,3.3 -5.36725,9.40616 -7.57301,13.56924 -4.86419,9.18054 -12.96177,21.37906 -18.55072,27.94557 -2.26953,2.66648 -7.42641,8.96517 -11.45975,13.99709 -15.73266,19.62779 -63.09678,65.67633 -73.00919,70.98129 -3.8733,2.07292 -9.52915,1.8383 -14.47223,-0.60038 z m 13.5348,-32.00751 c 7.59921,-3.60607 51.31465,-49.47964 65.17382,-68.3913 1.4083,-1.92171 4.79128,-6.494 7.51775,-10.16067 2.72648,-3.66667 6.55853,-9.66667 8.51569,-13.33333 1.95716,-3.66667 4.98035,-9.06667 6.71818,-12 1.73784,-2.93334 4.16608,-10.3238 5.39609,-16.42326 1.93315,-9.5862 2.02093,-12.93084 0.64737,-24.66666 -0.87394,-7.46721 -2.19256,-15.949057 -2.93022,-18.848545 -3.08466,-12.124583 -21.46558,-37.658011 -32.56416,-45.235731 -2.27632,-1.554193 -6.53576,-4.49561 -9.46543,-6.536482 -2.92966,-2.040874 -12.46721,-6.240873 -21.19456,-9.333333 -15.53842,-5.505906 -16.22781,-5.622656 -33.20124,-5.622656 -14.25837,0 -18.87081,0.51482 -26,2.902002 -4.76666,1.596102 -11.96667,3.819696 -16,4.941323 -12.62151,3.509904 -35.7754,24.140662 -45.94326,40.936715 -5.44782,8.999126 -7.14061,13.406649 -9.62836,25.069377 -1.66014,7.78282 -3.03567,17.83346 -3.05674,22.33476 -0.0531,11.34678 5.3218,29.03767 11.92748,39.25794 2.95215,4.56756 5.36755,9.00363 5.36755,9.85793 0,0.85431 1.96262,3.91128 4.36139,6.79328 2.39876,2.882 7.04479,8.78471 10.32451,13.11714 20.91839,27.63261 61.11401,67.22917 68.44593,67.42583 0.6225,0.0167 3.1372,-0.92125 5.58821,-2.08433 z m -20.20908,-75.01346 c -12.3625,-2.58502 -18.66012,-6.31135 -30.08713,-17.80267 -14.59243,-14.67456 -18.57663,-27.02503 -15.93243,-49.38831 1.26733,-10.71844 2.06853,-13.15005 6.46606,-19.624289 2.76072,-4.064449 8.32468,-10.711337 12.36435,-14.770865 6.0482,-6.077936 9.46332,-8.196397 19.34486,-12 10.43152,-4.015303 13.48133,-4.607817 23.33333,-4.53317 9.69431,0.07345 12.82231,0.715872 21.62915,4.442137 13.52526,5.722681 21.65397,12.392148 30.15241,24.739536 7.56539,10.991751 9.57589,17.732251 9.51917,31.914441 -0.0488,12.21037 -1.92742,18.23903 -9.24022,29.65289 -4.83436,7.5455 -8.94462,12.05179 -15.1463,16.60574 -11.3648,8.34525 -12.05118,8.66449 -23.88442,11.10872 -12.42778,2.56702 -14.72937,2.53925 -28.51883,-0.34416 z m 29.104,-25.71152 c 5.88676,-1.46954 18.48027,-15.36878 21.09019,-23.27691 3.73625,-11.32096 -2.96706,-30.70067 -12.70515,-36.731433 -6.83472,-4.232718 -20.51876,-8.19156 -25.51323,-7.38107 -11.41771,1.85284 -25.80892,11.849793 -30.71443,21.335993 -2.69936,5.21999 -2.66583,23.32254 0.0528,28.49007 1.08113,2.055 4.86276,6.53469 8.40362,9.95487 9.86969,9.53328 22.16276,11.90801 39.38624,7.60848 z"
     id="path102"
     inkscape:connector-curvature="0" />
</svg>
