<?xml version="1.0" encoding="UTF-8" standalone="no"?>
<!-- Created with Inkscape (http://www.inkscape.org/) -->

<svg
   xmlns:dc="http://purl.org/dc/elements/1.1/"
   xmlns:cc="http://creativecommons.org/ns#"
   xmlns:rdf="http://www.w3.org/1999/02/22-rdf-syntax-ns#"
   xmlns:svg="http://www.w3.org/2000/svg"
   xmlns="http://www.w3.org/2000/svg"
   xmlns:sodipodi="http://sodipodi.sourceforge.net/DTD/sodipodi-0.dtd"
   xmlns:inkscape="http://www.inkscape.org/namespaces/inkscape"
   version="1.1"
   id="svg45"
   width="1021.7567"
   height="435.42715"
   viewBox="0 0 1021.7567 435.42716"
   sodipodi:docname="kwiz-btn-arrow.svg"
   inkscape:version="0.92.4 (unknown)">
  <path
     style="stroke-width:1.33333337"
     d="m 739.3363,433.97321 c -22.31337,-8.33234 -34.95197,-31.64715 -28.72806,-52.99556 4.27986,-14.68022 6.32226,-16.6787 71.43828,-69.90171 33.77037,-27.60243 61.74645,-50.74572 62.16906,-51.42953 0.47452,-0.76778 -154.41153,-1.24368 -404.97696,-1.24434 l -405.745397,-10e-4 -8,-3.84376 c -9.6016,-4.61336 -18.1011996,-13.07385 -22.2564996,-22.15418 -4.2397,-9.26483 -4.3285,-26.55607 -0.1826,-35.56756 4.057,-8.81816 12.7986996,-17.75759 21.5837996,-22.07182 l 7.522,-3.69396 407.591007,-0.66666 407.591,-0.66667 -62.25264,-44.66667 c -34.23896,-24.56666 -64.69565,-46.892385 -67.68156,-49.612695 -2.98589,-2.72032 -7.16179,-8.42032 -9.27975,-12.66667 -3.31602,-6.64838 -3.85846,-9.29463 -3.90574,-19.05397 -0.0653,-13.46814 2.58156,-20.41861 11.43201,-30.02022 8.66541,-9.4008497 16.79216,-13.02050973 30.50568,-13.58721973 9.51929,-0.39339 12.45977,0.0179 18.37079,2.56954003 7.78224,3.3594 236.98148,167.5013447 244.78108,175.3009047 14.5102,14.51025 16.5706,37.62092 4.9219,55.20731 -2.9222,4.41176 -35.57117,31.89838 -118.75022,99.97382 -63.09596,51.63906 -117.81655,95.6597 -121.6013,97.82366 -5.88041,3.36217 -8.54258,3.99525 -18.30181,4.35234 -7.30468,0.26727 -13.1588,-0.23128 -16.24407,-1.38338 z"
     id="path55"
     inkscape:connector-curvature="0" />
</svg>
