<?xml version="1.0" encoding="UTF-8" standalone="no"?>
<!-- Created with Inkscape (http://www.inkscape.org/) -->

<svg
   xmlns:dc="http://purl.org/dc/elements/1.1/"
   xmlns:cc="http://creativecommons.org/ns#"
   xmlns:rdf="http://www.w3.org/1999/02/22-rdf-syntax-ns#"
   xmlns:svg="http://www.w3.org/2000/svg"
   xmlns="http://www.w3.org/2000/svg"
   xmlns:sodipodi="http://sodipodi.sourceforge.net/DTD/sodipodi-0.dtd"
   xmlns:inkscape="http://www.inkscape.org/namespaces/inkscape"
   version="1.1"
   id="svg69"
   width="35.860722"
   height="45.675491"
   viewBox="0 0 35.860722 45.675491"
   sodipodi:docname="map-marker.svg"
   inkscape:version="0.92.4 (unknown)">
  <path
     style="fill:#fb4040;stroke-width:0.13967204"
     d="M 16.573649,44.265321 C 7.7866222,34.570831 2.1044261,26.128451 0.40162687,20.237571 c -0.6910486,-2.3907 -0.47878148,-5.68972 0.54774094,-8.5129 C 2.3168166,7.9638605 4.7449521,4.9405205 8.1256078,2.7893205 11.1517,0.86374051 14.198334,8.5051207e-4 17.973991,5.1207292e-7 21.592395,-7.6948793e-4 24.704728,0.86683051 27.608526,2.6858905 c 1.321589,0.82789 1.630687,1.07447 3.069412,2.44855 3.277937,3.13065 5.146125,7.4048805 5.182058,11.8560105 0.01655,2.04914 -0.246181,3.2727 -1.211172,5.64071 -2.162766,5.30726 -7.579539,12.99361 -14.916768,21.16674 -0.927059,1.03267 -1.729362,1.87759 -1.782896,1.87759 -0.05354,0 -0.672514,-0.63458 -1.375511,-1.41017 z m 2.994704,-20.81299 c 3.767623,-0.95213 6.005187,-4.73976 4.882833,-8.26539 -1.250949,-3.92957 -5.633934,-5.8086805 -9.485371,-4.06664 -1.034498,0.46791 -2.661082,2.04609 -3.143346,3.0498 -1.237233,2.57499 -0.800994,5.3065 1.174754,7.35573 1.719113,1.78305 4.2281,2.51862 6.57113,1.9265 z"
     id="path79"
     inkscape:connector-curvature="0" />
</svg>
