<?xml version="1.0" encoding="UTF-8" standalone="no"?>
<!-- Created with Inkscape (http://www.inkscape.org/) -->

<svg
   xmlns:dc="http://purl.org/dc/elements/1.1/"
   xmlns:cc="http://creativecommons.org/ns#"
   xmlns:rdf="http://www.w3.org/1999/02/22-rdf-syntax-ns#"
   xmlns:svg="http://www.w3.org/2000/svg"
   xmlns="http://www.w3.org/2000/svg"
   xmlns:sodipodi="http://sodipodi.sourceforge.net/DTD/sodipodi-0.dtd"
   xmlns:inkscape="http://www.inkscape.org/namespaces/inkscape"
   version="1.1"
   id="svg71"
   width="266.66666"
   height="266.84125"
   viewBox="0 0 266.66666 266.84125"
   sodipodi:docname="sol-icon-2.svg"
   inkscape:version="0.92.4 (unknown)">
  <path
     style="stroke-width:1.33333325"
     d="m 85.28283,264.99999 c -0.0278,-0.91666 -2.40189,-3.29249 -5.27568,-5.27961 -2.8738,-1.98713 -7.05785,-6.78713 -9.29789,-10.66667 -3.73904,-6.47569 -4.04424,-7.92782 -3.72431,-17.72038 l 0.34849,-10.66667 4.16609,-0.40533 c 6.13035,-0.59646 8.50057,2.49981 8.50057,11.1045 0,9.23488 1.80416,13.00704 8.41101,17.58591 l 5.36027,3.71492 h 74.54313 74.54313 l 5.23789,-5.61504 5.2379,-5.61503 V 166.54285 91.64912 l -5.82456,-5.824561 -5.82456,-5.824561 h -72.08864 c -47.50905,0 -73.36843,0.481685 -75.8421,1.412717 -2.06441,0.776995 -6.00347,3.598763 -8.75347,6.270597 l -5,4.85788 -0.005,45.396068 c -0.006,51.8114 0.24367,50.56752 -11.65885,58.15923 L 62.00003,200.13785 40.6667,199.7356 C 19.37048,199.33402 19.32365,199.32637 13.74877,195.33333 10.67725,193.13333 7.0908,189.38333 5.7789,187 4.46697,184.61666 2.63004,182.66666 1.6968,182.66666 0.34154,182.66666 0,166.02728 0,99.999997 0,30.564347 0.29478,17.333333 1.84175,17.333333 c 1.01296,0 3.42145,-2.071089 5.35219,-4.602422 C 9.12468,10.199579 12.49589,7.0702147 14.68552,5.7767681 16.87515,4.4833215 18.66667,2.654411 18.66667,1.712524 18.66667,0.338806 33.17494,0 92,0 c 57.76806,0 73.3372,0.353757 73.35153,1.666667 0.0107,0.916667 0.35661,2.9272213 0.7702,4.4678989 0.45108,1.6803279 -0.12787,3.6810625 -1.44677,4.9999991 -1.9847,1.984692 -8.7481,2.198768 -69.46665,2.198768 H 27.94042 l -5.82232,5.366831 c -3.20228,2.951757 -6.50418,7.012963 -7.33755,9.024905 -1.0838,2.616529 -1.41063,24.239984 -1.14789,75.945031 L 14,175.95706 19.02223,180.97853 24.04445,186 h 17.94074 c 26.1464,0 23.85605,4.79769 24.68148,-51.70134 l 0.66667,-45.631996 4.37128,-6.295386 c 2.4042,-3.462463 7.2042,-8.262463 10.66666,-10.666666 l 6.29539,-4.37128 76.66666,-0.33852 76.66666,-0.338519 7.05372,4.062835 c 3.87954,2.234558 8.67954,6.414122 10.66667,9.287917 1.98712,2.873796 4.36295,5.247853 5.27961,5.275685 1.31456,0.03991 1.66667,17.23314 1.66667,81.38393 0,64.1626 -0.35185,81.33935 -1.66667,81.3618 -0.91666,0.0156 -3.34192,2.39665 -5.38945,5.29111 -2.04752,2.89444 -5.49752,6.311 -7.66667,7.59233 -2.16913,1.28135 -3.94388,3.10035 -3.94388,4.04224 0,2.48536 -162.6418,2.53119 -162.71726,0.0459 z m 97.99,-234.939384 c -1.8,-1.8 -3.27273,-4.827273 -3.27273,-6.727273 0,-4.445481 5.55452,-10 10,-10 4.44548,0 9.99999,5.554519 9.99999,10 0,4.445481 -5.55451,9.999999 -9.99999,9.999999 -1.9,0 -4.92727,-1.472726 -6.72727,-3.272726 z"
     id="path143"
     inkscape:connector-curvature="0" />
</svg>
