<?xml version="1.0" encoding="UTF-8" standalone="no"?>
<!-- Created with Inkscape (http://www.inkscape.org/) -->

<svg
   xmlns:dc="http://purl.org/dc/elements/1.1/"
   xmlns:cc="http://creativecommons.org/ns#"
   xmlns:rdf="http://www.w3.org/1999/02/22-rdf-syntax-ns#"
   xmlns:svg="http://www.w3.org/2000/svg"
   xmlns="http://www.w3.org/2000/svg"
   xmlns:sodipodi="http://sodipodi.sourceforge.net/DTD/sodipodi-0.dtd"
   xmlns:inkscape="http://www.inkscape.org/namespaces/inkscape"
   version="1.1"
   id="svg61"
   width="267.02536"
   height="266.85144"
   viewBox="0 0 267.02536 266.85144"
   sodipodi:docname="sol-icon-3.svg"
   inkscape:version="0.92.4 (unknown)">
  <path
     style="stroke-width:1.33333325"
     d="m 102.17154,264.83441 c -0.72959,-1.00774 -6.418482,-3.48274 -12.641992,-5.49999 -19.051251,-6.17515 -35.91808,-16.82425 -50.9845,-32.18977 -15.34976,-15.6545 -24.95748,-31.07257 -31.0397405,-49.81132 -2.02322,-6.23333 -4.49947,-11.99948 -5.50277,-12.81365 -2.67005,-2.16676 -2.67005,-60.20594 0,-62.37269 1.0033,-0.81418 3.46462,-6.580326 5.4696,-12.813656 C 19.493098,51.961117 51.947848,19.519492 89.511688,7.32695 95.745028,5.303723 101.51117,2.827476 102.32535,1.824178 103.49703,0.380334 109.96041,0 133.32535,0 c 16.23582,0 29.51967,0.527208 29.51967,1.171573 0,1.296286 2.86222,2.470522 16.66667,6.83757 36.27017,11.474098 71.10072,47.888468 81.41134,85.113311 1.28816,4.65068 3.14758,8.764876 4.13204,9.142646 2.64892,1.01649 2.61643,60.10356 -0.0343,62.25458 -1.00331,0.81417 -3.47955,6.58032 -5.50278,12.81365 -6.08226,18.73875 -15.68997,34.15682 -31.03974,49.81132 -15.18347,15.48489 -33.30941,26.74581 -52.96664,32.90604 -5.13333,1.6087 -9.99948,3.7554 -10.81365,4.77044 -2.16464,2.69866 -60.57336,2.71106 -62.5265,0.0133 z m 66.48106,-13.48743 c 41.36061,-13.44256 69.34903,-41.57291 83.15181,-83.57345 3.43961,-10.46643 3.64789,-12.49073 3.6121,-35.10687 -0.0357,-22.60865 -0.2535,-24.65702 -3.75568,-35.333326 -4.31969,-13.16849 -12.34001,-28.77356 -19.18769,-37.333336 -12.94068,-16.176171 -24.50195,-26.666666 -29.38856,-26.666666 -1.72889,0 -6.10034,5.985871 -14.84933,20.333333 -6.81952,11.183333 -18.06255,29.537039 -24.98449,40.786019 -6.92195,11.248976 -13.7562,22.537256 -15.18722,25.085066 -9.61832,17.12461 -15.08014,21.61586 -18.50494,15.21657 -0.89205,-1.66681 -1.38024,-23.53868 -1.38024,-61.836736 0,-50.084651 -0.29869,-59.505619 -1.9295,-60.859075 -4.52243,-3.753278 -32.394142,3.126875 -50.049822,12.354836 -28.63584,14.966869 -49.2894,39.990012 -60.87552,73.754669 -3.37483,9.835036 -3.60777,12.015676 -3.68523,34.498646 -0.0782,22.69471 0.11619,24.60408 3.57404,35.10687 13.84989,42.06734 42.37274,70.68628 83.1925,83.47274 13.487132,4.22474 17.223942,4.59435 40.440192,3.99994 16.22384,-0.41539 21.01798,-1.04252 29.80758,-3.89923 z m -23.57131,-147.929 c 2.07005,-2.52011 4.93251,-6.870106 6.361,-9.666666 1.42849,-2.79656 3.62372,-6.28465 4.87828,-7.75132 1.25455,-1.46666 4.13781,-6.34488 6.40724,-10.84048 2.26943,-4.4956 5.0242,-8.919068 6.12172,-9.829926 1.09752,-0.91086 1.99549,-2.093647 1.99549,-2.628416 0,-0.53477 3.2922,-6.311303 7.31599,-12.83674 4.0238,-6.525438 8.87029,-14.396492 10.77,-17.491229 1.89971,-3.094738 3.09552,-6.206836 2.65737,-6.915772 -0.43814,-0.708936 -4.22158,-2.909242 -8.40766,-4.88957 -7.28387,-3.445825 -7.77454,-3.506759 -11.41475,-1.417563 -5.36267,3.077745 -7.03109,2.745537 -8.90259,-1.772626 -2.85365,-6.889349 -9.78777,-6.863957 -11.16874,0.04089 -1.2243,6.121478 -8.84962,4.573645 -8.84962,-1.796343 0,-1.411801 -0.72962,-2.27159 -1.66666,-1.963985 -2.59634,0.852315 -2.77071,8.93663 -0.31044,14.392532 2.04541,4.535909 2.0536,5.267077 0.1012,9.042539 -2.8576,5.526004 -2.82374,19.266101 0.0584,23.664704 2.02964,3.097638 2.01836,3.694753 -0.16118,8.528085 -1.87224,4.15191 -2.15732,7.02586 -1.41732,14.2889 1.36287,13.37677 1.4174,19.472906 0.19759,22.091666 -1.85807,3.98901 1.42772,2.62947 5.43471,-2.24868 z m -3.13907,-20.219216 c -1.0316,-2.68831 1.89015,-4.66116 6.23614,-4.21083 2.30788,0.23914 3.46441,1.26831 3.7594,3.3454 0.37417,2.63458 -0.15876,3 -4.37518,3 -3.17232,0 -5.07916,-0.7242 -5.62036,-2.13457 z m 12.99856,-15.13958 c -2.71616,-1.678684 -1.16006,-7.33591 2.14736,-7.806764 3.11491,-0.443448 6.25239,3.536849 4.66384,5.916677 -1.37161,2.054857 -4.94165,3.045527 -6.8112,1.890087 z m 9.29074,-15.328467 c -2.53407,-3.053356 -1.11648,-6.681915 2.7879,-7.136178 4.30514,-0.500888 5.6858,2.393238 2.98275,6.25239 -2.32653,3.321578 -3.58723,3.514656 -5.77065,0.883788 z m -21.33055,-1.329974 c -2.424,-2.920738 0.61081,-6.330679 5.16325,-5.801488 2.68155,0.311711 3.44747,1.141312 3.44747,3.734077 0,2.592765 -0.76592,3.422367 -3.44747,3.734077 -1.91844,0.223006 -4.20845,-0.516194 -5.16325,-1.666666 z m 11.09289,-17.400744 c -1.26328,-3.292057 0.55624,-6 4.03154,-6 3.71885,0 5.0148,2.253228 3.25921,5.666667 -1.46887,2.855945 -6.23904,3.074037 -7.29075,0.333333 z m 19.71148,0.23334 c -2.49016,-3.000462 -0.3918,-6.440078 3.64335,-5.972133 2.73241,0.316871 3.49633,1.133768 3.49633,3.738793 0,3.881483 -4.58225,5.314844 -7.13968,2.23334 z"
     id="path164"
     inkscape:connector-curvature="0" />
</svg>
