<?xml version="1.0" encoding="UTF-8" standalone="no"?>
<!-- Created with Inkscape (http://www.inkscape.org/) -->

<svg
   xmlns:dc="http://purl.org/dc/elements/1.1/"
   xmlns:cc="http://creativecommons.org/ns#"
   xmlns:rdf="http://www.w3.org/1999/02/22-rdf-syntax-ns#"
   xmlns:svg="http://www.w3.org/2000/svg"
   xmlns="http://www.w3.org/2000/svg"
   xmlns:sodipodi="http://sodipodi.sourceforge.net/DTD/sodipodi-0.dtd"
   xmlns:inkscape="http://www.inkscape.org/namespaces/inkscape"
   version="1.1"
   id="svg91"
   width="259.0209"
   height="190.66667"
   viewBox="0 0 259.02091 190.66667"
   sodipodi:docname="sol-icon-4.svg"
   inkscape:version="0.92.4 (unknown)">
  <path
     style="stroke-width:1.33333337"
     d="m 0.42189,187 c 0.38463,-3.34276 0.96774,-3.70201 6.60093,-4.06674 5.69795,-0.36895 6.87138,-1.11724 15.0716,-9.6112 L 30.987,164.11095 30.58206,157.05547 30.17712,150 21.95668,149.60598 c -8.52975,-0.40886 -12.07974,-2.49658 -10.63724,-6.25567 0.44544,-1.16079 2.42042,-2.01697 4.65258,-2.01697 6.0206,0 6.94553,-2.19056 4.79158,-11.34823 -2.41013,-10.24685 -2.5144,-9.55462 1.74686,-11.59699 2.02616,-0.97111 3.61695,-2.7933 3.55555,-4.07275 -0.0611,-1.27345 -0.21111,-6.44258 -0.33333,-11.48694 C 25.52033,94.064106 25.3398,93.586166 21.6671,92.064886 13.58272,88.716226 8.17712,78.915739 8.17712,67.607213 c 0,-9.500729 5.59741,-10.4569 15.77428,-2.694621 8.60143,6.560635 11.76765,15.644717 7.71482,22.13432 -1.41264,2.261994 -1.64667,6.073414 -1,16.286428 0.77014,12.16303 1.0783,13.33333 3.5109,13.33333 2.50641,0 2.66667,-0.88889 2.66667,-14.79085 0,-9.519074 0.61267,-15.938246 1.71895,-18.010052 2.0347,-3.810497 9.49155,-9.1991 12.72989,-9.1991 3.39798,0 4.89157,5.373581 3.37263,12.133884 -1.43341,6.379644 -4.24778,10.236854 -8.71641,11.946194 -2.30602,0.88209 -3.08345,2.616114 -3.82156,8.523734 -0.97309,7.78834 0.42084,11.39619 4.40303,11.39619 1.6856,0 1.87105,1.29029 1.10193,7.66667 -1.82067,15.09428 -2.01472,14.28701 3.54487,14.74716 4.28673,0.35478 5,0.87422 5,3.64125 0,3.55792 -1.89079,4.33419 -12,4.92663 l -6,0.35162 -0.40038,7.68375 -0.40038,7.68375 9.06705,8.61433 9.06705,8.61435 11.66666,0.0352 c 9.2458,0.0279 11.66667,-0.36051 11.66667,-1.87202 0,-1.049 -1.35,-2.099 -3,-2.33333 -2.95882,-0.42021 -3.00503,-0.7348 -3.36628,-22.91641 -0.25171,-15.45504 0.11217,-23.06686 1.16326,-24.33334 0.87542,-1.05478 4.02567,-1.84294 7.36628,-1.84294 3.21021,0 5.89604,-0.45 5.96852,-1 0.0725,-0.55 0.2544,-3.52228 0.40427,-6.60507 0.15686,-3.22663 1.30479,-6.74575 2.70525,-8.29324 2.3593,-2.607 3.98674,-2.68808 53.8958,-2.685 59.41017,0.004 57.14119,-0.42433 57.79269,10.90137 l 0.40354,7.01527 7.33334,0.66667 7.33333,0.66666 v 23.9399 c 0,23.90912 -0.004,23.94081 -3.07869,24.66666 -6.19558,1.46258 -3.41847,3.40086 5.42737,3.78804 l 9.01536,0.3946 -0.34869,-53.06126 -0.34868,-53.061272 -9.29647,-0.401011 c -5.11307,-0.220557 -9.66424,-0.996058 -10.11372,-1.723337 -0.78249,-1.266097 0.27365,-7.892583 4.20049,-26.354868 2.19699,-10.329278 3.18992,-10.854118 20.53459,-10.854118 14.7862,0 15.85004,0.691119 17.95993,11.66756 0.81043,4.216175 2.05288,10.181466 2.76102,13.2562 0.70812,3.074735 1.28749,7.397322 1.28749,9.605747 v 4.01532 l -9,0.394254 -9,0.394253 V 129.33334 182 l 10.66667,0.66667 c 10.45649,0.65353 10.67497,0.73891 11.08856,4.33333 l 0.42189,3.66667 H 129.51045 0 Z m 29.82703,-5.78284 c 0.49272,-0.79724 0.25356,-2.0918 -0.53146,-2.87682 -1.66387,-1.66387 -5.9923,1.18301 -4.7803,3.14408 1.01485,1.64205 4.23178,1.4802 5.31176,-0.26726 z m 12.59487,-0.4718 c 0,-1.05672 -0.65228,-2.32444 -1.44951,-2.81716 -1.8827,-1.16357 -4.45253,1.40627 -3.28896,3.28896 1.30696,2.1147 4.73847,1.77303 4.73847,-0.4718 z M 201.17712,181 c -0.43264,-1.29792 -12.89629,-1.66666 -56.33334,-1.66666 -43.43703,0 -55.90068,0.36874 -56.33332,1.66666 -0.43866,1.31598 11.41481,1.66667 56.33332,1.66667 44.91853,0 56.772,-0.35069 56.33334,-1.66667 z m 6.71094,-10.12646 c 1.27229,-0.80731 1.61414,-5.16048 1.33333,-16.97959 L 208.84379,138 h -3.33334 c -3.27486,0 -3.34502,0.22223 -4,12.66667 l -0.66666,12.66667 -55.91215,0.34816 c -43.82028,0.27286 -56.15588,-0.0155 -57.03918,-1.33334 -0.61986,-0.92482 -1.04732,-6.18149 -0.94989,-11.68149 0.24444,-13.80005 0.29768,-13.57511 -3.09878,-13.09273 -2.88539,0.40978 -3.01449,1.00873 -3.37936,15.67788 -0.20864,8.38849 -0.0775,16.03849 0.29149,17 0.54029,1.40796 12.81001,1.74421 63.04602,1.72777 34.30636,-0.0107 63.1451,-0.50896 64.08612,-1.10605 z m -67.04428,-18.20687 c 0,-2.54351 -1.01138,-2.68364 -21.89919,-3.03415 -22.01481,-0.36941 -25.21262,0.21363 -23.6406,4.31023 0.70778,1.84444 3.73929,2.07416 23.17704,1.75629 21.35197,-0.34917 22.36275,-0.48624 22.36275,-3.03237 z m 53.19503,1.21301 c 0.44748,-1.16618 0.47627,-2.66618 0.064,-3.33333 -1.07502,-1.73941 -44.218,-1.564 -45.29844,0.18417 -0.47492,0.76844 -0.52916,2.26844 -0.12054,3.33334 0.6078,1.58389 4.72718,1.93614 22.64218,1.93614 18.78828,0 22.01477,-0.3012 22.71284,-2.12032 z M 37.28872,139.60052 c 0.79096,-0.95305 1.83639,-4.22356 2.32319,-7.26779 0.82158,-5.13793 0.64205,-5.59597 -2.50273,-6.38526 -6.58523,-1.65279 -8.29072,-0.39925 -8.00176,5.88129 0.37935,8.24538 4.52214,12.18078 8.1813,7.77176 z m 102.62173,0.13282 c 1.65377,-1.65378 2.22012,-15.23258 0.79068,-18.95762 -1.21544,-3.16739 -43.83259,-3.16739 -45.04802,0 -1.42944,3.72504 -0.86309,17.30384 0.79067,18.95762 2.23668,2.23668 41.22999,2.23668 43.46667,0 z M 193.23046,139 c 0.63093,-1.28333 0.80204,-6.23333 0.38024,-11 l -0.76691,-8.66666 -20.65788,-0.36982 c -18.25605,-0.32681 -20.85269,-0.1034 -22.33334,1.92151 -2.13337,2.91757 -2.18869,16.73507 -0.0755,18.84831 1.1047,1.10469 7.90068,1.6 21.95311,1.6 18.05798,0 20.48244,-0.26312 21.50024,-2.33334 z M 49.00303,88.491206 c 2.73396,-6.543294 0.5525,-8.917653 -4.14158,-4.507794 -4.5839,4.306354 -4.43685,9.349924 0.2726,9.349924 1.01519,0 2.75624,-2.17896 3.86898,-4.84213 z M 26.84379,84.000001 c 3.66708,-3.667078 3.44781,-4.54547 -2.83648,-11.363124 -8.73772,-9.479308 -13.0086,-7.180417 -8.97471,4.830827 3.02159,8.997042 7.0941,11.249392 11.81119,6.532297 z M 247.2637,65.95839 c -0.56693,-6.030965 -4.40464,-18.460301 -6.01527,-19.481872 -2.86158,-1.815013 -17.90412,-1.352845 -19.52474,0.599879 -1.43283,1.726456 -5.54657,15.934748 -5.54657,19.157092 0,1.204406 3.82925,1.797482 13.66666,2.116699 18.10723,0.587569 17.70516,0.642773 17.41992,-2.391798 z M 100.48529,94.885346 c -1.30531,-0.8285 -1.60993,-8.21075 -1.33333,-32.312918 l 0.35849,-31.239094 h 43.33333 43.33334 l 0.35849,31.239094 c 0.2766,24.102168 -0.028,31.484418 -1.33333,32.312918 -0.93051,0.5906 -19.99183,1.07382 -42.3585,1.07382 -22.36666,0 -41.42799,-0.48322 -42.35849,-1.07382 z m 40.35849,-9.081018 c 0,-1.747929 -22.00505,-21.78624 -23.93652,-21.797152 -0.69842,-0.004 -3.24842,1.910525 -5.66667,4.254381 -3.8499,3.73147 -4.39681,5.113558 -4.39681,11.111111 0,3.767256 0.41753,7.26708 0.92783,7.777387 1.63374,1.633741 33.07217,0.354488 33.07217,-1.345727 z m 37.69614,-22.647123 0.36281,-24.17613 -9.02948,-0.608016 c -4.9662,-0.334409 -21.17947,-0.319234 -36.02947,0.03372 l -27,0.641739 v 11.730386 c 0,6.451712 0.53437,12.060644 1.18749,12.464293 0.65312,0.403649 2.16695,-0.76094 3.36407,-2.587977 2.81097,-4.290087 6.1122,-4.20526 10.92041,0.280606 2.12375,1.98137 9.76426,8.902459 16.97891,15.380198 l 13.11755,11.777712 12.88245,-0.380202 12.88246,-0.380199 z m -28.60986,9.627575 c -7.70369,-3.476913 -10.78777,-13.67101 -6.59116,-21.786376 4.83748,-9.354669 17.55787,-10.894135 25.38038,-3.071628 3.50205,3.50206 4.1245,5.122865 4.1245,10.739892 0,5.617026 -0.62245,7.237832 -4.1245,10.739892 -4.9064,4.906393 -12.41291,6.256033 -18.78922,3.37822 z m 14.1399,-5.784779 c 1.57021,-1.283333 3.20804,-4.539253 3.6396,-7.235379 1.52645,-9.536057 -9.39071,-15.264035 -17.27382,-9.063174 -4.61529,3.630393 -5.47614,7.032424 -2.99402,11.832312 3.58769,6.937825 11.1266,8.962729 16.62824,4.466241 z M 42.39935,52.444445 C 41.91046,51.955557 41.51046,39.955557 41.51046,25.777778 V 0 h 24.52401 c 21.13271,0 24.63593,0.291651 25.33333,2.10905 1.04842,2.732131 1.02165,44.296121 -0.0311,48.224284 -0.79538,2.967971 -1.05617,3 -24.42623,3 -12.99225,0 -24.02227,-0.4 -24.51116,-0.888889 z M 83.51046,26.666667 v -18 L 79.85509,8.245861 76.19972,7.825055 76.94688,15.579194 C 77.53845,21.71853 77.1601,24.30517 75.13011,28 c -3.30467,6.014919 -11.3195,10.616387 -18.54096,10.644734 -5.84994,0.02296 -7.83105,1.471487 -6.5562,4.793697 0.6248,1.628182 3.64792,1.911246 17.11815,1.602816 l 16.35936,-0.37458 z m -16.09494,2.175898 c 3.92596,-3.702657 4.7616,-5.431697 4.7616,-9.852289 0,-3.123129 -0.97584,-6.566629 -2.33738,-8.248067 -2.03728,-2.515933 -3.44962,-2.834485 -11,-2.481045 l -8.66262,0.405503 -0.39329,10.548812 c -0.21632,5.801848 -0.0851,11.351848 0.29148,12.333334 0.43032,1.121384 2.89469,1.784521 6.6317,1.784521 4.92071,0 6.76857,-0.774924 10.70851,-4.490769 z"
     id="path101"
     inkscape:connector-curvature="0" />
</svg>
