<?xml version="1.0" encoding="UTF-8" standalone="no"?>
<!-- Created with Inkscape (http://www.inkscape.org/) -->

<svg
   xmlns:dc="http://purl.org/dc/elements/1.1/"
   xmlns:cc="http://creativecommons.org/ns#"
   xmlns:rdf="http://www.w3.org/1999/02/22-rdf-syntax-ns#"
   xmlns:svg="http://www.w3.org/2000/svg"
   xmlns="http://www.w3.org/2000/svg"
   xmlns:sodipodi="http://sodipodi.sourceforge.net/DTD/sodipodi-0.dtd"
   xmlns:inkscape="http://www.inkscape.org/namespaces/inkscape"
   version="1.1"
   id="svg81"
   width="266.66666"
   height="449.07767"
   viewBox="0 0 266.66666 449.07767"
   sodipodi:docname="sol-icon-1.svg"
   inkscape:version="0.92.4 (unknown)">
  <path
     style="stroke-width:1.33333325"
     d="m 114.66666,446.03183 c 0,-1.93088 -1.38363,-3.86319 -3.77973,-5.2786 -5.04216,-2.97848 -14.88694,-13.76594 -14.88694,-16.31243 0,-1.11639 1.2,-3.22979 2.66667,-4.69645 2.51756,-2.51756 4.44445,-2.66667 34.46002,-2.66667 29.10756,0 31.97976,0.20599 34,2.43832 1.21366,1.34108 2.20665,3.73935 2.20665,5.32949 0,3.30672 -7.86193,12.54558 -13.52,15.88788 -2.42531,1.43267 -3.81333,3.36127 -3.81333,5.29846 0,3.02721 -0.11427,3.04585 -18.66667,3.04585 -18.5524,0 -18.66667,-0.0187 -18.66667,-3.04585 z M 55.99999,403.74435 c -3.68545,-3.68546 -3.61002,-12.06606 0.13915,-15.46002 2.67508,-2.42164 6.16963,-2.5577 75,-2.92037 39.7068,-0.20921 73.50223,-0.0583 75.10095,0.33533 4.74664,1.16875 7.09324,4.52339 7.09324,10.1403 0,3.46032 -0.90506,6.14314 -2.66667,7.90476 -2.60317,2.60317 -4.44444,2.66666 -77.33333,2.66666 -72.88889,0 -74.73016,-0.0635 -77.33334,-2.66666 z m 4,-30.26211 c -7.03458,-2.64684 -9.21318,-12.35336 -3.86001,-17.19791 2.68939,-2.43386 5.91444,-2.53998 77.19335,-2.53998 71.2789,0 74.50396,0.10613 77.19334,2.53998 3.81552,3.45299 3.81596,11.46638 8.2e-4,14.92003 -2.6799,2.42597 -6.07624,2.55099 -75.66667,2.78519 -40.07345,0.13486 -73.76083,-0.0934 -74.86083,-0.50731 z m 1.69324,-32.00872 c -3.19088,-0.61635 -8.3599,-6.29219 -8.3599,-9.17958 0,-3.01064 2.92719,-8.35363 5.1806,-9.45614 1.184,-0.57928 18.36968,-1.36229 38.19038,-1.74001 l 36.03766,-0.68677 7.0616,-5.18642 c 4.909,-3.60544 8.06072,-7.26342 10.3392,-12 1.80268,-3.74748 4.15373,-8.38634 5.22456,-10.3086 2.93208,-5.26338 0.43668,-10.9184 -6.65084,-15.07196 -3.15333,-1.84797 -12.03185,-5.07196 -19.73003,-7.16441 -12.69436,-3.45047 -14.77144,-4.47736 -22.32336,-11.03653 -4.57967,-3.97764 -10.50237,-10.47482 -13.16156,-14.43816 -2.65918,-3.96335 -5.81593,-8.66171 -7.01499,-10.4408 -1.19906,-1.7791 -2.56515,-5.64268 -3.03577,-8.58575 -0.47061,-2.94308 -2.33324,-8.8616 -4.13916,-13.15228 -4.26875,-10.14209 -6.48431,-29.92421 -5.29547,-47.28176 1.93916,-28.31251 6.79688,-37.84963 17.05635,-33.48653 4.51555,1.92034 18.71937,13.46845 32.24777,26.21836 15.31235,14.43121 20.66745,18.76648 22.09289,17.8855 0.68942,-0.42609 1.25685,-4.7893 1.26094,-9.69602 0.009,-11.3689 2.0042,-18.48964 6.66726,-23.80072 2.0343,-2.317 4.75118,-5.917 6.0375,-8 3.24246,-5.25063 23.47236,-23.51562 27.7248,-25.03192 4.64216,-1.65526 9.51684,0.9962 11.8084,6.42291 1.07536,2.54656 1.7546,9.57479 1.7546,18.15509 0,13.31609 -0.2344,14.49262 -4.7983,24.08457 -4.04515,8.50164 -6.10399,11.07755 -13.11655,16.41064 -10.00225,7.60677 -12.97567,8.83812 -21.34201,8.83812 -10.62279,0 -12.07828,5.26436 -4.19735,15.18123 2.16665,2.72637 4.34124,6.78673 4.8324,9.023 0.49117,2.23628 2.42024,7.40181 4.28684,11.47898 5.04715,11.02443 4.76847,22.40123 -0.80436,32.83782 -5.06452,9.48462 -5.17459,12.55629 -0.86067,24.01733 C 166.5,281.15343 168,286.29922 168,287.7178 c 0,1.41859 -2.51132,8.06135 -5.58072,14.76168 -8.19132,17.8813 -7.68819,18.26074 24.48394,18.4653 l 20.90323,0.13293 2.76344,3.51315 c 2.72996,3.47057 3.6442,10.43997 1.74302,13.28725 -2.879,4.31168 -6.80553,4.53293 -77.22526,4.35136 -38.73154,-0.0999 -71.75903,-0.44004 -73.39442,-0.75592 z m 73.07902,-86.52306 c 2.19705,-2.64728 1.07973,-4.59744 -10.10559,-17.63828 -11.86449,-13.83268 -18.38025,-25.86183 -19.08012,-35.225 -0.41956,-5.61318 0.0123,-8.5495 1.61796,-11 4.44712,-6.78716 9.35779,-2.27262 11.43928,10.51654 2.11504,12.99534 23.4511,42.14063 30.8494,42.14063 8.99826,0 8.95716,-8.83891 -0.14261,-30.66667 -2.29289,-5.5 -5.519,-11.5 -7.16912,-13.33333 -1.65012,-1.83333 -4.53803,-5.75264 -6.41756,-8.70957 -4.06221,-6.39076 -22.91508,-25.64159 -32.92871,-33.62376 -7.19458,-5.73503 -11.65506,-6.98012 -14.56852,-4.06667 -1.11678,1.11679 -1.6,8.32916 -1.6,23.88121 0,24.10008 0.58427,27.13028 9.16777,47.54666 6.91529,16.44842 12.67346,23.07514 26.16557,30.11237 5.19796,2.71116 10.55393,2.73879 12.77225,0.0659 z m 39.62441,-88.9846 c 4.78107,-4.3784 13.79786,-23.42799 13.33351,-28.16944 -0.34645,-3.53755 -0.97137,-4.10694 -4.92159,-4.48416 -3.93269,-0.37555 -5.4617,0.49324 -11.68549,6.63973 -4.85723,4.79688 -8.03796,9.41631 -9.8876,14.35991 -3.10797,8.30681 -2.62039,12.3653 1.73552,14.44581 3.73228,1.78263 7.4124,0.8834 11.42565,-2.79185 z M 46.18181,301.56254 c -1.93333,-1.93334 -3.51515,-4.0925 -3.51515,-4.79814 0,-0.70565 -2.33428,-6.17382 -5.1873,-12.15152 -6.71639,-14.07232 -10.44248,-23.19522 -14.5137,-35.5352 -1.81457,-5.5 -4.97173,-14.56396 -7.01592,-20.14213 -2.0442,-5.57817 -4.70178,-15.47817 -5.90574,-22 C 6.52862,187.8928 5.57186,185.07768 2.61527,185.07768 0.06301,185.07768 0,183.85691 0,134.41102 0,85.262573 0.077,83.74435 2.57086,83.74435 c 2.43175,0 4.96707,-4.985147 8.74296,-17.191054 C 13.29304,60.155294 23.94734,45.504427 33.73089,35.7273 44.30118,25.163957 56.92973,17.100004 69.33333,12.993387 73.36666,11.65802 81.74531,8.7005659 87.95254,6.4212639 c 14.12919,-5.188242 34.12282,-7.31338373 57.19631,-6.07944893 20.96741,1.12130493 29.35924,2.69952193 39.99387,7.52149593 4.69734,2.129879 10.8346,4.4902071 13.63833,5.2451751 2.80373,0.754966 6.77497,2.743682 8.82498,4.419369 2.05002,1.675688 6.4273,4.602219 9.7273,6.503404 14.73141,8.487018 34.22604,34.929225 39.55112,53.646526 3.24286,11.39849 4.62318,14.066563 7.2773,14.066563 2.40924,0 2.50491,2.03693 2.50491,53.333332 0,50.91652 -0.11133,53.33334 -2.45561,53.33334 -2.78892,0 -4.08748,3.65613 -7.57703,21.33333 -1.23048,6.23333 -3.92528,15.83333 -5.98843,21.33333 -2.06316,5.5 -4.68397,13.32886 -5.82405,17.39747 -1.14007,4.0686 -3.88371,10.9686 -6.09697,15.33333 -2.21327,4.36472 -4.03174,8.70978 -4.04102,9.65566 -0.0281,2.86376 -5.11176,11.91582 -9.49653,16.90981 -5.07076,5.77527 -10.40293,6.27571 -15.24763,1.431 -4.10702,-4.10701 -4.13649,-8.43055 -0.11213,-16.43825 1.73836,-3.45896 3.60231,-7.7131 4.14211,-9.45364 0.5398,-1.74055 2.26749,-5.31851 3.83934,-7.95102 8.17507,-13.69152 22.98974,-64.37314 26.17652,-89.55102 1.70758,-13.49112 1.67734,-52.10615 -0.0505,-64.52912 -1.90748,-13.71447 -10.5162,-37.196787 -17.7084,-48.303954 C 220.42899,56.624913 208.92727,44.629201 200.42211,38.665451 194.61814,34.595753 172.97166,25.748687 163.89869,23.738074 153.34825,21.400047 105.56116,22.628435 97.33333,25.449164 64.3202,36.766996 53.10744,44.099659 37.75472,64.411017 c -4.00383,5.296992 -10.7071,21.19605 -13.76188,32.640891 -4.96405,18.598022 -3.77235,69.066032 2.15266,91.164082 1.79838,6.70727 4.42938,17.32072 5.84668,23.58545 1.41729,6.26475 4.01851,14.66475 5.78049,18.66667 1.76197,4.00193 4.1982,10.71768 5.41384,14.92389 1.21564,4.2062 4.29305,11.7062 6.83869,16.66667 2.54564,4.96045 4.63137,9.93924 4.63495,11.06397 0.004,1.12474 2.10651,5.3045 4.67318,9.28838 5.38557,8.35925 5.94729,14.01232 1.90322,19.15352 -3.76497,4.78638 -10.26721,4.78552 -15.05474,-0.001 z"
     id="path122"
     inkscape:connector-curvature="0" />
</svg>
