<?xml version="1.0" encoding="UTF-8" standalone="no"?>
<!-- Created with Inkscape (http://www.inkscape.org/) -->

<svg
   xmlns:dc="http://purl.org/dc/elements/1.1/"
   xmlns:cc="http://creativecommons.org/ns#"
   xmlns:rdf="http://www.w3.org/1999/02/22-rdf-syntax-ns#"
   xmlns:svg="http://www.w3.org/2000/svg"
   xmlns="http://www.w3.org/2000/svg"
   xmlns:sodipodi="http://sodipodi.sourceforge.net/DTD/sodipodi-0.dtd"
   xmlns:inkscape="http://www.inkscape.org/namespaces/inkscape"
   version="1.1"
   id="svg111"
   width="263.9996"
   height="233.81726"
   viewBox="0 0 263.99961 233.81726"
   sodipodi:docname="stage-icon-1.svg"
   inkscape:version="0.92.4 (unknown)">
  <path
     style=";stroke-width:1.33333337"
     d="M 18.66667,199.3693 V 164.92134 L 31.95722,137.02853 45.24778,109.13571 22.62389,108.77089 0,108.40607 0.007,80.770889 C 0.011,65.57154 0.62725,50.929322 1.37624,48.232629 3.42377,40.86067 10.52379,31.153273 17.99956,25.504654 30.98979,15.689357 58.25296,6.9349063 90.2432,2.3065643 c 21.36699,-3.09137094 69.27482,-3.07187369 92.42302,0.037614 39.76,5.3409443 54.58057,12.2623997 68.64183,32.0568877 9.75002,13.725434 12.6654,26.538398 12.68144,55.734642 l 0.0101,18.333332 h -21.33333 c -11.73333,0 -21.33333,0.22525 -21.33333,0.50054 0,0.2753 6.01034,13.15355 13.35633,28.61833 l 13.35628,28.1178 -0.35632,33.715 -0.35633,33.715 -114.33333,0.34078 -114.33333,0.34078 z m 211.99999,-6.7958 V 168.67795 L 213.06451,131.5735 C 201.61553,107.4396 192.49074,90.157695 186.96152,82.135708 L 178.46065,69.802375 H 131.29558 84.13051 l -4.72283,8.445202 C 76.81013,82.89244 65.98076,105.00951 55.34243,127.39661 L 36,168.10045 v 24.18429 24.18431 h 97.33333 97.33333 z m -109.0239,-10.77687 c -8.62897,-1.81462 -21.22642,-9.11206 -26.94492,-15.60862 -13.85938,-15.7451 -17.00982,-38.78604 -7.77767,-56.88255 4.47127,-8.76441 14.97087,-18.77968 24.11666,-23.004198 7.29496,-3.3696 9.8256,-3.83222 20.96317,-3.83222 11.13756,0 13.66821,0.46262 20.96316,3.83222 9.1458,4.224518 19.6454,14.239788 24.11666,23.004198 9.28435,18.19884 6.08711,41.13133 -7.95933,57.08893 -10.52685,11.95914 -31.4986,18.76258 -47.47773,15.40224 z m 28.65516,-13.10641 c 29.74602,-15.34992 29.34657,-58.40202 -0.67867,-73.146312 -10.85539,-5.330676 -24.38313,-5.330676 -35.2385,0 -32.17674,15.800812 -29.75847,62.555762 3.88323,75.078742 7.5446,2.80844 24.87243,1.76314 32.03394,-1.93243 z M 63.43934,70.469041 73.66348,49.802374 h 59.57178 59.57178 l 9.92981,20.333334 9.92981,20.333334 17,0.373169 17,0.373169 V 79.907839 c 0,-12.297426 -1.84417,-23.155526 -5,-29.438798 C 237.91871,43.006826 227.76282,32.393778 221.17593,29.055943 205.58383,21.154835 177.14161,17.272451 134.66666,17.247371 110.63387,17.233181 99.92851,17.791063 88.7201,19.641757 49.70082,26.084485 26.52326,35.771721 19.79807,48.448238 17.73294,52.340876 17.33333,56.17792 17.33333,72.114905 V 91.135708 H 35.27427 53.2152 Z"
     id="path121"
     inkscape:connector-curvature="0" />
</svg>
