<?xml version="1.0" encoding="UTF-8" standalone="no"?>
<!-- Created with Inkscape (http://www.inkscape.org/) -->

<svg
   xmlns:dc="http://purl.org/dc/elements/1.1/"
   xmlns:cc="http://creativecommons.org/ns#"
   xmlns:rdf="http://www.w3.org/1999/02/22-rdf-syntax-ns#"
   xmlns:svg="http://www.w3.org/2000/svg"
   xmlns="http://www.w3.org/2000/svg"
   xmlns:sodipodi="http://sodipodi.sourceforge.net/DTD/sodipodi-0.dtd"
   xmlns:inkscape="http://www.inkscape.org/namespaces/inkscape"
   version="1.1"
   id="svg81"
   width="264.66666"
   height="184.45277"
   viewBox="0 0 264.66666 184.45278"
   sodipodi:docname="stage-icon-2.svg"
   inkscape:version="0.92.4 (unknown)">
  <path
     style="stroke-width:1.33333325"
     d="M 66,181.3279 C 36.80761,172.62281 13.33388,149.80208 3.86961,120.92591 0.43508,110.44689 0,107.24554 0,92.452775 0,78.744262 0.55177,74.011216 3.10876,65.786108 8.93519,47.044106 20.30215,30.355082 34.66667,19.452669 43.99174,12.375104 60.86361,4.1897321 71.33333,1.6638757 81.4672,-0.78095458 103.37867,-0.48405188 114,2.2420135 c 25.33321,6.50201 48.8112,25.1811165 59.75873,47.5440955 9.04552,18.477661 9.87937,23.184865 10.56967,59.666661 l 0.61178,32.33333 h 39.86324 39.86324 v 21.33334 21.33333 l -94.33333,-0.0715 C 76.64767,184.31037 75.93134,184.28937 66,181.32787 Z m 99.80662,-12.10846 c 12.45962,-6.44312 6.657,-24.76667 -7.84297,-24.76667 -6.36059,0 -11.96365,6.24455 -11.96365,13.33333 0,10.53972 10.17574,16.41366 19.80662,11.43334 z M 190,154.45277 c 0,-7.77777 -0.27351,-8.66667 -2.66667,-8.66667 -2.39316,0 -2.66667,0.8889 -2.66667,8.66667 0,7.77777 0.27351,8.66667 2.66667,8.66667 2.39316,0 2.66667,-0.8889 2.66667,-8.66667 z m 13.33333,0 c 0,-7.77777 -0.27351,-8.66667 -2.66667,-8.66667 -2.39316,0 -2.66667,0.8889 -2.66667,8.66667 0,7.77777 0.27351,8.66667 2.66667,8.66667 2.39316,0 2.66667,-0.8889 2.66667,-8.66667 z m 13.33333,0 c 0,-7.77777 -0.27351,-8.66667 -2.66667,-8.66667 -2.39316,0 -2.66666,0.8889 -2.66666,8.66667 0,7.77777 0.2735,8.66667 2.66666,8.66667 2.39316,0 2.66667,-0.8889 2.66667,-8.66667 z m 14.66667,-0.0928 c 0,-8.32117 -0.1501,-8.73809 -3,-8.33333 -2.6945,0.38268 -3.04043,1.2747 -3.39696,8.7594 -0.388,8.14549 -0.32039,8.33333 3,8.33333 3.29566,0 3.39696,-0.26117 3.39696,-8.7594 z m 13.33333,0.0928 c 0,-7.77777 -0.27351,-8.66667 -2.66667,-8.66667 -2.39316,0 -2.66666,0.8889 -2.66666,8.66667 0,7.77777 0.2735,8.66667 2.66666,8.66667 2.39316,0 2.66667,-0.8889 2.66667,-8.66667 z m 13.33333,0 c 0,-7.77777 -0.2735,-8.66667 -2.66666,-8.66667 -2.39316,0 -2.66667,0.8889 -2.66667,8.66667 0,7.77777 0.27351,8.66667 2.66667,8.66667 2.39316,0 2.66666,-0.8889 2.66666,-8.66667 z m -151.37994,-2.71055 c 18.07601,-4.7082 32.26952,-16.46301 40.3022,-33.37754 4.25755,-8.96517 4.9006,-11.69271 5.43209,-23.04044 0.50536,-10.789533 0.13147,-14.261642 -2.31129,-21.466178 C 144.17104,56.53981 133.75109,44.86542 116.95365,36.785092 100.33258,28.789602 80.01983,29.273293 62.76625,38.075412 47.76418,45.728898 34.41959,64.822003 31.34902,83.026417 24.17703,125.54678 64.80256,162.6343 106.62005,151.74222 Z M 74.88889,139.56388 C 74.4,139.075 74,134.20505 74,128.74178 v -9.93321 l 3.59918,0.68802 c 1.97955,0.37842 4.90017,0.19339 6.49028,-0.41116 1.82986,-0.69572 4.13407,-0.45433 6.2773,0.65759 2.29659,1.19148 3.82281,1.32018 4.74306,0.39993 2.19921,-2.19921 8.53839,-1.55354 10.45286,1.06466 1.02899,1.40722 1.77065,5.94493 1.77065,10.83333 0,8.04008 -0.1445,8.41183 -3.26971,8.41183 -3.07961,0 -3.29279,-0.48449 -3.66667,-8.33333 -0.34831,-7.31213 -0.72374,-8.33334 -3.06362,-8.33334 -2.34291,0 -2.71512,1.02194 -3.06581,8.41745 -0.37047,7.81293 -0.60986,8.38746 -3.33333,7.99999 -2.58218,-0.36736 -2.98241,-1.34538 -3.3361,-8.15226 -0.28506,-5.48606 -1.00256,-7.96532 -2.4679,-8.52762 -3.01121,-1.15551 -4.41996,1.99266 -4.44311,9.92911 -0.0172,5.89156 -0.40749,7 -2.46486,7 -1.34445,0 -2.84445,-0.4 -3.33333,-0.88889 z M 70,86.452775 c 0,-9.166667 -0.41133,-16.666667 -0.91407,-16.666667 -0.50273,0 -2.31755,1.318512 -4.03293,2.930027 l -3.11887,2.930028 -2.75665,-2.756647 -2.75665,-2.756645 7.57848,-6.173381 c 5.14366,-4.189997 8.82432,-6.173381 11.45624,-6.173381 h 3.87778 V 80.452775 103.11944 H 74.66666 70 Z m 22.93333,15.066665 c -0.88,-0.88 -1.6,-3.027672 -1.6,-4.772605 0,-2.91032 0.35825,-3.083999 4.33333,-2.100803 9.78867,2.421123 17,0.07676 17,-5.526591 0,-4.285094 -3.77905,-6.541717 -11.08319,-6.618206 -4.0646,-0.04256 -7.77148,-0.458685 -8.2375,-0.924712 -0.46603,-0.466027 -0.35952,-5.859517 0.23668,-11.985535 l 1.08401,-11.138213 h 12 12 l 0.41555,3.60091 c 0.4086,3.540617 0.27465,3.607591 -8,3.999999 -8.34468,0.395731 -8.41895,0.434048 -8.8198,4.550606 -0.39194,4.025121 -0.24104,4.151516 4.95655,4.151516 13.88327,0 19.7891,15.397085 9.47297,24.696969 -3.59405,3.239995 -5.11992,3.666665 -13.11297,3.666665 -5.25771,0 -9.71564,-0.67001 -10.64563,-1.6 z"
     id="path184"
     inkscape:connector-curvature="0" />
</svg>
