<?xml version="1.0" encoding="UTF-8" standalone="no"?>
<!-- Created with Inkscape (http://www.inkscape.org/) -->

<svg
   xmlns:dc="http://purl.org/dc/elements/1.1/"
   xmlns:cc="http://creativecommons.org/ns#"
   xmlns:rdf="http://www.w3.org/1999/02/22-rdf-syntax-ns#"
   xmlns:svg="http://www.w3.org/2000/svg"
   xmlns="http://www.w3.org/2000/svg"
   xmlns:sodipodi="http://sodipodi.sourceforge.net/DTD/sodipodi-0.dtd"
   xmlns:inkscape="http://www.inkscape.org/namespaces/inkscape"
   version="1.1"
   id="svg66"
   width="266.19962"
   height="175.18996"
   viewBox="0 0 266.19962 175.18996"
   sodipodi:docname="stage-icon-6.svg"
   inkscape:version="0.92.4 (unknown)">
  <path
     style="stroke-width:1.33333325"
     d="m 117.53296,174.69267 c -5.61929,-1.43772 -11.56386,-4.70764 -14.54313,-7.9997 -1.39526,-1.54174 -3.904786,-2.80317 -5.576726,-2.80317 -7.68353,0 -15.8417,-5.75436 -17.25025,-12.16744 -0.75099,-3.41923 -1.40053,-3.83256 -6.02277,-3.83256 -6.30582,0 -13.96488,-6.04059 -15.28606,-12.05588 -0.67466,-3.07169 -1.59481,-3.94412 -4.15988,-3.94412 -11.45521,0 -18.87263,-12.23931 -14.03929,-23.16588 l 2.53282,-5.72585 -21.21752,-17.593181 C 10.300524,75.728642 0.42145409,66.948663 0.01667409,65.893824 -0.41682591,64.764142 7.6414941,52.039959 19.624474,34.932868 30.813544,18.959179 40.468864,5.3212334 41.080734,4.6263234 c 0.68732,-0.780583 4.58961,-0.143596 10.2103,1.666667 12.28745,3.9574396 16.30292,3.7280336 33.09424,-1.890692 12.85072,-4.30012004 15.52008,-4.75638704 24.713306,-4.22419904 7.9888,0.462465 12.13941,1.50512304 18.45743,4.63662404 l 8.15096,4.039993 7.57965,-3.11748 c 5.76903,-2.372769 10.12775,-3.119211 18.24634,-3.124729 9.26262,-0.0063 12.15846,0.623649 22,4.785747 21.85494,9.2427066 20.59774,9.0016046 33.74953,6.4723786 6.46224,-1.242756 11.94693,-2.046844 12.18821,-1.786864 2.02675,2.183808 36.72892,62.881342 36.72892,64.242493 0,0.975569 -9.27661,8.195915 -20.61469,16.045214 -11.3381,7.849304 -21.00698,14.906164 -21.48642,15.681914 -0.47944,0.77575 1.28468,3.61879 3.92026,6.31787 5.57208,5.70633 7.10296,11.35116 4.89378,18.04499 -2.03656,6.17086 -6.75168,9.78268 -14.23614,10.90506 -4.3965,0.65929 -6.29535,1.65828 -7.09803,3.73428 -2.75959,7.13726 -12.34736,12.27916 -19.31096,10.35641 -3.98624,-1.10065 -4.47837,-0.87171 -6.60177,3.07121 -3.09219,5.74184 -8.60517,8.73992 -16.07129,8.73992 -3.4066,0 -8.11403,1.01035 -10.46095,2.24522 -2.83495,1.49166 -7.84716,2.31253 -14.93379,2.44577 -5.86666,0.11027 -13.36666,0.56087 -16.66666,1.00125 -3.3,0.4404 -7.8,0.34018 -10,-0.2227 z m 9.28964,-10.46954 c -1.22419,-4.49117 -1.00205,-9.56504 0.50487,-11.53185 2.39564,-3.12675 2.58952,-5.94499 0.604,-8.77971 -2.05961,-2.94049 -2.09967,-2.91858 -11.23274,6.14451 -5.04118,5.00255 -9.16577,9.5478 -9.16577,10.10056 0,2.65701 10.65774,7.20267 17.81121,7.59668 2.07112,0.11413 2.31381,-0.46543 1.47843,-3.53019 z m 29.32098,-0.44772 c 0.80355,-0.78021 -1.2982,-3.84808 -5.66666,-8.27149 -7.43475,-7.52827 -8.06928,-9.02033 -4.94046,-11.61703 1.68051,-1.39469 3.6158,-0.1312 12.00403,7.83674 10.79643,10.25556 14.56919,11.58945 19.3258,6.83284 5.24441,-5.24442 3.65171,-8.71892 -10.66667,-23.26934 -13.04385,-13.25522 -15.46182,-17.33091 -11.24244,-18.95004 1.45104,-0.55682 7.30036,4.3522 19.11458,16.04184 15.53262,15.36886 17.4489,16.8442 21.87837,16.8442 5.7848,0 9.5373,-4.39422 8.22332,-9.62958 -0.44799,-1.78491 -9.47536,-11.89068 -20.06084,-22.45727 -10.58548,-10.56659 -19.24632,-20.205564 -19.24632,-21.419924 0,-1.21436 0.99469,-2.58963 2.21044,-3.05615 1.61772,-0.62078 7.96377,4.83327 23.66667,20.340084 11.80091,11.65356 22.78355,21.60431 24.40586,22.11276 5.66943,1.77692 12.04487,-4.48303 10.53833,-10.34744 C 225.28126,123.18392 208.81151,105.7752 189.08816,86.079563 156.45128,53.488579 152.97702,50.403378 150.4413,51.76045 c -1.5324,0.820117 -7.94146,7.444653 -14.24236,14.72119 -13.01358,15.028627 -20.12169,19.600949 -28.41854,18.280355 -6.88913,-1.096534 -10.914106,-6.094532 -10.914106,-13.552567 0,-12.002057 12.100806,-37.110678 24.188756,-50.190548 3.53574,-3.825881 6.28971,-7.068752 6.11993,-7.20638 -3.19254,-2.587963 -11.49299,-5.1255586 -18.37669,-5.6180856 -7.55088,-0.540263 -10.700416,0.03792 -22.884606,4.2011146 -15.57424,5.321534 -23.4381,5.986923 -33.82207,2.861808 -5.14399,-1.548112 -6.8579,-1.618937 -8.06646,-0.333333 -3.23536,3.441607 -33.82553,47.635844 -33.82553,48.868426 0,0.713956 8.72033,8.554322 19.37849,17.423037 l 19.37849,16.124939 3.62151,-2.53087 c 5.07548,-3.54696 9.65871,-4.396 15.30877,-2.83595 4.36922,1.2064 9.33361,5.64549 10.61601,9.492694 0.31218,0.93654 2.04773,0.63241 4.9471,-0.86691 9.38527,-4.853314 20.154166,-1.524454 23.895476,7.38653 1.84944,4.40495 2.80564,5.21298 6.18749,5.22866 8.37274,0.0388 16.66666,8.71755 16.66666,17.43994 0,1.56769 1.50018,4.63321 3.33372,6.81226 4.63724,5.51104 5.44224,9.83156 2.84614,15.27564 -1.19892,2.51416 -2.17986,5.38184 -2.17986,6.37263 0,1.96922 4.59246,5.39641 8.72224,6.50909 3.35914,0.90504 11.5677,-0.24271 13.22172,-1.84871 z m -45.6917,-19.63336 c 6.46126,-6.46126 11.74774,-12.68034 11.74774,-13.82019 0,-1.13984 -1.24354,-3.65335 -2.76344,-5.58558 -4.73948,-6.02528 -8.28252,-4.76239 -20.732796,7.39003 -12.12846,11.83829 -13.74697,15.85361 -8.50376,21.09682 4.74352,4.74352 7.79668,3.3745 20.252256,-9.08108 z M 89.838444,128.91924 c 6.65946,-6.62487 11.027846,-12.05308 11.027846,-13.70333 0,-4.84136 -3.750326,-8.65944 -8.505756,-8.65944 -3.70305,0 -5.98584,1.67127 -15.25773,11.17042 -5.99675,6.14373 -10.90318,12.31022 -10.90318,13.70332 0,4.59644 3.8273,8.45959 8.38109,8.45959 3.51469,0 6.09446,-1.85489 15.25773,-10.97056 z m -24.68462,-11.31265 c 7.55157,-7.43801 8.34137,-11.97975 2.8363,-16.31004 -4.56684,-3.592284 -7.55777,-2.677124 -14.95716,4.57655 -6.4388,6.312 -7.48139,10.95065 -3.46002,15.39422 3.94831,4.36283 8.52702,3.28707 15.58088,-3.66073 z M 256.03397,74.463534 c 0.0911,-0.417778 -6.72904,-12.614206 -15.1559,-27.103173 l -15.32154,-26.343578 -6.01179,1.095728 c -13.21761,2.409082 -19.87957,1.426342 -33.34512,-4.918915 -12.07228,-5.68872 -13.22977,-5.968845 -24.66666,-5.969636 -14.98454,-10e-4 -21.76667,2.956188 -33.45155,14.585929 -10.35263,10.303779 -22.33551,33.201964 -22.46607,42.930599 -0.18091,13.481265 8.64766,10.604629 24.7034,-8.049176 10.63934,-12.36093 18.21258,-18.111855 23.88088,-18.134511 2.59868,-0.0104 9.81235,6.635162 32.73071,30.152969 l 29.39736,30.1663 19.7703,-13.826475 c 10.87367,-7.604558 19.84486,-14.168284 19.93598,-14.586061 z"
     id="path107"
     inkscape:connector-curvature="0" />
</svg>
