<?xml version="1.0" encoding="UTF-8" standalone="no"?>
<!-- Created with Inkscape (http://www.inkscape.org/) -->

<svg
   xmlns:dc="http://purl.org/dc/elements/1.1/"
   xmlns:cc="http://creativecommons.org/ns#"
   xmlns:rdf="http://www.w3.org/1999/02/22-rdf-syntax-ns#"
   xmlns:svg="http://www.w3.org/2000/svg"
   xmlns="http://www.w3.org/2000/svg"
   xmlns:sodipodi="http://sodipodi.sourceforge.net/DTD/sodipodi-0.dtd"
   xmlns:inkscape="http://www.inkscape.org/namespaces/inkscape"
   version="1.1"
   id="svg76"
   width="266.46344"
   height="266.79047"
   viewBox="0 0 266.46344 266.79046"
   sodipodi:docname="stage-icon-5.svg"
   inkscape:version="0.92.4 (unknown)">
  <path
     style="stroke-width:1.33333337"
     d="M 5.55108,260.98166 0,255.31499 15.86956,230.65342 c 15.16288,-23.5634 16.09535,-24.70501 20.94014,-25.63703 13.53448,-2.6037 12.51945,-1.75109 67.04645,-56.31803 l 52.64254,-52.681108 -7.64253,-7.723124 c -10.4325,-10.542499 -10.23262,-14.006019 1.02412,-17.745467 4.16341,-1.383074 12.45269,-8.904535 37.7886,-34.288345 19.15165,-19.18785 34.30062,-33.2876689 36.95716,-34.3976439 16.02772,-6.6968068 36.52232,5.432792 40.69676,24.0861059 3.05134,13.634869 2.45346,14.534547 -34.13542,51.366214 -27.49192,27.674358 -32.96396,33.838328 -35.80584,40.333328 -4.43356,10.13276 -6.9286,10.13597 -17.1492,0.022 l -7.72525,-7.64465 -52.79241,52.79243 -52.79242,52.79241 -2.19056,9.64918 -2.19055,9.64917 -24.41741,15.86972 c -13.42958,8.72834 -24.55335,15.86972 -24.7195,15.86972 -0.16614,0 -2.80006,-2.55 -5.85316,-5.66667 z M 221.58534,68.248578 c 16.66221,-16.71986 30.29493,-30.999861 30.29493,-31.733334 0,-1.719917 -2.81186,-4.533587 -4.53068,-4.533587 -1.59441,0 -59.08307,56.949071 -60.99102,60.418565 -1.43581,2.61097 0.53757,6.2481 3.39003,6.2481 0.848,0 15.17453,-13.679882 31.83674,-30.399744 z M 203.45457,50.407531 c 26.20616,-26.188366 30.73022,-31.277853 29.63017,-33.333334 -0.71407,-1.334231 -2.02239,-2.425874 -2.9074,-2.425874 -1.97655,0 -62.29706,60.086914 -62.29706,62.055798 0,1.472267 2.67032,4.610871 3.9229,4.610871 0.39762,0 14.64074,-13.908358 31.65139,-30.907461 z m 11.75904,213.037739 c -3.66667,-1.74736 -8.57074,-4.89149 -10.89792,-6.98698 -5.13253,-4.62151 -79.10208,-89.66025 -79.10208,-90.93933 0,-1.78701 38.38909,-39.1845 39.72587,-38.69973 0.75188,0.27267 21.76496,18.32701 46.6957,40.12077 41.82716,36.56411 45.64728,40.26265 49.45354,47.87963 3.26444,6.53274 4.12217,9.94851 4.11186,16.37499 -0.0415,25.84729 -26.96853,43.22012 -49.98697,32.25065 z m 23.13552,-17.78168 c 6.41834,-4.79198 8.86448,-9.42232 8.86448,-16.7797 0,-21.61699 -29.67976,-27.12838 -37.38867,-6.9429 -2.81065,7.3596 -1.8162,13.73751 3.04228,19.51148 6.72963,7.99771 17.93084,9.8488 25.48191,4.21112 z M 94.70541,131.2811 87.53055,122.64832 70.70541,122.62522 C 43.56191,122.58782 31.01822,118.82361 18.16416,106.85799 5.8631,95.407152 -1.46105,73.921406 0.38784,54.710324 2.01045,37.850445 0.44174,37.49265 23.29666,59.935397 48.94452,85.120695 48.36954,84.984023 64.15886,69.648375 76.21671,57.93698 79.08091,53.448161 77.90678,48.102396 77.40157,45.802193 69.61081,36.620903 57.17219,23.667023 L 37.24689,2.9163241 45.6728,1.4490151 c 11.01118,-1.91751479 15.63023,-1.82576009 26.75739,0.53152 21.19457,4.490051 35.98275,15.2850929 44.48234,32.4711259 l 4.96775,10.044712 0.37241,22.076 0.37241,22.076002 7.98471,7.333337 7.98471,7.333328 -18.35713,18.29945 -18.35711,18.29944 z"
     id="path86"
     inkscape:connector-curvature="0" />
</svg>
