<?xml version="1.0" encoding="UTF-8" standalone="no"?>
<!-- Created with Inkscape (http://www.inkscape.org/) -->

<svg
   xmlns:dc="http://purl.org/dc/elements/1.1/"
   xmlns:cc="http://creativecommons.org/ns#"
   xmlns:rdf="http://www.w3.org/1999/02/22-rdf-syntax-ns#"
   xmlns:svg="http://www.w3.org/2000/svg"
   xmlns="http://www.w3.org/2000/svg"
   xmlns:sodipodi="http://sodipodi.sourceforge.net/DTD/sodipodi-0.dtd"
   xmlns:inkscape="http://www.inkscape.org/namespaces/inkscape"
   version="1.1"
   id="svg101"
   width="266.66666"
   height="366.61136"
   viewBox="0 0 266.66666 366.61136"
   sodipodi:docname="stage-icon-4.svg"
   inkscape:version="0.92.4 (unknown)">
  <path
     style="stroke-width:1.33333325"
     d="M 27.14207,363.89033 C 17.60678,360.22331 8.95861,352.1685 4.0847,342.41494 L 0,334.24074 V 183.33333 32.425926 l 4.0847,-8.1742 C 9.04388,14.327518 17.67423,6.3951155 27.52056,2.7111293 34.56631,0.0749753 37.49253,0 133.33333,0 c 95.84081,0 98.76702,0.074975 105.81277,2.7111293 9.84633,3.6839862 18.47668,11.6163887 23.43587,21.5405967 l 4.08469,8.1742 V 183.33333 334.24074 l -4.08469,8.1742 c -4.95919,9.9242 -13.58954,17.8566 -23.43587,21.54059 -7.05324,2.63896 -9.88025,2.70928 -106.19612,2.64165 -95.29315,-0.0669 -99.20342,-0.16693 -105.80791,-2.70685 z m 205.52459,-18.41815 c 6.20765,-2.87405 11.89899,-8.55604 13.91517,-13.89232 0.97026,-2.56797 1.41816,-49.4952 1.41816,-148.57904 V 38.175265 l -2.8282,-5.842278 c -1.70368,-3.519349 -4.97836,-7.265187 -8.23596,-9.420966 l -5.40776,-3.578688 H 133.33333 35.13859 l -5.40776,3.578688 c -3.2576,2.155779 -6.53228,5.901617 -8.23596,9.420966 l -2.8282,5.842278 V 183.00082 c 0,99.08384 0.44791,146.01107 1.41816,148.57904 2.01618,5.33628 7.70752,11.01827 13.91517,13.89232 5.03184,2.32967 10.6472,2.46925 99.33333,2.46925 88.68613,0 94.30149,-0.13958 99.33333,-2.46925 z M 56.29687,324.4521 c -13.45204,-6.6304 -17.06097,-23.66777 -7.43631,-35.10604 4.73006,-5.62136 9.86486,-8.01273 17.20506,-8.01273 8.11969,0 14.7494,3.27394 18.69106,9.2302 6.29369,9.5104 5.87655,19.67793 -1.13495,27.66358 -7.25074,8.25814 -18.15841,10.74306 -27.32486,6.22499 z M 76.8,314.13333 c 3.63116,-3.63116 4.53333,-5.58547 4.53333,-9.82019 0,-9.724 -9.72497,-17.54425 -18.6384,-14.98792 -12.19714,3.49809 -15.60742,17.01592 -6.4507,25.56957 3.19201,2.9818 5.29296,3.77187 10.03011,3.77187 5.03703,0 6.71504,-0.72271 10.52566,-4.53333 z m 49.2,10.64352 c -8.13817,-3.63254 -14,-12.84975 -14,-22.01375 0,-6.12415 5.26981,-14.61348 11.2452,-18.11528 13.46716,-7.89228 29.74445,-1.37419 34.17604,13.68551 5.17345,17.58068 -14.3905,34.04533 -31.42124,26.44352 z m 18.30637,-8.73167 c 7.08779,-5.57524 8.08528,-16.71561 2.00655,-22.4098 -7.1256,-6.67481 -15.88697,-6.47549 -22.45019,0.51073 -2.49304,2.65372 -3.19607,4.86892 -3.19607,10.07067 0,5.84707 0.53645,7.14793 4.35437,10.55925 5.39029,4.81622 14.05137,5.3862 19.28534,1.26915 z m 49.09728,7.65688 c -14.60927,-7.82497 -15.97384,-28.94325 -2.49056,-38.5442 6.52556,-4.64661 18.89301,-5.0956 25.05517,-0.90961 7.39249,5.02174 10.6984,11.00061 10.6984,19.34846 0,3.96131 -0.89937,8.94156 -1.9986,11.06724 -5.59036,10.81058 -20.11557,15.00962 -31.26441,9.03811 z m 19.52372,-7.64328 c 12.08093,-7.36621 6.26218,-26.71001 -8.1575,-27.11875 -9.23397,-0.26174 -15.43654,6.08435 -15.43654,15.79375 0,3.75635 1.03395,5.90016 4.53333,9.39955 5.38599,5.38598 12.24836,6.0792 19.06071,1.92545 z M 55.21507,254.81206 c -15.85229,-9.66662 -15.72376,-30.65953 0.24362,-39.79013 9.5088,-5.43739 20.48632,-3.32569 28.16304,5.41761 9.40594,10.71278 6.30519,27.74379 -6.26759,34.42498 -6.14592,3.26594 -16.7384,3.24085 -22.13907,-0.0524 z m 19.58585,-7.20534 c 3.61623,-2.25836 6.53241,-8.3352 6.53241,-13.61244 0,-7.08444 -7.01594,-13.99627 -14.19999,-13.9893 -7.52947,0.007 -13.31612,4.07056 -15.3194,10.75694 -1.47347,4.918 -1.36697,6.11208 0.92737,10.39709 4.46552,8.34001 14.38637,11.23973 22.05961,6.44771 z m 49.39806,7.46465 c -9.54655,-4.70363 -14.24156,-17.33827 -10.28889,-27.6882 5.62536,-14.72979 22.728,-19.98155 34.88192,-10.71129 6.16563,4.70274 9.03615,10.65657 9.07787,18.82864 0.0837,16.40852 -18.34682,27.12108 -33.6709,19.57085 z m 15.38088,-5.82685 c 16.72063,-6.33528 12.84643,-29.22068 -4.94985,-29.23954 -8.09444,-0.009 -14.63001,7.08647 -14.63001,15.8824 0,4.7244 6.59676,12.98026 11.06407,13.8467 1.61476,0.31318 3.34687,0.65114 3.84913,0.75101 0.50226,0.0999 2.60226,-0.4584 4.66666,-1.24057 z M 196,256.37129 c -4.6691,-1.75445 -9.57047,-6.27568 -12.03019,-11.09713 -9.93611,-19.47636 11.16132,-40.57379 30.63768,-30.63768 7.66986,3.91286 11.20597,9.69998 11.79706,19.3068 0.41655,6.77005 -0.007,8.79692 -2.65281,12.69165 -4.98507,7.33848 -11.02627,10.71573 -18.94892,10.59313 C 201.06126,257.17016 197.1,256.78462 196,256.37129 Z m 17.33333,-9.50748 c 1.83333,-1.34129 4.17136,-4.80819 5.19561,-7.7042 1.66527,-4.70841 1.61097,-5.79507 -0.51312,-10.27128 C 215.25837,223.07744 210.15155,220 203.26621,220 c -3.75635,0 -5.90016,1.03394 -9.39955,4.53333 -13.23121,13.23121 4.34534,33.39351 19.46667,22.33048 z M 59.00854,191.84384 C 48.89598,188.92334 41.48656,175.80744 43.90157,165.10198 46.20463,154.89282 56.02632,146.72522 66,146.72522 c 6.08705,0 14.55879,4.43722 18.6083,9.7464 9.47762,12.4258 2.94799,31.23038 -12.31637,35.4697 -5.77609,1.60418 -7.43328,1.59201 -13.28339,-0.0975 z m 13.6124,-8.40547 c 10.95537,-4.57745 11.42608,-21.23144 0.75604,-26.74913 -8.01194,-4.14314 -16.93625,-1.12083 -20.81284,7.04846 -2.78704,5.87326 -1.60713,12.12591 3.11913,16.52907 5.87013,5.46883 9.71605,6.18899 16.93767,3.1716 z m 54.71239,7.95259 c -17.58081,-6.41459 -20.20966,-31.05608 -4.34552,-40.7326 13.27877,-8.09955 30.33964,-1.53508 34.30749,13.20041 4.81696,17.88881 -12.57942,33.87443 -29.96197,27.53219 z m 18.19153,-10.90779 c 12.7379,-12.20369 -1.82941,-31.93295 -17.56851,-23.79393 -2.15117,1.11241 -4.82137,3.78261 -5.93378,5.93378 -7.95322,15.37982 11.03209,29.80736 23.50229,17.86015 z m 51.34872,10.90529 c -17.12738,-6.10674 -20.9244,-26.87282 -7.12845,-38.98582 10.73692,-9.42715 28.73396,-5.92034 34.75714,6.77261 2.66448,5.61495 2.80396,15.73292 0.28343,20.55763 -2.93183,5.61196 -8.94513,10.54742 -14.78571,12.13545 -6.56209,1.78423 -6.80089,1.77549 -13.12641,-0.47987 z m 16.74725,-9.6088 c 3.99922,-3.56122 6.4753,-10.29901 5.52708,-15.04005 -0.46177,-2.30888 -2.87336,-5.897 -5.53272,-8.23195 -4.1817,-3.67158 -5.40018,-4.06176 -10.78809,-3.45446 -11.23706,1.26658 -16.78388,12.05018 -11.47701,22.31254 4.04016,7.81282 15.82981,10.14944 22.27074,4.41392 z M 42.66667,77.999999 v -34 h 90.66666 90.66666 v 34 V 112 H 133.33333 42.66667 Z m 172.66666,0 V 51.333332 h -82 -81.99999 l -0.36383,25.292276 c -0.20011,13.91075 -0.0672,26.065372 0.29542,27.010262 0.52998,1.3811 16.68085,1.65061 82.36383,1.37439 l 81.70457,-0.3436 z"
     id="path142"
     inkscape:connector-curvature="0" />
</svg>
