<?xml version="1.0" encoding="UTF-8" standalone="no"?>
<!-- Created with Inkscape (http://www.inkscape.org/) -->

<svg
   xmlns:dc="http://purl.org/dc/elements/1.1/"
   xmlns:cc="http://creativecommons.org/ns#"
   xmlns:rdf="http://www.w3.org/1999/02/22-rdf-syntax-ns#"
   xmlns:svg="http://www.w3.org/2000/svg"
   xmlns="http://www.w3.org/2000/svg"
   xmlns:sodipodi="http://sodipodi.sourceforge.net/DTD/sodipodi-0.dtd"
   xmlns:inkscape="http://www.inkscape.org/namespaces/inkscape"
   version="1.1"
   id="svg91"
   width="266.65683"
   height="266.65494"
   viewBox="0 0 266.65683 266.65494"
   sodipodi:docname="stage-icon-3.svg"
   inkscape:version="0.92.4 (unknown)">
  <path
     style="stroke-width:1.33333325"
     d="m 20.67593,263.53158 c -3.672,-1.70996 -8.60602,-5.30677 -10.96448,-7.99292 C 1.64023,246.34606 1.66348,246.66031 0.79278,135 L 0,33.33333 H 20.67615 41.3523 V 17.542078 1.7508245 l 21,-0.8709714 C 73.9023,0.4008188 124.20762,0.0068829 174.14189,0.00444 L 264.93148,0 l 0.87707,24.213742 c 0.4824,13.317558 0.86391,67.167557 0.8478,119.666668 -0.0277,90.51436 -0.15888,95.7383 -2.53403,100.96893 -3.51532,7.74152 -11.13162,15.73355 -18.12792,19.0222 -5.8828,2.76524 -7.08344,2.79499 -112.29423,2.78209 L 27.3523,266.64033 20.67593,263.5313 Z m 216.17826,-8.28491 c 8.65332,-2.39529 15.49531,-9.60974 18.49383,-19.50056 1.89754,-6.25921 2.05828,-14.95813 1.38724,-75.07945 -0.41743,-37.4 -1.11847,-86.749997 -1.55787,-109.666663 L 254.37847,9.3333314 h -77.63268 c -42.69797,0 -88.52885,0.3946844 -101.84641,0.8770766 l -24.21374,0.877076 v 97.122926 97.12292 H 46.01897 41.3523 V 124.66666 43.999997 H 26.16951 10.98672 L 9.87895,78.333329 C 9.26968,97.216662 8.75193,140.26666 8.72841,174 c -0.0387,55.51907 0.18067,61.91222 2.31423,67.43989 2.82553,7.32042 8.25313,12.834 14.87478,15.11042 7.4342,2.55575 201.32314,1.35747 210.93677,-1.30364 z m -67.31088,-30.19609 c -3.92826,-0.71461 -6.62826,-1.79824 -6,-2.40805 1.75411,-1.70258 20.70395,-3.97587 33.14232,-3.97587 12.33673,0 31.38303,2.26877 33.11055,3.94409 3.55292,3.44559 -44.11381,5.37576 -60.25287,2.43983 z m -83.52434,-1.63252 c -0.73333,-0.29791 -4.25572,-0.93647 -7.82752,-1.41901 -3.65284,-0.4935 -5.98628,-1.38059 -5.33333,-2.02755 3.70346,-3.66944 37.62427,-5.17539 55.77305,-2.47609 10.55372,1.56966 12.51617,2.92757 6.3878,4.41996 -4.17473,1.01662 -46.96617,2.32892 -49,1.50269 z m 2,-33.9549 c -4.03333,-0.5726 -9.73333,-1.53144 -12.66667,-2.13074 l -5.33333,-1.08964 7.01292,-1.64753 c 15.96961,-3.75171 49.67272,-3.46169 60.43641,0.52005 2.86652,1.0604 2.44176,1.35375 -3.94265,2.72296 -9.30878,1.99638 -36.14127,2.95447 -45.50668,1.6249 z m 90.66666,0 c -4.03333,-0.5726 -9.73333,-1.53144 -12.66666,-2.13074 l -5.33334,-1.08964 7.01292,-1.64753 c 15.96962,-3.75171 49.67272,-3.46169 60.43641,0.52005 2.86652,1.0604 2.44176,1.35375 -3.94265,2.72296 -9.30877,1.99638 -36.14126,2.95447 -45.50668,1.6249 z M 78.87665,157.05058 c -21.61797,-3.93262 23.07362,-8.47437 48.7125,-4.95037 5.7364,0.78845 10.90734,1.89599 11.49098,2.46117 3.51154,3.40051 -44.32208,5.37826 -60.20348,2.4892 z m 91.47565,-2.62468 c -4.21667,-0.7674 -7.66667,-1.86518 -7.66667,-2.43953 0,-2.31155 23.51903,-4.32609 41.27413,-3.5354 18.61903,0.82917 25.39254,1.77588 25.39254,3.54903 0,0.56236 -1.65,1.42426 -3.66667,1.91537 -6.47217,1.57611 -47.40317,1.95376 -55.33333,0.51053 z M 87.72009,121.36368 c -4.93104,-0.62516 -10.93104,-1.56867 -13.33333,-2.09669 -4.15249,-0.91269 -4.21678,-1.01592 -1.30414,-2.09408 1.68501,-0.62374 9.8664,-1.82375 18.18087,-2.66669 15.24871,-1.54594 38.51336,-0.23617 46.17992,2.59988 2.90953,1.0763 2.52333,1.35079 -3.81223,2.70953 -9.66319,2.07238 -35.02914,2.92768 -45.91109,1.54805 z m 90.66668,0 c -4.93106,-0.62516 -10.93106,-1.56867 -13.33334,-2.09669 -4.1525,-0.91269 -4.21678,-1.01592 -1.30414,-2.09408 1.685,-0.62374 9.8664,-1.82375 18.18086,-2.66669 15.24872,-1.54594 38.51336,-0.23617 46.17992,2.59988 2.90953,1.0763 2.52333,1.35079 -3.81223,2.70953 -9.6632,2.07238 -35.02914,2.92768 -45.91107,1.54805 z M 67.57452,97.777773 C 67.08564,97.288885 66.68564,81.988885 66.68564,63.777774 v -33.11111 h 37.33333 37.33333 v 33.999999 33.999999 h -36.44444 c -20.04445,0 -36.84445,-0.4 -37.33334,-0.888889 z m 104.4791,-11.218408 c -11.27444,-1.992801 -10.69917,-3.428306 2.10207,-5.245444 17.24674,-2.448177 57.86327,-0.562714 57.86327,2.686075 0,0.562353 -1.65,1.426297 -3.66666,1.919875 -6.22186,1.522795 -48.57927,2.003931 -56.29868,0.639494 z m 10.63201,-32.827299 c -3.3,-0.257791 -9.25897,-1.118128 -13.24217,-1.911861 -9.75621,-1.944127 -6.90801,-3.260347 11.30451,-5.224072 15.03602,-1.621229 34.37277,-0.923824 46.60197,1.680762 5.56717,1.185699 6.19009,1.594796 3.78376,2.484955 -7.4585,2.759079 -31.93879,4.259897 -48.44807,2.970216 z"
     id="path163"
     inkscape:connector-curvature="0" />
</svg>
